<mxfile host="app.diagrams.net" modified="2023-06-01T07:14:43.719Z" agent="Mozilla/5.0 (Windows NT 10.0; Win64; x64) AppleWebKit/537.36 (KHTML, like Gecko) Chrome/113.0.0.0 Safari/537.36" etag="JUmTjrK9FoKIrwlJA1hF" version="21.3.6" type="device">
  <diagram name="Trang-1" id="DKF0dMfFSQLW1Hyae-NO">
    <mxGraphModel dx="1313" dy="716" grid="1" gridSize="10" guides="1" tooltips="1" connect="1" arrows="1" fold="1" page="1" pageScale="1" pageWidth="850" pageHeight="1100" math="0" shadow="0">
      <root>
        <mxCell id="0" />
        <mxCell id="1" parent="0" />
        <mxCell id="Iny73TC0fmmfp_J8bzEN-1" value="" style="shape=image;verticalLabelPosition=bottom;labelBackgroundColor=default;verticalAlign=top;aspect=fixed;imageAspect=0;image=data:image/png,iVBORw0KGgoAAAANSUhEUgAAAgAAAAIACAYAAAD0eNT6AAAABHNCSVQICAgIfAhkiAAAAAlwSFlzAAAN1wAADdcBQiibeAAAABl0RVh0U29mdHdhcmUAd3d3Lmlua3NjYXBlLm9yZ5vuPBoAACAASURBVHic7N13mFTV+cDx77sURYoI2FAUjYIoVrBjjxGMmgiRaMYeY+wau9HYYom9/Yy9u9FoggYrq3REkaIooiCCWECUXpa27Pv741yQsrBTzrn3zuz7eZ55RJh5zzuzd+ece+857xFVxSRLRA4GzgI2BTaMHnOA/wD/VtWvksvOGGP8EJHtgROAnaPHdkC9BFNaBkwAPo0eL6jqlwnmEyuxAUByRKQbcDWwfy1PHQGcp6rDwmdljDF+iUgL4DrgbKBBwumsy1LgIeAGVZ2ZdDKh2QAgISJyA3BtDi9ZABynqm8FSskYY7wTkU7AO8BGSeeSg1nA4ao6MulEQrIBQAJE5M/Aw3m8tAr4o6o+6zklY4zxTkS2BYbibm8Wm2nAfqo6MelEQrEBQMxE5BigF/nf91Kgo6qO9ZeVMcb4JSIbAsOB7ZPOpQBfAnuq6pykEwmhftIJiMjWwB7A7sBuwBLgo+gxUlWnJZieVyKyMfAMhU16EeAq4KQC8miC+7yXf+ZbAp/x8+f+mapWF5CjMcacRnF3/uDyPw24N+lEQkjsCkA0OrwXOHUdT6sCbgNuVNUlceQVkog8BpzhIVQV0E5VJ+WRwwnA/wEt1vG0D4BTVXVcnvkZY+o4ERkLdEg6Dw8+V9Udk04ihLIkGo1mv3/Gujt/cFcorgZGiMgeofMKKZoIc7qncPVxs2lzaX8TEekF/It1d/4A+wAfi8glIpLIMWKMKV4icgCl0fkDdIjeT8mJ/ctdRK4F3gS2yOFlOwPDRKRLmKzCEhEBHsDv571VDu23wF3aPzaH+OsDdwKvi8j6OeZmjKnbfp10Ap6V2vsBYh4AiMj1wA15vrw+8ISINPKXUWxOAvb1HDOXJTX3Aa3zbKcb8KoNAowxOdg76QQ8K7X3A8Q4AIg6/+sKDNMO+Hvh2cRHRJri5jH4ltUAQESOAk4ssK0jsEGAMSYL0W3Dzknn4VnnUrwdGssb8tT5L/cXEWnvKVYcrgU2CxB3UW1PiG49POSpvSOAV0RkPU/xjDGlaUegSdJJeNYE975KSvABgOfOH1zORTEhIxqoXBgofK8snvML3BI/X7oC/7MrAcaYdSjJy+WU4PsKOgAI0PkvVyyXl+4lTN3rauClLJ7XKUDbdjvAGLMuJddRRkrufQUbAATs/CFMx+ZVVPGva6DwQ1R1ShbPCzVQskGAMWZt9ko6gUBK7n0FGQAE7vwBWgWMXbDoPvk9AZu4K8vnhfycbBBgjFmFiDQGOiadRyAdo/dXMrwPAGLo/MGtaU+zS4FtA8V+W1V7Z/nc0J+TDQKMMSvrRGGlztOsHkVw9TkXXgcAMXX+AKndolFEtsTV6g9hKblNKozjc7JBgDFmuZK7T76aknp/3gYAMXb+ACNiaicfdwChLhPdq6rjc3j+x8CyQLmszJYIGmOgBO+Tr6ak3p+XAUDMnf9ooF9MbeVERA4Ejg8Ufio5FkFS1QXAo2HSWYMtETTGlNQZcg1K6v0VPACIufOvAk5T1aUxtZc1EamHq/cfyhWqOi+P110OTPadzFrY7QBj6igR2Rxo4znsSaoq+T4oYNv0tWgTvc+SUL+QF8fc+QPcpqppnQB4FrBLoNhDgefzeaGqzheRM4B3/Ka0VssHAb9V1VqrFRpjwoluy+0G7ImbQzQeGK+q33tupwz4k8+YkWEJv74mfxKRm1S12mdQEdkCV+6+Ha5+zHDgY1Vd7LOdVdpU1fxeGH/n3w/opqpLYmwzKyLSEviS3DboyVY1sKeqjiokiIjchNtaOS59ABsEGJOAaPv0O3BVU2sqRjYVeAX4LzBQVfOeKxTt0nof4HvL9pmq2rLQICIyg9q3QM/VKOBCVR2Sb4DoqvFBQA/cTq01XVlYCgwGLiu0D6iRqub8AK4HNMZHP2CDfHKN4wE8HPC9P+Ixz3/E/HN7G1g/6Z+PPexRVx5AS9y8n2U5/J5OB54AjgQa5tBWG+CFgN8fb3r6TN4MmOMLQJsccmkYfc5PRJ97tu0si36uLb0eL3l8mNfH3ImkvfPfPcdftlweM4FWnvO1QYA97FGCD6AR7rJxIb+vs3G3G48FGq2jnWuBBYG/O67z9LlcFzjPBdHnsa7P69joc51dYFvD19ZOXp9Njh/k9YE/yNUfqe78o89kSMD3f16gnG+L+edogwB72CPgAxDg355/b+cDL+NWNjWN2jkO+Dqm742unj6brjHl+zVwXNRm0+hzezn6HH2282+i2/eFPrKeA5DAPf8BwK9VtTLGNnMiIhnynJyXhU+B3bWAe3PrIiK34VYIxMXmBBgTiIhcgbu6F8piYCLQIWAbK1Pc1c+ZhQYSkRa4y+1ScFbZ+RxXCTZkXZQrVfW2QoNkNQCwzn9NItIEGAe0DtTEIao6IFBsAETkduCykG2sxgYBxngmIm1w30WNks7Fo/Gq2t5XMBEZh5tdXyoWAu1V9dtCgtRaB8A6/7W6hnCd/0uhO38AVb0cN1M4LlYnwBj/7qC0On/wv3wvxHLAJDXCw3f3OgcACXT+AymCzl9Etgf+Eih8JW4zoVjYIMCY4hUtwft90nkEYAOA2v0++vnnba0DAOv81+ke3HKOEG4p9LJOrqJBwJ0xNmmDAGMKFBXfuS/pPAJ5P+Xx0uK+6DjIS41zABLs/BfE2GZeROTXwOuBwk8EdtSAlZ/WRUTuIMarD9icAGPyFlX4fCzpPAL4BmirK3dOmUwHXN2B/pSX51wKXkQEN0t/K085psmfVPXxfF64xgDAOv+1E5GGwGfAdoGa+I2q9g4UOysicidwSYxN2iDAmByJSDNc9dFNks4lgNtV9YpV/iaTGQx0AWYBvYFeQAXl5Vl/bySw8ikuPwLbq+rcXF+4ygAggc5/EHBkMXT+ACJyJXBroPB9VLVroNg5sUGAMemWwO9oXOYCO6nqdyv+JpM5Hldxb3XzcFX+/gu8SXn5OvsREdkSdwLXzFu26XGXquZ89XbFACDwmvaaFFvn3xq31KZJgPBLgZ1VdVyA2HlJ4AvmMVU9M8b2jClKItIOGEPNNf6L3aqXszOZRrjv3dp2GVyIO5H4L/Aa5eVzanpSCd82WQp0VNXxubxIVHX5No6fEWYzm5oUVecPICLlwB8Chb9TVeNcj58VEbkLuDjGJruqap8Y2zOm6IjI68Cvk84jgHtVddXVVZnM9eR+VXoJ0Bc3GPgf5eXTV/5HEbkHuCj/NFPrDVU9KpcXLB8AvAbk9MICDMbt6ldMnX8XXN4h/AC0U9V5geIXJOZBwLe4UWzO97KMqQtEpCvwVtJ5eLYMV/f/5lX+NpPxUeBoGW6e2X+BVygvn0oms8XFo0YNun/cuG2XZVkJt4h0U9W3s32yAIcB74bLZxXF2PmXASNxe2qHcIqqPhsothcicjfh6h6s7hZVjXPbYmOKgog0AD4Bdkg6F08UVyv/2hpvf2YyL+K3xoECQ3GfX8txc+dy7Sef8PI331BCw4AvgF1UNauVEmXAPmHzWWEwRXbZP3Im4Tr/94HnAsX2RlUvxtU+iMO+MbVjTLE5l9Lo/Jfh5pt1VNXfr6XzD1HgSID9cVsm075ZM/7dpQtjfv1rTmzblnoS11YBQe2AO06yIrhLI92DpeMMwZ35zw/cjlfRJhLjiQ4Yz6qBvVR1ZIDYQcR0JWCWqrYI3IYxRUVEWuGW/TVPOpcCLAaexi3zm7jWZ2UyZcAI3FbrsZk4fz63jx3L0xMnsri6Os6mfZuNWxY4vbYnlgF7BE6mKDv/yN8J0/kDPFFMnT+suBJwb+BmNhKRtoHbMKbY3ETxdv4LgLuBbVX1rHV2/s7pxNz5A2zbpAkP77UXE3/zGy7eYQca168fdwq+NMcdL7USYAYQ8ozrVlX9a8D4QYjILsAooF6A8FmP0NImmoT0BllsJFWAXVT104DxjSkaIrIr7rso5O9cKG8Df1TVKVk9O5NJTYGjKQsX8scPPuDtqVOTTiUf1cAeqjp6XU8qAz4KnMhVUYGhYvMAYTp/cJNeirXzf5WwX0SLcRNZjDHOfRRf578AOEdVu2Xd+TvXkoLOH6B1o0a8dcgh/HPPPYvxakBW+0Qsn+Ee2nXFNAgQkeOBAwOFHwP8M1DsYFbq/NcL3NSYbGewGlPqROR3wEGBwo8G+uMm5fn0PrCbqj6U06symXbABZ5zKdjZ22/Px926sW+rVl7j1hPhkE03ZdeNgpXfOSg6ftaqDHdpKQ5FMQgQkcaE3R73fFX1/QsXVIydP4S/ImVMUYh2ywy1S2c1bgnyocBmwBm4+gJLCoi5FLgaOEBVJ+Tx+rtJaXXD7Zo2ZfDhh3PzrrvSoCz/izENy8ro1ro1j++9Nz90706/ww7jmX32oSzcCoQ717XrquCKLIwGtg+VwWpuUNXrY2orZyJyMxBqzsJLqlpUe3fH3PkvBnZX1c9jaMuYVBORa3ATkUN4RFXPqqHNDXFF4XoAXcm+CM/7wJ/znruTyRRNgaNPZ8/mzx9+yPvTs7uL26hePbq2bk2PNm04aost2LDBmmOcsz78kEcm5DNmysrfVLXGSYHLKwHuh1unH9d9plQOAkTkF7iSyCE6u0pgB1X9NkDsIGLu/AGuUNXbY2rLmNQSkS1wVfAaBwg/BzcJ+adacmgMdMMNBo5gzVLxVbgqe88Cz62yfW8uMpmiK3CkwHOTJvHspEkMnDaNqtXe+kYNG3LE5pvTo00burVuXescgp8WL2b73r2ZszTI3c8FQHtV/X71f1h5M6C494JP3SBARHoDRwcKv9ZRWBol0PkPA/YvttsjxoQgIs8DmUDhL1bVnAt7Rctzd8Z1/LOBcao6s+BsMpmLiK/QmHczlyxh3Ny5zF6yhCpVdm7enLaNcx+33fPFF1w8Ktgd+XJVPXH1v1x5ALA+bnnXoaEyqEFqBgGBa2xPAnYslu1uE+j8vwMOymJ9sDElT0T2xZWsDWEcbufRdEy0zWRKocCRF0urq9n5zTcZNzfYVij7qer7K//Fikv+Ued0NNAvVOs1SMXEwKjGdsgCN3+xzn+tvgMOsc7fGBARAe4P2MTFqen8nWIucORVg7Iy7t4jaF2++6Pja4VV7vmraiV1cxBwEdA+UOwKVf1foNheJdj5B5v9YkyRORXoHCj226r6ZqDYuctkdgX+lHQaaXJk69Z03XzzUOE7446vFdaY9FfXBgEisjnwt0DhlwIXBortlXX+xiRLRJoCtwQKX0V8O3pmqxgLHAV3T6dO1A+3LPCW6DgD1vLh17FBwG1A01qflZ/7VTX1Ve2s8zcmFa7BrckP4cFUfRdlMiELHBW1HZo149x27UKF3wx3nAErTQKsiYhsALxGiU4MjCbbvIerh+DbD0A7VZ0XILY31vkbk7xoCfJYoGGA8NNxy/5mB4idu0xmfVy5762TTiWtZi9Zwvavvcb0xYtDhF+Cm5T+1Tovv5TylQARKcPV+w91reUK6/zXYJ2/MTW7mTCdP7i9R9LR+TuXYZ3/OjVv2JAbd9klVPiGuONt3VcAlivFKwEi8ifg0UDhP8AtucivMEYMrPM3Jh1EpAUwlTADgE9x1TXTUV8jk9kStxRxg6RTSbtlquz+1lt8OjvI2G0JsHlWEzBK7UqAiDQn3GSbaly9f+v8f2advzFrdzzhzv4vSk3n79yGdf5ZqSfCvZ06hQrfEDg+6xmYJTYIuBHwu7XTz55U1RGBYhfMOn9jUueEQHGnAMMDxc5dJrMf8Iek0ygme7ZoQetG2W7HkLMTclqCUQqDABHpCJzjK95qZhNuI6GCWedvTCptGihua2CAiISKn71MRshif3rzs2mLFnFw375MWbgwVBOb5rwGswQGAfcD9TzFWt11tW2wkRTr/I1JrZBr4fcA3otWGSRpO2CnhHMoGl/Nn8/+FRWMmln4VgvrkN/GxgkOAn5XSAAROQ44xFM+qxsD/DNQ7IJEm3i8jHX+xqRR6GI4v8ANAoLWmV2n8vIvgcOBWYnlUCRGzZzJ/hUVfDV/fuim8hsAQGKDgAdFpGU+L4xWMtzpOZ+VXaCqVQHjF+JxoElMbVnnb0xuxsTQxqa42wGHxdBWzcrL3wO64L4jTA36/vADB/fty7RFsWwdM6agkWcCg4BNcGv383ElsJXHXFb2sqr2DxS7ICJyJhDXL711/sbk7uWY2mkKvCkix8fU3prKy8cC+wKfJZZDSr04eTJHDhjAvKWx7dX0clZ1AGqTQJ2Azqo6Mtsni8g2uCpb6wfIpRLooKrfBIhdEBGpB8wANoyhOev8jcmDiGwITCO+W3SKWx4YctfBdctkNgJ6464I1Hn3jxvHRSNHEuPa8cXkMwmwJglcCdg3x+ffTZjOH+Afaez8Ix2wzt+YVFPVOYTdjnx1AtwnIqFqodSuvHwWbk5AUeyUGtJfR4/mwng7f4B7VXWOt8knMQ8Cst4uU0QOB34bKI9JwB2BYvsQrIrESqzzN6ZwVwN9Y27zKhG5IuY2f1ZevgjoQbiKrKl329ix3PpZ7HdD+uKOt+xKAeciptsBY1R15yxyaQCMxp0Jh3Csqr4aKHbBROQB4LyATVjnb4wnItIKGEG8dfIV6KGqr8TY5poymeuB6xLNIWavfPstPQYPjvvMfzLuFvp0CLD8JKYrAdmWzfwD4Tr/ijR3/pFQ5UXBOn9jvIq+lA/E7ZQXFwHuik6WklNefj1wFpCmssXBLK2u5pKPPoq78/8COHB55w+B1p/GMAjIdgJgJlD7S4ELA8X2KeuJkjmyzt+YAKL5RF2AYTE2uw1wcozt1ay8/BHgd0Asa+CS9OykSUwKv85/ZcOALqvPVwtWgCLwIKDWji0qfxnqNsT9qhrnKD1fIQYA1vkbE5CqzsB9d70VY7PdY2xr7crLX8VNDkzT9sXe9fr22zibews4NDquVhG0AlXAQcCHWTynJ2FK/k7DbSZUDD7F72jaOn9jYhB9dx4DPBdTk3vH1E7tysuHkGXBoKr0brq6TsNmrNEXh/IccEx0PK2hfujWVbVSRI7G38TAd1R1cBbP29ZDWzW5QlXnBortlaouEZGbgJs8hLPO35gYqWqViJyCO+m4NHBzLUWkZU1niYkoL/8s2j3wbWDH5X/9xdy5vDllCsNnzGDEzJl8NW8ev2jalM4tWrBny5Yc2bo1OzRrllzeWZixeDEzFi+Oo6k7gcvXtTW991UAa23Iz+qA+UBHVZ2cRXvXAjcU0FZNPgD2W9cHmjYiUh93xWT3AsJY529MgkTkEtySYwnYTFNVjfXGdK0ymf2BIUurq7l17FhuGjOGpdXVa316g7IyrunYkat23JEG+Ve6D2pBVRVNXnopZBMKXKaqd9X2xNg+IU+3Ay7PpvOP+N50oho4v5g6f3BnEcBpuImL+bDO35iERV/mJ5P/73E2arxMnLANP5k9m7369OG6Tz5ZZ+cPbnb9dZ98wl59+vDJ7HROI2hUL9RmtIA7Pk7OpvOHGAcAsGIQcBRuX+hcOtJFwOXAwzm8xvc+ik+p6gjPMWOhqqOB3wBTcnzpO7grHtb5G5MwVX0eNy9gQYDwc1V13b1rAsbMmbP1Ef368fGs3M7nPp41iyP69WPmkiWBMstfmQgbNgiy6nIB7n7/89m+ILZbAGs0LHIA8BRuq8p1+RA4VVU/zzH+RriiB03zy3AVs4F2qvqTh1iJEZHmuMFXbUt+5gGXqmqdrdBVrEREcIVk2gObAc1wvwMrP1b+O3A/73nA3JX+vPLjB2AcMDmNnURdIyJ7AW8ArTyGnaSqoeZN5a1zy5YjRs6cmXdF00zbtjy/334+U/Jiu969fW/3Ox34tapmM0F+hcQGALBiXsBJwB64e9QdgSpc9b6PcGsXX1TVvIpDiMituF0AC3WRqt7nIU4qiMghuKU2u0ePVsB43Gf+EW53w2xvtZgEiEhjXCffHtgherQH2gGNAjW7CHecfIEbEHyx/M+qGuKs1KyFiPyZ3K6I1maEqu7pMV7BosnjvQuN0/uggzh6iy08ZOTPPn36+F4JcJaqPpLri4KvAliX6JbAiqSj3euqPd5nvwdXsKeQL8QPgQf9pJMO0dbFK7YvFpEGqhrbHpQmdyLSAjgIN4n2UFyFy5ATwmqyPrBL9FiZisjnuPk9/YCBqur7FpxZle/v7jT+vP7mI8jfx4xJ3QCg1XreN37M63hIdACwunzP9NcR70cRuQh4iPzmO0wHfhdNpCtZ1vmnj4g0xZWFPQTX4e9KzHN2ciC4pVo74vaeqBaR0bjBQH9gkKrOSzC/UuR7d9N0LP+LiEhD3DFfsNGzZrGkupqGKVoV0Gp975vT5hUwVQOAEFT1URGZhSuIkMuwaxau84+1ZJOpu6Kz/ONxe1jsTfH+fpbx8+2lS4AqERkG/At3Sy+NZ5vFpqQHALirTF72MllSXc0ns2fTuUULH+G8CHAFIK/jIT1DooBU9WWgGzAny5cMBXZT1YHhsjLGnemIyG9FpBcwFXe7aX+Kt/OvSX3ce3oQmCoivaL3HHKzqlLne55H2gYAWW/5no0R8VXey0qAAUBex0OdGADAivveWwHnA2NqeMoy4HXcMsUDVt80wRifRGRvEXkQtzTzFeBYwu7emBYNce/1FWCKiDwoIukpQ1s8fM/eTltf4HX9Xpou/wMs8z/5Pq+ApXSWUauohO//Af8XrUDYFmiBK3bzrd0LNyFFW66ejCvrukPC6aRBS+Ac4BwR+QJXuvRZ+z3MykLP8Vp6jlcorzVXOrdM19ub7r8UcF7HQ7qGRTFS1UpVHaOqg1R1on3pmFBEZH0ROReYADyOdf412QH32UwQkXNFxPssqRLje8vcdPWQ8BmeKhNuUL8+O224oY9Q3kxf5H3H47wC1tkBgDGhiUjjqIb7JNyVp60STqkYbIX7rCaJyCVRvQOzppIeAEQrwrxcBejcogX1JO4Vs+tmVwCMKVEisqGIXI2rRHknriKfyc1muM9usohcLSLpOoVLnu9asqkaAESukgLnOpSJcOtuu/nKx5sAA4C85g/ZAMAYT8Q5A/gKtwVzGr9Ui01L3Gf5lYicEZU6rtNE5BjgVs9hU3esqurQQzbddFAhMS5s3579WvmsmOxHgAHArdFxkRMbABjjgYjsBrwHPEYKv0xLQEvcZ/te9FnXSSLyR6AX/pcBpvKYLd9//2e2a5rfdi7bNW3Kzbt6qSXkXYABQCOgV3R8ZM0GAMYUQESaici9uPuV+yadTx2wLzBCRO4VkWZJJxOn6LbS40CI/WQbR6XYU2Wz9defMuCww+jWunVOr+vWujUDDjss9Na7eVmmyvyqIMVl6wGPR8dJVmwAYEyeROQE3GY4FxLmS9nUrB7uM/8i+hmUNBEpE5EHcLdCQtogcPx8LN1igw148+CDeXzvvWlWyza6zRo04PG99+bNgw9miw3S+HagMkznv7KbROQBEam1f090N0BjipGItMFtZX1Y0rkYAPoCp5Vi2e6oWuJzQM8YmmuZqjLNmcyuwNusNIn2h0WLGDBtGiNnzmTUzJmMnzePdk2bskeLFnRq0YKDN92UzfzX2fdq5pIltPzPf+Jo6iXgJFVda1ElGwAYkwMROQp4BldAyqTHTOAUVX096UR8iTaEeoV4BppTVTW36+whZTKHAK8CJXmbp/UrrzB1oe9aTjXqCxy7ts247BaAMVkQkQYichfwGtb5p1EL4DURuSuquFjURGRTYADxXWX6IKZ2apfJ9MSd+Zdk5w+wT3wrEw4DBkTH0xpsAGBMLUSkLTAYuDjZTEwWLgYGRz+zoiQi2+JWlOwRY7PlMba1dpnM+cALlPi+GJm2beNsbg/c6pltV/8HGwAYsw4icizwEW57XlMc9gY+in52RUVEdsftRvqLGJv9FLe0MFmZzK3A/dSBfql7mzbs3Lx5nE3+AhgaHV8r2BwAY2oQLYm6CzfbvBjNBMYD44AfgLnAvOi/K/8Z3KXWptF/V/7zZkB7oB3Fe9vjPuCSqLRsqonINrjlpHF+1kuAX6rq4BjbXFUmUx9X4+HUxHJIwOAff+SX/fqxpLo6zmZnAp1VdRLYAMCYNYjIerjLkMVwBrkId8b4Ia6zHw+MV9XpPhsRkVa4gUC7bVs3OWDzFuufOHL8rIaLlqS+XwU3ke4EVfVefcUXEWmE+znGXeToJFV9PuY2f5bJbAC8DByZWA4Jev7rrzlp6NC4m/0Y2E9VF9oAwJiVRDXn/wcclHQua1GFO0vsC/QDhqqq963F1qayoucOwCBg40VLljFs7AwGfPwjAz7+kVHjZ1K1LLXfJwOB36jqnKQTqYmIPEW8Z8DVwDmq+kiMba4qk2kFvE4dv732yIQJnDN8ONXx9sVPq+ppNgAwJiIim+FmH6etfugi3KDkX0D/tS3pCa2yomdbYAiwRU3/Pn9hFQM//pGX+n/D6+9PIYVXB0YDXVX1h6QTWZmIbAJMIb5iUouAP6jqKzG1t6ZMpi3ud619YjmkyCvffssfhg5l0bLYfmeWAa1tAGAMICK/ACqANWbKJug9XM2Bl5I+c62s6Lk5rvPP6vOZu2ApvQZ9x7/e/Zqhn00nRV8zE4FfqepXSSeynIj8GXg4pubmAMeoakGb7BQkk9kF1/lvnlgOKTToxx85ZuBA5ixdGleTZ9sAwNR50czYt4Aa18rGbBrwCPBsWjqpyoqeLXGX/XfM5/Vf/7CAF/pO5ok3JjJ1RizFT2ozDeimqh8lnQiAiLxLPOv9p+CugHwaQ1s1y2QOxhX4se2da/Dp7Nl07d+fKTEVCbIBgKnTRGRv3Jl/0kVHvgFuB56I855+bSorejbDzTXoVGisxUurea5iEnf/exyTpy0oPLnCzAWOUNXEC+CIyERgm8DNjMO938mB21m7TOZ3wPPAeonlUAQmL1jAEf37M27u3NqfXJhJNgAwdZaI7IC7rJ3kVqjjgX8Az6tqbNf+slFZ0bMR0Ac4wGfcoyFJvwAAIABJREFUqmXKv/tN5o4Xv+DL7xKZzrDcDOAAVf08ySREZAJh1/0PA36tqjMCtrFumUx7YCx1YI2/DzMWL+bXAwYwbEbQH9lXNgAwdZKIbIFbdrVVQilMAK4G/qOqsS4EzkZlRc+GuImHXUO1Ua3KK4O/44anxvDVlPmhmqnNt8D+SW4kJCLjcEssQ3gLOE5VE7/kQiZTARyedBrFYkFVFccNGcJbU6aEamK8jcZMnSMiG+HObJPo/BcB1wIdVfWllHb+9XArDoJ1/gBlIvQ4sA3DHz2Cv528E+s3TGRH5TZAHxFJstDRN4HiTsEtfUy+83cuwi1jNVloXL8+/zvwQFo3ahSqiW9sAGDqlKjgymvATgk0/wawo6r+Pc1FaYBHgR5xNbZegzKuzOzIyMeOoOteiUwM7wC8ISJJbSD/XKC4rYHfBIqdu/LyscBDSadRTP733XchJwQ+Z7cATJ0RlfftBRwTc9OTgQtV9X8xt5uzyoqeZ+JWISTm9fencNk/P+KbHyvjbvot3BlzrHMxRKQJrlxz4wDhvwY6pGZiaSazEfAlyc67KQqLli2jw+uv8/WCIBdwFgCb2RUAU5c8TPydfznucn8xdP674mrnJ+qofVsz/NEj+P2hsd+h6QY8EXejqjqfcLvxtQUuCRQ7d+Xls3C3wEwt7vrii1CdP0C5qs63KwCmThCRuM9sFwEXqOpjMbaZt8qKnk2BkcD2Seeysqfemsil//w47qqCF6jqA3E2GFWhHI/biMm3BUA7VQ02mywnmUw93A6bOyedSlpNWbiQdq+9xoKqIFMm5uGOhx/sCoApeSIS95nteGDvYun8I4+Rss4f4LRu2zLw/sPYfssQ/eJa3SkineNsMCpPfFOg8I1xS03Tobx8GW5CoFmLKz/+OFTnD3DT8nLYdgXAlDQRifvM9kXgzKTq9eejsqLn2cA/k85jXeYvrOK8e0fw8oDYVutNBPaIswSziDQEPgO2CxBegX1VdViA2PnJZHpRHDtuxmrYjBns26cPgXrmCcBOqroErCiDKX2PE1/nf42qnlBknf8ewD1J51GbJo3q8/RV+3DdqR3janJbYp4PEH0ph7pfL8B9IiKB4ufjUiDNq2Fip8CFI0aE6vwBLlne+YMNAEwJE5FzgJ4xNLUM+JOq3hxDW95EZX5foohKs15+QgcevKgz9cpi6cd6iMh5cTS0nKr2Bt4JFH5v4MRAsXNXXj4RuDvpNNLk+UmTQlb/eyc6vlawAYApSSKyB/F8uSwEuqvq4zG05dsThC1BG8Sp3bbhhWv3o9F6sRQOuktECt4HIUchC+b8Q0RCLDfM1y24gkV13oKqKq78+ONQ4auoYd6FzQEwJSf6ghtN+M5tFm5r1SGB2/GusqLn+cD9SedRiKFjpnPcde8xe/6S2p9cmK+AXeOsqCci9wPnBwp/s6pek2M+zYHdcDP3q4DZwGeq+knB2WQyJ+O2vS5Kn8yezWdz5jB7yRKqVNl5ww3ZbaONaN6wYU5xrhk9mps/+yxQljygqhes/pc2ADAlR0RuAy4P3MxPwCGqGuw3NpTKip67AMOB3L6hUujzyXPpetkAps8Jfiv5dlW9InQjy0XlqkMVzFmEKw70dS05bIOrCNkDd/ugpvsuXwHPAneoan4l6zIZAd6P2igKC5ct447PP+fZiRP5av6a+1gIsHerVvRo04YebdqwTZMm64z39YIFdHj9dRYtC7LcdQawvarOWiNPGwCYUiIiHXBn/w0CNjMfOFhVRwZsI5jKip4DgQOTzsOXj76cRdfLBjB/YdAy80txVwFi2zkwmsPyYKDw/1HV42poswPQHdfp755DvEnAOar6dl7ZZDJ74wYBaZqkWKO3p07lnOHDmVRDx782u2+0ET222orubdrQodmaO48fN2QI//km1JYQnKuqNa7yyWoAENXI3sR3VnWAAj/mPTL2JJr525qwneJSVf0+YPysiEh/4OCATSzBba36bsA2gqms6Pl73FLFktL/o2l0v2YIS6qC7q00QFUPCdnAyqLS1SEL5hysqgNFZDd+PtPvUGDMx4CLo+qGuclkngVOKrD9YOZXVXHxqFE8NmFCQXE6NGtGj622okebNuy20UYM/PFHDn432NfJp8DuqlrjpYUaBwAi0gw4GegMdMIdFIls1VUCqnD7YI8ERgDP5vXLkSMR6Qochvv57QFsGLpN3D3xkdGjj6r2j6HNFUTkD4QrqQpQDZygqi8FbCOYyoqeGwBf4HbAKzn/HfQtp94yjOqwVzUzqvqvkA2sTEQOBfoGCj8Zt4JlW89xJwKn5Dw3JpNpDYwD1n29PAFDfvqJU95/n4k5nPVnY9smTVimyuRwJX8PU9V+a/vHNQYA0QH3FMntk17qvgZOU9UBIYKLSCtcUZc1Lu8l4GngojiKqUSD1nHAZgGbOU9VQ12SDa6youcNlHgd9kd6T+DiBz8K2cQPQHtVnRuykZWJSDEWzKkG7gT+tvK681plMlfhVgakwpLqav72ySfc+fnnoQeWIbyiqt3X9YQVywBFpGE08/RdrPMPqS3QT0Tuiyp/eSMiR+EqiaWh8wc4FRgTDSpD+zthO//bi7zz35rwEyMT9+djtuMvPduHbGIz3LEWp0sovoI5ZbjjbXh0iyFbd+PmEyTu41mz2PPtt7l97Nhi7PwXk0VRqZXrANyIW3aS+kkYJUCAC4DrvQUU2Rn4L+mbq7El0FtEfF9mXCGq9X9uqPjAe8DVAePH4S5g/aSTiMMNp+3M/h1bhWzi3OiYi4WqTqJ4C+bsAowSkf9mVU+hvDyrjiukkTNn0mPwYPZ46y0+mT07yVQKcXd03KyTqCoish8wGCsMFLdlwH6q+mEhQUSkPjAMd68/rQbhJh15H0qLyBvAkb7jRmYAu6nqd4HiB1dZ0fMQYK33AUvRlOkL2eecd5gRbnngm6r661DBVyciTXC3uFrH1WYgfYBbVHXQOp+VyfQF4rhyuMKgH3/kls8+o8/UqXE2G8IU3G2qWicslEUz/J/BOv8k1AOeFpFCz8yuJt2dP7hlZ2sUoihUVPEvVOcPcGqRd/71KPKCP/lo3aoRT1y+FwEr3x8ZHXuxiL7Mr4qrvYCOAAaKyGAR6baO512EO0EK7q0pUzjgnXc46N13S6HzB7gq24nmZUA3wuw+ZbLTATdbvxAhL3/7FKKyWU4VzXJ0t6q+HjB+HM4GYttBJ00O77wZF/fcIWQTIY+9mjyHu9JXCroAb4rIByKy5vdfefmnwCOe25yDWyU0AaDvDz+wT58+HDlgAEN++slzU4kZhjtOslKGWyZmkpX3z0BEtgI29phLSL8QkRa+golIR+C3vuKtZjhwZaDYsais6NkSN7enzrr2lI7su1Ow+QC/jY7BWES3zy6EkJvFxW5v4F0ReSKqe7Cya3FLiwsxA3gS+DWwCeXlJ46cObNz1/79v/xlv34hN95JggIX5nKbtT42AEiDQn4Gxfbz6wxUeIp1NWEmrS7f3W9pgNhxugLYKOkkklS/nvDgRZ3Y++x3WOq/SJDgjsETfAdeG1UdJiLP4eq0lJLTgVYi8rsVv3fl5TPIZK4j91tYPwCv4CZFD6C8fMWtBBFpgCtdHNcW4XF6TlVzukJkVwDSoZB7icX289vTRxARaUe4rX7/T1VHB4odi8qKnk2APyWdRxq036oZ53dvFyp8z+hYjNNVuHLUpeYY1rzq9hCukFptvgHuBQ4AtqC8/BzKy/uu3PlHrozaKTV5zREpA+b5z8XkqJAyUMX28/OV718JM3F1KqVRLOc0oHnSSaTFlZkOtNlkgxChy3DHYmxUdQopKpbj2TXRfgROeXmN29hGvgRuA/aivHxrysv/Qnn5EMrLa7zUE8WNe95GXG6JjouclOHKtppkjSjgtcX28xteaAARaQtkCs6kZpfEWeUthMqKnmW4e8Um0nj9+tx+Vi71aHKSiY7JOKWmYI5nDYHzVvmb8vJ3gN7R/40BbgB2pby8HeXlV1Jenu13ynmUwA6YNci7ToQNANKhkJ/BKG9ZhFeF29ykUKfh5q/41k9VXwgQN25HA79IOom0OWb/LfjVnkGKRdbHHZOxUdXEC+YE9LsaJgSeDbSnvHxnysuvp7z8k1wCRvF+5y3DdLkkOh5yJrglaEW5s1kJ6aKq7+X7YhH5kuJYyjlSVTsXGkREvsL/BibVwM6qms39xlSrrOg5ADgo6TzS6Ksp89njjLepWuZ9Iv1EVY190CUisRfMicn+qjrUV7Co2F3e37Ep1k9V815GXqaqffE3K9vk7vVCOv9IsRQIKThPEdkf/50/wEsl0vnvjnX+a/WL1k34/aFbhwi9bXRsxi22gjkx2yfl8dJgGWufH5GV5ZOoTgeKtuhxEZsFnFloEFX9D+nf4/1hVX3HQ5wQy58UuDlA3CT8JekE0u6y43egLEyJwNiX5qlqiII5abB3yuOlwSPRzz9vK7YDFpETyaGCkPHiRFX1sn+9iLTETZAJuSNeviYBu2RbnnJtRGQ93Bpf37Pba902sxhUVvTcHLfddClOdPLqpJvfp9cg7xWeZwOb5Xs/Nl/R7/6XlFbNh8mq2tZXMBH5Gghy6Schs4DtVbWgSkYrllGp6vNAD6BkaiKm2I9Ad1+dP0B0IOwN9PUV05PXcBse+Vi3fDRhlrbdFCBmEs7FOv+sXH5Ch9qflLvmuGM0VtHv/sWBm/kJGBC4jZVtLSJeTmaiOHF2/gMI349eXGjnD6uto1bVXri64a8WGtis1X+AnVT1Fd+BVfUb4HBcR1BIbQEf5uA20jlGVX/wFPMkT3FW9oaqFtNKihpVVvRsBJyVdB7FYudtm9Nt781DhA5xjNZKVZ/GFcLx6TtcFb6Dgc1V9RDcpl5x/b74umwf1+X/UcCB0ee0Oe5zux/3Ofp0X/TzLtiKWwBr/IOrcd0JV7q1E8W/DWUSFPget8xvJDAirolmItIKd+B3ih47Ag0CNrkUdwtiJK6uwTBVLbSO9wrR+5mC//dQ0AqMtKis6HkG8FjSeRST9z+bzi8v7u877FKgtapO9x24NtFSt9eBrgWE+RLoFT2G11RXXkTKcMsebwY2LaCt2tyqqgUXWRKRWwg7UXoariT0U6q6RhEiERFcBdTu0aOQMsRvA0epqpeJn2sdABiTJoHmqIxX1faeYyaisqJnH+BXIWIvXLyMsZPnsHhJNWVlwo5bN6NZ45Bjyfjs9se3+fI778U0T4puqcYumidzCa46YeMsX/YJUaefy6QyEWmGq6x3IWFuPRW0xG25gEsllwD3ATflUjxMRHbm58HALlm+bAGu+uNdPueY2ADAFAUReRL/xVauUdWin/1fWdGzGe6eo7cv4aplyot9J/PkmxMZ9eWsVTbSEYH2bZpxStdtOP3IbWnSKERNpnjc/sLn3PD0GN9hn1LV030HzYWIbIHbCfJwoM1q/7wYV5DrFVynP6HAtrYD7gR+U0icGswDmtd0Vp2t6GrFbKCpt6yc/wGXevrsugPHArsD6632lG+Bd4BrVfX7QtqqsX0bAJhiEGAWrwLbqOpkjzETUVnR8zjgJV/xRo2fxam3fsBXU2qft9m8SUMevqQzR++3ha/mY/XNj5XsePIbeP4a9DqDvVDRJLjOuNsT43H5+d8aUSTEbaidVTXvEVp0K7ugpXI1+JOqPu455vLBytZAO9ytzhEe50/V3KYNAEzaicg2wETPYQdEk3WKXmVFz+fxtDdC7/e+5/TbhrFwcW63GC87oQPXn9rRRwqx63rZAAZ/4n3S9raqWoq1+tcqWo7oe+7DpbhtffPVA3d1wqdWPmbgp0HxXrszdUmI+3fPBogZu8qKnvWBI33EGj1hNqfe+gGLl+Z+cnjHC58zb8FS7jp3dx+pxCpzeNsQA4BDgSd8B00zVZ0hIhPwW5b8Tvx34IWYUCqdP4TZTtUY33wPABbilmOWgi54KAAzf2EVJ970fl6d/3IP957AhfeP8n05PbhjD9iSRuutvvdMwUqxPn82hiWdQGAl9f5sAGCKge9L9QNV1fvU74Qc4yPIpf/8iIlTC6/V9PgbX3HefSOKahDQpFF9uuy8se+wJXF7KQ8fJp1AYCX1/mwAYFJNRHbAFdXwyfvi7wQVPAB4bej3PFfxtYdUnKffmsRZdw+nuohGAQftuonvkJtHx25dU1JnyDUoqfdnAwCTdgcGiNkvQMzYVVb03BEoaAvaH2ct4tx7R3rK6GfPV3zNn+4YzrLq4hgEHLSb9wEAhDl20+5j3Pr4UrQE9/5Khg0ATNrt5DneHNwa6FJQ8Nn/OfeMYMacMHvXvNh3Mmfc/mFRDAJ23a55iOJGvo/d1IuK1IxOOo9ARse90VNoNgAwaee7Ut8gX2U0U6CgAcCTb07krWFTfeVSo5f6f8Opt35A1bJ0DwLqlUmIeQAlUWUyDyV1mXwlJfe+bABg0s73fdSSuP9fWdFzYwrY5GTi1Plc+Ug8J2q9Bn3HSTe/v0o1wTQ6cFfvA4C6OAcASrCjjJTc+7IBgEktEdkA2Mpz2EGe4yVlL/L8/Z2/sIqTbvqABYuqPKe0dr3f+57MTe+zJMWDgABXALaKjuG6puQ6ykjJvS8bAJg0aweIx3gKfO4xXpKy3URkFUuqqjn+hqF8PMHbRo1Ze+P9KRx/w9CCag2E1H6rZojPo80du+28RiwOE4D4D7CwZuHeV0mxAYBJM9+XUL9R1UrPMZOya64vUIUz7/iQ/h9NC5FPVvp8OJWe17/HoiXpm4axwXr1aLOx9xP2OncbINpCuKTWywMf1rQ1crGzAYBJM9+TqMZ5jpeknAcAVzzyMS8P+DZELjl5d8QP9Lh2CJU57jcQh+3b+N40ziYClohSez+ADQBMuvk+e/rCc7xEVFb0bARsn8tr7vr3Fzz4ypeBMsrdgI9+pPs1g2Odh5CN9m2a+Q5Z564ARF5NOgHPSu39ADYAMOm2jed4pXIFYCcg6+L1z1V8zbVP+t4RtXCDP/mJY68ezLzKpUmnssL2W3q/AuD7GC4KqvoRMDzpPDwZHr2fkmMDAJNmvk/HSuIKADlc/n/m7Umcd++IkLkU5L0x0znown5e9iHwob3/WwDeLykUkUeSTsCTUnkfa7ABgEmzJp7jTfQcLym1DgBU4ZonPuGce0akvgjPuG/mctAFfUNsyZuztps39h3S9zFcTMqBD5JOokAf4N5HSbIBgEkz36djczzHS8o6BwCVi5eR+ftQ7nmpeO54zJy7hKOvGsTTb01KNI8N/ZcD9n5JoVio6iLgaCA9k09y8yVwdPQ+SpINAEya+T57Ssd15sKttQbAtFmLOOLS/vzvve/jzMeLpVXVnHvvCK58ZHRiOwk2Xr++75B1+QoAqjod6ErxraGfAHSN8i9ZNgAwqSQi6wE+v42XqGp6ZpvlqbKi51ZA85r+bcykORx4fl9GjS/uGiwP9BrP7659L5HJgQ3ql9GwvtevxfrRsVxnqepE3MTVi0l/gaBZuDx3ivIuad6Hu8Z44vvMaZ7neEmp8fL/i30nc+EDo5i/MF3L6vLV58OpHHJRP/5zYxfabub9vvw6NdmgPjPnet3RtglQUrvI5UpVlwD3iMgzwFHAztFjO5Lth6pwZ/ufRo/XVXVmgvnEygYAJq183zstlcv/HVb+n++nL+SC+0by9odhd/VLwueT53LgBX258+zd6HmI7y0h1q7J+t4HAE2BGT4DFquoc3026TyMY7cATFrZFYCatQA3y//JNyfS6U99SrLzX27GnMWc9o9h/OqS/oyZFM8cziYbeJ8IWKfnAZj0sgGASSvfRdlLZQ+ADSdOnc+RVwzk/PtGxn6f/NqLT+Xc07rH2ia4egH7nfMOlzz4EbPnez07X8MG62VdYynrkL4DGuNDVrcAoi0tN8kxtgLTkl5CkWfuZk3VwBRVjesms+/BaboXw2dBRBqe373dPk+88VUidfTPP70HN1z6RwAa1K/PvY+9FGv7y6qVh3tP4OWB33LjaTtzcte2lHnevg/wvSMg2ImWSakaBwAi0gw4GegMdMLdd8xnWFwlIp8BI3FlIZ8NvRubx9zNmhaKyGhgBPAe8JKqpnNv1xIiIo2AM4DLH+g1fsskcjixx6+47+8Xrvj/e244nwYN6nHHP1+IPZcZcxZz7r0jeOLNr7j73D3Yc4cWsedgTCmQ1Xc4FJFDgaeAELNuJgCnqup7AWKHzt2saQju5/mV78Aisg/wvseQw1R1H4/xghORxsDZwKXApknlcfTh+9PriZupX3/NcfTV/3iUW+5/LoGsHBHIHN6WC7q3Y6dtNvQS8+AL+zL8C68TwfdV1WKviGdK0IpLUyLSUETuB94lXAe6HTBIRO4UEW8rEGLK3aypCzBaRM5OOpFSIiLNRORqYDJwBwl2/gftuxsvPXpjjZ0/wM1Xnsn1l5wec1Y/U4XnK75mr7MqOOiCvjz11sSSWQppTGgrd8I3AufH0GYZcAluWdb1nmLGlbtZU2PgnyIyVVVLcsvMOIhIPeAg4DjgeNZS7CdOnXZpT++n/8H66zVc5/Ouu+Q0GjSoz9X/eDSmzGo2YtxMRoybyRUPj6b7gVtyardt2WfHlonmZEyaiaoiIvsBg4l3skoVsI+qjiwkSEK5mzX9CHRUVS87utSFWwAiUsbPnX4PUjRZdaf229D/P/ezccvsxyEPPtWLC/52H9XV6ZkW0n6rZpzadRv+8MutabVhdgX57BaAqSsEt0RlNO7yfNzGAp3yXSkQzfBPKnezpl6q2sNHoFIdAESTVPcCjsV1+old3l+bQ7vswX8fv5nmzXJfvv6f1wdw4nk3snhJuqouN6hfxgG7bMyeO7Sgc/sWdGrfgk03Wr/G59oAwNQV9YFuJNeB7ggcBryR5+uTzN2sqbuIbKGqxbcTTQAi0gTYHbciZfmqlHa4gXcqnfr7bjx6++U0aJDfFJ3fHXUwG7dszm9Ou5I5cxd4zi5/S6uq6TdqGv1GTVvxd1tuvEE0GNiIzu1bsPv2G9HUfxEgY1KrPu5LKUmdyH8AkHTuZk2dgDQOANYTkbaeYpUBzYCNVns0j/7bClfnvD1FdGvq75efwTUXnVJwnIP23Y1BrzxItz9cypRp6d1M7bufKvnup0peHfIdAGUibN+mKT/MXJhwZsbEIy0DgCRea8LoBPROOoka7AYku9l8Sq3XsAFP3nMVfzj2cG8xd+nwC4a+9hDdMpfy+ZeTvcUNqVqVcd/MTToNY2JTBuyRcA6FtJ907mZN9jMpIi2aN+Odf9/jtfNfbustN+PDNx/j+N8c5j22MaZwZSS/S1oh7Sedu1mT/UyKxE7tt+H91x/mgL1r3GHYiyaNG/HCQ9fz4C0X07CB3V83Jk3KcGV6k1RI+0nnbtZkP5OUKysr4+I//56RfZ6g3bZtYmnznFOP5b3e/6Rtm81iac8YU7syXF33JBXSftK5mzXZzyTF2rbZjH4v38dd153Heg3jPSPvvOsOjKp4kqMO3y/Wdo0xNSsDhiWcQyHtJ527WdVSYFTSSZianX78r/mk7zMctO9uieWw0YZN6f30P3jk9svyqjNgjPGnTFX7A28m1P4rqpp3sZeEczdruklVbRp1ymy6cQt6P/MPnrj7Spo2SX5rehHhzBOP4fNB5Rx39CFJp2NMnbW8FHBrYAxuDXNcfsKVjv2xkCAJ5W7WNBJX2tnLTiwBKgHWSb8/5jD+75a/0KqFn53yQnj9naGcc9VdfDuloK+CNLNKgCaVygBUdQrxb6ZzdqGdPySWu1nVYuAUX52/KdyB++zKB68/wosPX5/qzh/gqMP3Y+zA57nwjOOoV69o6iYZU/RW/LapajmuNrmXzVzWYSpwtKr+11fAGHM3a/oUd+b/WdKJGOi4w7a89sxtDOz1f+y9x45Jp5O1Jo0bce+NFzB24PMc/5vDEElttWRjSoao6qp/IbIJ8Ajw2wDtvQCcp6ped9pYLnDuZlXLgNuAG1R1ie/gdgsgN1tuvjE3Xn4GpxzXlbKy4j+L/vTzifzt9sf4X58hSafig90CMKm0xgBgxT+IdMSVdV2+iUnrHGMrrib8CNz94eGq+kX+qWbPQ+5mTdXABNzPcgRud73vQjVmA4DsNG/WhKsuOIkL/vg71l+vYdLpeDf848+55rbHqRj4YdKpFMIGACaV1joAMCZJNgCo1UfnnnrspNuuOad74w1q3ta2lIwY/QX/91Qv/v2/vixa7P2CU2g2ADCpZAMAk0o2AKjRQuDfwEOq+iFTh1wJ3JpwTrGaPnMOT7zwOg898yqTv/sh6XSyZQMAk0rFf7PQmNL3BfAXYAtVPU1Vi/p6eCFatdiQK87NMPGDf/O/p2/liIP3on79ekmnZUxRqp90AsaYGk3AFbnqpaoDk04mbcrKyjjmV1045lddmDl7Lq9VvMcrbw2iYuBwFi5anHR6xhQFGwAYkw6LgIG4Tv9NVZ2QcD5Fo0XzZpzSsxun9OzGgspF9BkwjFfeGsQb777PrDnzkk7PmNSyAYAxyVi+quJdXKffX1Urk02p+DXeYH26H3kQ3Y88CFVl7PiveW/4pwwdMYahwz/ly0nBFq4YU3RsAGBMWApMAj5b7fGFqi5MMrFSJyLs1H4bdmq/DWeeeAwAP82YzdARYxj5yTi+nPgtX076jglff8ecuQsSztaY+NkAwNQVS3BVKH2oBuYBc2p4zI3+Owv4EvjczuzTY+OWzfnNEV34zRFdVvn7n2bMZsLX3zFh0vdcc9tjfPP9tIQyNCY+NgAwdcVHqrpP0kmYdNq4ZXM2btmcfTt15MGne9kAwNQJtgzQGGOMqYNsAGCMMcbUQTYAMMYYY+ogGwAYY4wxdZANAIwxxpg6yAYAxhhjTB1kAwBjjDGmDrIBgDHGGFMH2QDAGGOMqYNsAGCMMcbUQTYAMMYYY+ogGwAYY4wxdZANAIwxxpg2lwulAAAgAElEQVQ6yAYAxhhjTB1kAwBjjDGmDrIBgDHGGFMH2QDAGGOMqYNsAGCMMcbUQfWzeZKIbABsEjiXuPyoqpVJJyEiTYGWSeeRg2pgiqpWJZ1IKROR5sA8VV2WdC4+LVtWzbwFlTRv1iTpVIwxkRoHACLSDDgZ6Ax0AjoA9WLMK6RlIvI5MBIYATyrqnNDNyoimwAZ3GfaGdgekNDterZQREbjPrf3gJdUtTrhnIqaiLQFTgT2wP2ubcXPn/MoYBDuc9akcsyHqvLSa/0Y9MFoRn06ntGfTWDhosVstcWmdNqlPXvs3I4TexxB2zabJZ2qMXWWrP69IiKHAk/hvojqgm+A01S1X6gGROR3wENAq1BtJGQIcKqqfuU7sIjsA7zvMeQwVd3HY7yCichZwB1AbafF/YDTVXXyKn87dciVwK1hssvf5O9+4PSLb6XfkFHrfF6Txo2442/ncNbJv40ps+zsc9SfGTZqrM+Q+6rqBz4DGuPDijkAItJQRO4H3qXudP7g3uu7InK/iDT0GVhENhSRF4CXKb3OH6ALMFpEzk46kWIiIq1F5B3coDCba+KHAp+KyOlhMyvcky++wc6HnlJr5w8wf8FCzr7yLg7//V+YMm16DNkZY1a28iTAG4HzKb7L0j4I7r3f6DnuQ8DxnmOmTWPgnyKSrtO4lBIRAV4EfpnjS5sCT4jI4f6z8uOdQcP548X/YN783KbYvDt4BMefdT1FdpfDmKJXBiAi+wGXJZxLGlwWfRYFE5HuwAk+YhWJR0RkY4/xlniMBdDAc7x8nQ8cUMDrH48mkAIs8pCPF/PmV3LGJbfl/frBw0bzwJP/9ZhR/pYu9T7P1fexbIwXZdEM/2ewJYHgPoNnos8kb1FH+LCflIrGJvh9z/M9xoLsLrUHJSK/oPB79lvh5g0ApOa6+WV//yfffD+toBhX3fIIX339vaeM8jd/wULvIX0HNMaHMqAbsF3SiaTIdrjPpBC/B3yeDReL7iKyhadYJTcAAM4FChpcRs6MlgvO8BCrYLPnzufR53sXHKdy4SIefLqXh4wKYwMAU1eU4ZYemVUV+pns6SWL4uTrePL9pdm09qcE5+u4ENznnIoBwMhPxnm7fz/84y+8xCnEvAXey4TYAMCkkg0AamYDgPyldQDQ2HO8nIhIPWB3jyE7k5JbACNG++u0PxoznmXLki0tsaDS+9QKGwCYVCrDFSAxq8r7M4kmaO3gMZdi4+V4igoM+TwVKxORJAcBO+B3ENKZlFwB8DkAWFC5iC8mTK79iYEsqFxEdbXXAUilFcsyaVWGjU5rUshnsoi6PevX5/FUSvMAfL+X+WzeZQ6QeGnmJo0bpTpeLubb5X9Th5ThSuKaVeX9majqUuBjj7kUG5/Hk+8vz8QmZkZV/H7yGHJ49N/ErwLsuWsHb7E2btmcrbdMrjzwTzNm+w5pAwCTWmW4uu5mVYV+JsNrf0rJ8nk8zfMYC5K/NePzs1keK/EBQOdd/X2sPmPl44sJ3/gO6fsYNsabMmBY0kmkUKGfyVAvWRSfpbgNbHzxPcmtved4ufJ1XCwARkd/TnwAsOtO29F4g/W9xNqvc0cvcfI17ivvA4BUTNQ0piZlqtofeDPpRFLkzegzKcTL1M0rKzd53llxnMdYkPwVgPsAHzPc/qqqi6M/J97BrNewAbf+9ayC42y95WZceMZxHjLKX4AJiL6PYWO8WV7970/ArCQTSYlZuM+iIKpaBZxG3ZoMOBK4xXNM34vCEx0AqOo84IwCwwwGHljp/xO/AgBw3mndOWDvXQuK8fhdV9C0iY86SfkLcAsg+cIGxqxFGYCqTsHVKK/rzo8+i4Kp6hjgBh+xisBi4JRo4OOT7y/PpG8BoKrvAo/m+fJK3LbAK1fd8b4Vcz5EhCfvuZINGuV3K+DME4/hlwd09pxV7gLcArABgEmtFfX/VbUc6IHfmcrF4iegR/QZeKOqtwBnUdozgT8F9lHVzwLE9v3l2VREWnuOmY9zgb/iBk7ZGgHspaoTVvv71Mw32a7tlnz45qM5TeRbr2EDbr7yTB685eKAmWVnyrTpOe9kmAUbAJjUWmUDIFXtBXQEXk0mnUS8CnSM3rt3qvoIsDMwIET8BC3DXfLvrKqhlj1+h5vw5lPip5mqWqWqt+KKJtW2YmQxcBVrH2QNx02+TIWd2m/DB68/wq1//TPrNVz3Box77taBURVP8tcLTqJ+/XoxZbh2PgsaRRbgjmFjUknWVsNbRDriyrp2jv6bhjMnH6bg7lePBEZEl+qDi/aB3w33eS7/TFvF0bYn1cAEos8NGKaqwb/cRGQkfqtV3quqf/EYryBRieA9cMfEnrhywdNwn/Fw4ANVXfc2e1OHfEgKy09P+2kmH4way/CPP2fE6C+Y9tMsdu+4PXvu1oHOu7Znj53bU69eejYh/ct1D3DvYy/5DDlKVa3UukmttQ4AjEkDEfkXcILHkKNVdTeP8ZI3dci9wIVJp1HsdvvlaYweu/odloK8oKp/8BnQGJ/SM/w2pma+r8vuIiItPcdMWmrmARSrGbPm8Mnn3udT2v1/k2o2ADBp57tUtQAHe46ZNBsAFGjA0I+9bWm8EiuzblLNBgAm7QbhJhz6dIjneMnavMt3wLdJp1HM+g/1WcAScMfsIN9BjfHJBgAm1aLiOb6rKh7mOV4avJd0AsWs72DvJ+sjomPXmNSyAYApBoWWZl7dDiJSWNm69LHbAHkaPXZCiBLAvo9ZY7yzAYApBv0CxDw5QMwk2QAgT8++/HaIsCGOWWO8smWAJvVEZAPcPg0NPYb9AdhSVX3PL0jG1CH1cRsDbZh0KsVk2bJqtux0LD/8ONNn2CXARqrqvaygMT7ZFQCTetEXqe9tqzcDfuU5ZnI271IF/CvpNIpNxcAPfXf+4IpkWedvUs8GAKZYhLinWmq3AR5LOoFiE+jyv93/N0XBBgCmWPQNEPO3ItIsQNxkbN7lI2ztedbmzlvAq28PDhE6xLFqjHc2ADDFYgj+N1ZZH/ij55hJezzpBIrFEy+8waLFS3yH/Q53rBqTejYAMEVBVasBr9s1Ry4VkfUCxE3KvwC7/1yLxUuWcudDL4QIXR4dq8akng0ATDF5NkDM1sBpAeImY/Muc4F/J51G2j314htMmTY9ROgQx6gxQdgAwBQNVR1LmHvcV4hI/QBxk2KTAdehqmoZtz0Y4mISI6Nj1JiiYAMAU2xCnGG1BTIB4iZj8y7vA58lnUZalfeq4OtvfwgR2s7+TVGxAYApNi8AVQHiXiUipfT7YJMBa1BdXc2tDzwfInQV7tg0pmiU0heeqQNU9ScgxOLt9sDpAeIm5TlgcdJJpM2TL77JuK++CRH67ejYNKZo2ADAFKNnAsW9TURaBYodr827zMAuSa9i+sw5XHHTQ6HChzomjQnGBgCmGL0KTAoQtwVwW4C4SfkbYFvSRq646SFmzp4bIvQk/r+9+w6zqjr7Pv69Z4Y6MBTpPKIRJZKHoFKM6IgFlGbBEoxRYwnYEooBxWAUjcFIjBFRExONKESMGgEREVDUB1BGigVRFIUYDL2XgRmmrPePffBFHGDKLuec/ftc17kYceZeN2dm9rr32qt4P5MiKUUFgKQc51wxcH9A4a81s9MCih2u5rnrgVFRp5EM3ln4MeOenx5U+PsTP5MiKUWnAUpKMrPqwArgfwII/zHQIS0u6mvn1QA+BY6JOpWoFBeX0KHHdXy8bGUQ4f8LtHbO+b6loEjQNAIgKSlxwf1DQOF/CAwJKHa4mucWArdGnUaUxjzxQlCdP8Af1PlLqtIIgKQsM6uJ9/y1WQDhC4FTnHMfBhA7fGvnvQ2cEXUaYfvwky84pc8NFO4tCiL8OuB7zrmCIIKLBE0jAJKyEhfeBwMKXwN43szqBBQ/bEOAWO1Rvyt/D5fdMDKozh/gQXX+kspUAEiq+wuwOaDYbYDHA4odrua5HwLjok4jTDcO/yPLV34dVPjNeD97IikrnfY/lxhyzuWb2YPAfQE1cYWZveWc+3tA8cN0B9APqBt1IkH7+3PTeHbSrCCbeNA5lx9kA5VlZk2AHkBHoBNwIpAdQtM7gQ+ARYnXTOfclhDa/Y7Efh498P79HYGTgHQZzSuPtXjnpizG+17MKGtSs+YASMpLHOe7FDg2oCZ2Ayc751J/f/2184YT3BLKpPDJ5//m5N7Xs3tPYKPzXwLtnHNJt9Oimf0UeARvT4uorQducM69HGajZnYp3uhMemzq5Y9FwM+cc8v2/0s9ApCUl7gQDwywidrAZDNrHGAbYXkI72KQljZu3sZF140IsvMHGJhsnb+ZNTazfwHPkhydP0BTYIqZjTez+kE3ZmYNzew54EXU+R+oE/C+mf3KzGzfX2oEQNKGmb0EXBxgE4uAs5xzuwJsI3hr5x2FNzR4RNSp+GlX/h7OunQQiz76LMhmJjnnLgmygYpKHGI1D+gSdS6HMNM51zOo4IlO7S1iuNKlEoY65/4EGgGQ9DIECPK5bCe8kYDqAbYRvOa5/wF+ShqtCthbVMRF140IuvPPJzn3hxhKcnf+AD3MbECA8Yegzr+8RplZW1ABIGnEOfc18NuAm+kOjE/5o4Ob584CRkadhh9KS0v52cBRvDE38Ccbv038jCWNxIX83qjzKKcHzewov4Oa2fEENwk4HdXEu4ZlpfZFTOS7HgKWHfazquYy4OGA2wjDKGBa1ElU1eA7x/L81NlBN7MM72cr2QzD27MiFdQFBgUQdxhepybl1wnoqQJA0opzrgj4RQhN/dLMxqb0SEDzXAdchXemQsopLS1l0G/G8Oi4l8Jo7heJn61k0znqBCooiHw7BRAzDjpqEqCkJTMbS7ArA/Z5Hm95TeruB7923gnAfKBW1KmU196iIn42cFQYd/4AjzjngrhzrRIzywa2A5lR51IB+UA951yJH8ES24HvRHvaVMa01L17ETm0YYSz3O0yYLqZpe7mOs1zPwJujDqN8tq5aze9r7g1rM5/Md7PUjLqQGp1/uBtSPQDH+O1R51/ZXVUASBpKXFH3g/vDilo3YC3zaxpCG0Fo3nueFJga9v1G7dw5iUDmT1vcRjN7QAuS+nRHZFDUAEgacs592/gupCa6wC8Y2Z+3t2EbTAwOeokDubT5V9x2oU38/7Hy8NqcoBzLpnnRywGfBlKD1E+8KmP8T4CknFuRipYpAJA0ppzbhLe1qhhaA0sNLOfhdSev5rnFuGNmjwXdSoHGv/iDDr3GsCKr1aH1eTjzrkXwmqsMpxzu4FU2556sV/P/+GbXUCX+hUvZlQASCyENR8AvG2DnzGzp8wsZSbVfaN5bjFwJfB0xJkAsKegkOtu+T1XDx4V9Pa++/sIuCWsxqpoQdQJVFAQ+abt1tYBW6RVABILZvY94H0g8D3J97MU+LFzLtDt6QKxdp4BfybCyYGfffkffnz9XSz9bGWYze4EOjnnQnvOUBVm1gb4kNRYwbEd7xCl//oZ1MyOwyvaUuE9SBbvAadpBEBiITEfoC8Q2m0k0A5YZGb99z+AIyU0z3U0z72JCDa/cc7x5MRpdOrZP+zOfy9wcap0/gCJXH8TdR7l9Cu/O38A59wXwO1+x01je4CrnXMlGgGQWDGzi/BOCwt7+dR84Cbn3Echt1t1a+fdB/w6jKY++vRLbhr+IPMXh/5YtxS4PNmf+5clsRnVXODUqHM5hBnOuV5BBU8U2G8CZwbVRhr5lXPuIdAqAIkZ59xk4KYImu4CLDazh80sJ4L2K6957gjgriCb2LEzn8F3PkzHHj+PovMH+GUqdv4AzrlSvNGtULZErIQJwOVBNuC8O9lLgH8G2U6KK8A7OGrMvr/QCIDEkpndAfwuoubX4R3JOTGi9itn7bxhwAN+h504+XWG3vMo6zZs8Tt0eY10zgV9iFQozOyneKteGkadC7AeuME593KYjZrZpXh7WjQKs90ktwhvx9JvnZOiAkBiK8Ttgg/mfbxTzCYn7uKS39p5FwBPAUdUJUxpaSmTX5vLfWPHh7muvyyPOed+GWUCfjOzJkAPoCPePvkn4u3AF7SdwAd4nc0iYKZzLpKqzswa4b0HnfDeh5OAOlHkEpG1ePtELMb7XsxwzhUf+EkqACS2Es8NJwI/iTiVZcD9wMSyfkmTztp5LYDxeDsgVkhxcQkTJ7/O/Y/+g2Vf/Mf/3Crmn8AVKVN8ifhMBYDEmplVA/6BtwFO1L4CRgNPO+fCXK1Qcd4ywVvxHqNUO9ynFxTu5ennpzP6sWf56ut1gadXDi8AVybpCX8ioVABILGXmEU9lnCOES6P7Xgd1Hjn3LyokzmktfM64u0ceFxZ/3vegiWMf3EGL7zyJtt35Ieb28E9BgzSnb/EnQoAkQQzuxNItslgK/BmUY9P7GWQfNbOy8abeHYtwL9XrWX8izOY8NLMMLfuLa+7nHP3Rp2ESDJQASCyHzO7AW8HvGRbIuuAPOB1vPXO85PllDozqw50OaPLib/cU1DYd+GHn2Ul4XWlFLjZOffXqBMRSRYqAEQOYGaXAM8CNaLO5RB2A+8As/EKgg/CmkBoZll4s6rPxpsIeBreGQjJqhBvsl+yrpMXiYQKAJEymNlZwBQgVTbtKQJWAssTr8/3+3O9q+AvemKFRFPg+0CbxGvfx8dQjol/SWIH0Nc591bUiYgkGxUAIgeROGjlBeCEqHOpIgfswlunvSPx2vcxeEVO3cSf+z6uA6TW+QXf9RHQL5X29hcJkwoAkUMws5p4B+JEdiqeVMrjwC1Jv5xSJEIqAETKwcz6AU+QOo8E4moHMCBV9/UXCZMKAJFyMrPWeI8EOkSdi5Tpfbwh/xVRJyKSCpJtqZNI0kp0LF3w1rxLcnkE6KLOX6T8NAIgUglmdi7ejnLHRp1LzH0J/MI5NyvqRERSjUYARCoh0eG0A+7GW2cu4SrEe+/bqfMXqRyNAIhUkZkdizcacG7UucTELLy7/i+jTkQklWkEQKSKnHNfOud6AJcBa6LOJ42tAS5zzvVQ5y9SdSoARHySWHp2PPBHvK16xR+78d7T47W8T8Q/egQgEgAzawwMwTtiuF7E6aSq7XiPVsY45zZGnYxIulEBIBIgM6sH/BKvGGgUcTqpYhMwBnjUObc96mRE0pUKAJEQmFlt4AZgGNAi4nSS1Rq8of6/Ouf0CEUkYCoAREJkZjWAy4GrgTNI/QN3qsoB/wc8AzznnNOSSpGQqAAQiYiZtQKuBH6Gd9RunHwOjAf+4ZxbFXUyInGkAkAkCZjZyXiFwE+AIyJOJyibgX8C451zC6JORiTuVACIJBEzqwb0wNtUqBvwg2gzqrJPgdl4m/fMdM4VRZyPiCSoABBJYmbWDDg78eoGHB1pQof3FV6H/ybwpnNuXbTpiMjBqAAQSSFmdgxeMXAy0AZv7kCziNJZj/cs/3NgAV6HvzKiXESkglQAiKQ4M8vBKwT2FQT7Xk2BHKB2JUPvBnby7Y5+32u51uiLpDYVACJpzswygLr7vXL2+xi8Tn4nsGO/j3c550rCz1ZEwqICQEKR2Br3ZOB/8Ga5H+zVAJ1RIempFNiKtxriYK//AgvSdetjMzOgO961oGPi1SrSpPyRD3wILAIW40143RBGw2aWCfQGOgMdEi+A9xOvhcD0sgp6FQDiu8RM9hOBU/Z7HRNpUiKpZSWQt9/rw1RfQWFmRwHjgLOiziUEW4CBzrmJQTZiZm3x3tMfHeZT3wOudc4t+9bXqwAQP5jZj4AfA13wKtCa0WYkklYK8O7m5gMvOufeizifCjGza/HOd8iJOpeQvQTc5PeITuKx3q3APUCNcn5ZITASeMA5VwoqAKQKEkvUrgKuBdpGnI5InCzDu/ObkOxLLc3sp8CzUecRoTwg1885NWY2DHigkl9+q3Puj6ACQCrIzKoD5+N1+j2BzGgzEom1EmAGXjHwinNub8T5fIuZtQCW4s3tibMRzrnf+xHIzL6PN9+gsqOsBcCJzrnPVQBIuZhZc2A43t716bpVrUgq2wz8AxjtnFsbdTIAZvYa3o1C3O0FOjvnllQlSGLofy5wahXzeRc4XQWAHJKZ1cV71vQrIDvidETk8PKBP+E9690ZVRJm1glvBrp4nnXOXVmVAGbWE3jNp3x6abmVlMnMsszsZuBL4E7U+Yukimy839kvzexmM8uKKI9OEbWbrDr6EKOzDzG+iaUCQL7DzC4GPgEeA5pEnI6IVE4TvN/hTxK/02Hzo8NLJ20SI6pV4WdR1UkFgHzDzH5oZu/iLV1pE3U+IuKLNsBLZvaumf0wxHZVAHxbBnBSFWOoABD/mdn1eJtFdIk6FxEJRBfgvcTvuoi2XI07M6trZs8BfwVqRZ2PiASqFvBXM3vOh+How1kccPxUUwp8UMUYi/xIZF8sFQAxZmYn4e0u9pOocxGRUP0EeD9xDQiKCoBvW+7Dqgw/V1UsVAEQU2b2S7xtRY+NOhcRicSxwPzEtSAIft6tpgM/CqIFPsT4Jpb2AYgZM6sJTAAujToXEUka/wKucs4V+BlUGwF9w6+NgAx4G+haxXzmAGeqAIgRM6sFvAycE3UuIpJ0XgcudM7t8SugtgL+hp9bAbcGlgC1KxliN9DeObdCjwBiwsxqA9NQ5y8iZTsHmJa4VvjCObcGCOoRQ6rIA/7gVzDn3ApgRBVCjEjE0CqAODCzbGA6cHbUuYhIUjsbmJ64ZvjCOTcRuA7Y4VfMFPIScIGfJwEmjAWG4N3Nl9fuxNeM3fcXegSQ5hJLfaYDuVHnIiIpYx7Q28+zBMzsKLxTC8/yK2YS2wIMTBQ/gUk8DniKw88JmANct+/O/5uvVwGQvswsB++oUG3uIyIVNR/o6Zzz7c49MYmtO3Ay3k6BHYFWfsWPUD7eEb2L8Gb7z3TObQij4cR7eg7ee9qZ/79b4CK8ZYMLgNddGZ29CoA0ZWbVgbeo+rGRvsnIyKB9+/YceeSRNG/enBYtWnznzyZNmpCZmRl1qiK+KykpYcOGDaxZs4a1a9d+58+vv/6aJUuWUFpaGnWq+3sXOMs5tzfqRMR/KgDSlJn9Bbgx6jxq1qxJ9+7d6du3L+effz5NmuhsIZGD2bBhA6+88gpTpkzhjTfeoKDA11V5lfW4c+6mqJMQ/6kASENm9jPgmajar1+/Pueddx59+/alZ8+eZGfrJGGRisrPz2fGjBlMmTKFadOmsW3btijTudo5Nz7KBMR/KgDSjJmdgPfsLvR9/du0acOoUaPo27cvWVlRHUEukn6Ki4uZMmUKd9xxB8uXL48ihT1AF+fcR1E0LsFQAZBGzKw+3sSP1mG226RJE0aOHMn111+vjl8kQMXFxfztb3/jnnvuYcOGUOaY7W8F0Mk5F+lQhPhHBUCaSMwEfRk4P6w2s7OzGTp0KLfeeit16tQJq1mR2Nu1axcPPPAADz74IPn5+WE2/QreboHqONKACoA0YWYjgFFhtJWZmUn//v25++67adasWRhNikgZ1q1bx913382TTz5JSYnfe80c1B3OufvCakyCowIgDZhZW7y9oQMff2/YsCEvvPAC3bp1C7opESmn2bNn069fP7Zs2RJGc8V4e8kvC6MxCY62Ak4PfyKEzr9t27YsWLBAnb9IkunWrRsLFiygbdu2YTSXhXfNkRSnAiDFmVkvQjhus0+fPuTl5dG6dajzC0WknFq3bk1eXh59+vQJo7meiWuPpDAVACnMzEKpxG+77TamTp1KTk5O0E2JSBXk5OQwdepUbrvttjCa+1PiGiQpSgVAarsZOD6o4DVq1GDChAmMHj2ajAz9qIikgoyMDEaPHs2ECROoUaNGkE0dj3cNkhSlSYApyswaAl8ADYNqY8KECVx55ZVBhReRgP3jH//gqquuCrKJLcBxzrlQZh+Kv3Rbl7ruJsDO/7bbblPnL5LirrzyyqAfBzTEuxZJCtIIQAoxswzgdKAfcD0Bzfzv06cPU6dO1bC/SBooLS3lggsu4NVXXw2qiWLgb8ALwFznXFIdZygHpwIgySU6/Vzgx8ClQKA777Rt25a8vDxN+PNBqWPv9mJWbSli06a9FGwrolpBKXVLHTVKoZZz1HJQG+9lUecr6WvPzh2MOO8UVn8R+NL9dcC/gBeBeSoGkpsKgCRlZkfiTbC5GmgeRpsNGzZkwYIFWupXBbuK+e8Xu1nx9R7qFZbSjhD2ZxApj/VfreDXvU9m17bQHtevxTuV9M/Oua/DalTKTwVAkjGz04FBwEVAZljtZmZmMnPmTG3yUwmb9/LZ8nzWrS2kRYmjTdT5iBzMx/NmM+ryHpSGt20wQAkwGRjrnJsbZsNyaCoAkoCZVQOuxOv4T4wihxtuuIHHH388iqZTjoPi1QV8/GU+Ozft5VgHLaLOSaS8nhh+I69P+GtUzX8IjAX+4ZwriioJ8agAiFDi+f5PgXuAY6LKIzs7my+//FIH+xye+zyf+Ut3cGQpHBl1MiKVsW3DOgaeeiyFu0M9RfBAK4GRwETNE4iOpnlHxMzOx6uGJxBh5w8wdOhQdf6H8XUB709ex+dLdnCqOn9JZfWbNOP8G4dGncYxeNe+DxPXQomARgBCZma5wB+ALlHnAtCkSRNWrFhBnTp1ok4lKW3ey2fvbmV3QSkdos5FxC8F+bsY2KU12zdtiDqVfeYDtznn5kWdSJxoBCAkZlbPzP4KzCFJOn+AkSNHqvMvw65ivp65kXff3Mz31flLuqmZXYdLfzUy6jT21wWYY2Z/NbN6UScTFxoBCIGZ9QUeI8kmi7Vp04ZPPvmErCytVNunsNQVT9uwe3WJq/0/hoW2CkMkbCXFxfzqzP9l7crlUadyoDXAL5xzU6JOJN1pBCBAZtbMzF7EWwKTVJ0/wKhRo9T57+frgkLGr96VVeqyj1LnL+kuMyuLy28fFXUaZWkBTDazF81Mk5MCpBGAgJjZWXi7YR0RdS5lqfBCRkEAABqeSURBVF+/Phs3blQBkLBw+04+3VWd2hmBnp4mklRKiovp364x+Tu2RZ3KwWwGfuyceyvqRNKRRgACYGY3A7NI0s4f4LzzzlPnnzB1w2ZW5Ger85fYyczKosM550WdxqEcAcxKXFPFZyoAfGRm1czsL3jP+5O6d+3bt2/UKUSuBMe41ZsoLDmCTNOvgsTTyT2T/lqQBTxmZn9JbJomPtEjAJ+Y2RF4h2CcGXEqh1WzZk02bdpEdnZ21KlEZntxMf9cu4uGWfWjTkUkUoW787nufxtRVFgQdSrl8TZwqXNuc9SJpAPd9vjAzNoBC0mBzh+ge/fuse78/71nD/9aV6jOXwSoUTub9l27R51GeZ0JLExcc6WKVABUkZldgLeJxfeizqW84jz8v624iDc3O3Iy41sAiRyoc/I/Btjf94D5iWuvVIEKgCowsxHAFCBldtLJyMjg/PPjufNmiXM8vzafnMzaUaciklQ6nnM+lpFS3UEdYEriGiyVlFLf8WRhZjXNbCIwCrCo86mI9u3b06RJk6jTiMQzazZr2F+kDPUaNeGotu2jTqOiDBhlZhPNrGbUyaQiFQAVZGaZeOv7L486l8o48sh4nmMzZf1m6mY0ijoNkaR1RIuUvTZcDryYuDZLBagAqLg/A0m9cPZQmjdvHnUKocvbtoOCkgZRpyGS1Bo0Telrw3l412apABUAFWBmvwGujzqPqmjRIul2JA7UqoIClufX0Dp/kcNo0DTlrw3XJ67RUk66KpaTmV0N3Bt1HlUVpxGA/JISZm0sppZ2+BM5rBQfAdjn3sS1WspBBUA5mNm5wBNR5+GHOI0APLd2G/WyUmaBhkik0mAEYJ8nEtdsOQwVAIdhZifh7fAX9haUpcCjwG4/g8ZlBGDZrnxyMhtGnYZIyvB7BCCjZg0a/7g3ZIS+UKoa8K/EtVsOQQXAIZjZUcCrQN2Qm/4YOM05NxDwdWZrXEYA5m7di6XWCk2RSPk9AuBKSjly6AC+/7f7qdX6KF9jl0Nd4NXENVwOQgXAQZhZA+A1IMxb5gLgDqCjcy4v8Xe+PsCOwx4Aedu20yBLs/5FKqJeI3+vDa6oCIDsdm04/pkHaXHjFWRUD3UgtTnwWuJaLmVQAVCGxKYSU4G2ITb7FtDeOXefc64oqEYyM9N/qeySnbrzF6mojACvDZaVSbNrLqXtsw9Tt+MPA2unDG2BqdooqGwqAMr2EJAbUlvFwC+cc2c7574Iqc20NXPTVhpk5USdhoiUocaRzTnusd9y5K3XY+HdjOTiXdPlACoADmBmucANITW3FejhnNMGFj4ocY7/FlSPOg0ROYzGl/Ti2IdHklk3tFU6NySu7bIfc85FnUPSMLPqwIeEM/T/JXCec+7zw+Tk6zconb/fL63fTGnpEVGnkTRKiopYuWQxm1avYsv6NWxdv4at69Z4H6/z/hu8yV8NmrWgYeLPBk29jxu1bMUx7TuSWS3sBTASlX4t/H181iFv8iH/f8F/VrNi6CgK/7vW13YPYhlwonNubxiNpYKsqBNIMiMIp/P/P+Bi59yWENqKhd0lJewqrkPtmI9pFeTv4oM3X2PhjCl8MHs6+Tu2HfZr9uz6nDUryq5Ds3Pqc1K33nTu2ZeTzu5FzWztqyD+qXlUS77/1B9YOfx+dn3wSdDNtcW7xt8ddEOpQiMACWbWFu/uP+gx5HHADeWd6KcRgPKZvmkr+UXxnOy7bcM6Fs2aysKZL7N07myK9hYG0k616jVod3o3Ove4kE7nXkD9Js0CaUeiE/YIwD6uuIRV9/+FzdNm+9p+GfbijQIsC7qhVKACADAzA+YQ/MS/+51zv67IF6gAKJ+/fb2FBlnx2vhn6/o1vPDASN56fhylJSWhtp2RmclZl11Lv1vvSacd5GIvqgJgnzV/nsC68ZN8zaEM84CuLl0vhhUQ8wHTb9xA8J3/3yva+Uv57HWl1M4Ie6+m6OzZuYPn7r+DQacex+yJT4be+QOUlpQwe+KTDDr1OJ67/w727NwReg6SflrcfBVHXNA96GbCnOid1GI/AmBmLYBPgXoBNjMV75l/ha/UGgE4vP/bso0NhfWjTiNwxUV7mfXMX3hpzO/YuWVT1Ol8S92GjbhkyG849+qbyKqmlRipKuoRAABXWsrK4aPZPneBr7kcYDvwA+fcmiAbSXYaAYBHCLbzfwf4SWU6fymfL3YXR51C4JbMeZ1burbl6buGJF3nD7BzyyaevmsIt3Rty5I5r0edjqQwy8jge78bSp32xwfZTD28a3+sxboAMLO+wMUBNvEJcL5zbk+AbcSaA6qR3jPTX31iDPdd0Yv1/1kZdSqHtf4/K7nvil68+sSYqFORFJZRozqtH7yDmse0CrKZixN9QGzFtgBIbA35aIBNrMLb5GdrgG3E3uLtO6mdmZ67fBYX7eXxof15ZuQtkTznr6zSkhKeGXkLjw/tT3GRllxL5WTWrcNxD99F9WaNg2zm0ThvExzbAgD4KdAyoNglQD/n3OqA4kvC0l3BLHmL2o7NG7m3X3fefO7vUadSaW8+93fu7dedHZs3Rp2KpKhqjY/ge6OGYRmBdVUt8fqCWIpzATAwwNijnHPvBRhfEkpcrahT8N2qZR/z694ns+y9uVGnUmXL3pvLr3ufzKplH0ediqSo7P9tQ7NrLg2yiSD7gqQWywLAzE4HTgwo/CLg3oBiy35WFRSQk5kddRq+WrXsY+688DQ2fv1V1Kn4ZuPXX3HnhaepCJBKa/bzftRue2xQ4U9M9AmxE8sCABgUUNw9wJXOufSflp4E/r27IOoUfLVj80ZGX3MBe3btjDoV3+3ZtZPR11ygxwFSKZaZydF3DyGjRmBLTIPqE5Ja7AoAMzsSCGrm522HO9xH/LN+b/rUWcVFe3mw/yVpded/oI1ff8WD/S/RxECplJpHtaTlL68OKnzfRN8QK7ErAICbCOYQpFnAYwHElYPYWezvpiVRevL2m9Pimf/hLHtvLk/efnPUaUiKanxpL3J+FMjT2yy8viFWYlUAJJZ7DAggdCEwQHtLh6vYZUadgi9efWJMSs/2r6g3n/u79gmQyjGj1a9vxoI5onpA3JYExqoAwFvu0SiAuH9zzq0KIK4cQpal/pazS+a8zoTfDos6jdBN+O0w7RgolVK9WWMa9T03iNCNiNmSwLgVAEEs99gN3BdAXDmMLEvtEYDior08MfzGlNrkxy+lJSU8MfxGzQeQSml2zaVk1KwRROhYLQmMTQEQ4NK/x5xz6wKIK4eR6gXArGf+khLb+wZl/X9WMuuZv0SdhqSgakfUp/GlvYIIHaslgbEpAAhmmcdOYHQAceUwHFDdgpjLGY49O3fw0pjfRZ1G5F4a8zsdJSyV0vSqi8msHchGYLFZEhiLAsDM6gDnBxB6jHNucwBx5TDyU3zYfMpjo0M91a9BgwZcccUVjBs3jtmzZ/PZZ5+xY8cOduzYwWeffcbs2bMZN24cV1xxBQ0aNAgtr51bNjHlMdXQUnFZ9erS5CdBXNY5P9FnpD2Lw8R1M7sImORz2K3A95xz232O+y1m5us3KF2+3+sK9zJ3S2pOAty6fg2DTj2Owj27A2/roosuYtCgQeTm5pKVVb4Rk+LiYubNm8fYsWOZPLni57lXVI1atRn77hc0aNoi8Lbk0Pq18HdpbYe8YH9+SnbtZulFN1Cyc5ffoS92zgX/wx+xWIwAEMzd/zNBd/6Snl54YGTgnf8pp5zC3LlzmTRpEmeeeWa5O3+ArKwszjzzTCZNmsTcuXM55ZRTAswUCvfs5oUHRgbahqSnzDq1OaLPWUGEDmRoIdmkfQFgZgb0DiD0xABiSprbtmEdbz0/LrD4GRkZPPDAA8yfP5/c3Nwqx8vNzWX+/Pk88MADZAR3IhtvPT+ObRs0l1YqruG5XYMI2zvRd6S1tC8AgM5AU59jfuGcW+hzTImBRbOmBrbsr169ekybNo1hw/zfV2DYsGFMmzaNnJwc32ODtyxw0aypgcSW9Fb7B8dS48jmfodtitd3pLU4FABBDOXo7l8qZeHMlwOJW69ePebNm0evXoEsjQKgV69evPPOO9SrVy+Q+EG9N5L+GvYIZBQg7R8DxKEACOInQwWAVFhB/i6Wzp3te9yMjAyee+452rVr53vsA7Vr147nn3+ezEz/92BYOnc2Bfm+T+aSGAjoMUAgQZNJWhcAZpYBdPA57CLn3HKfY0oMfPDmaxTtLfQ97ujRowO98z9Qjx49eOihh3yPW7S3kA/efM33uJL+arRqQe22x/odtkOiD0lbaf2PA9oCfq/n1N3/YZSWljJjxgzuvfdeLrzwQlq2bEnLli258MIL+d3vfsesWbPSZjliRSycMcX3mKecckogz/wPZ+DAgXTt6v8NUhDvkcRDw3N938CvDl4fkrbSeh8AM7sWeMrnsMc45/7tc8yDSrV9AL744guuvfZa3nnnnUN+XteuXXnqqado3bp1pdpJtX0ASoqK6P/DJuTv2OZr3Llz5/oy278y8vLy6NKli68xs3Pq8+THG8gM5rQ3OYxU2wdgf3vXrGfpxTf6HfY651xwy3Yilu4jAH7P4twUZuefSpxzjBkzhhNOOOGwnT/AnDlzaN++PQ8//HAsRgNWLlnse+d/0UUXRdb5gzf6cPHFF/saM3/HNlYuWexrTImH6i2aklXf91Uqab0SQAVAxSzwOV7aePjhh7nlllvYs2dPub9m9+7dDBkyhLFjxwaYWXLYtNr/06IHDYp+y/KBA/0/PC2I90riIfsHx/kdUgVACvtfn+Np7X8Zli9fzogRIyr99SNGjGDFihU+ZpR8tqxf42u8Bg0aRHr3v09ubq7vZwf4/V5JfNT+ge8TAf3uQ5JK2hYAZtYE8PuoKI0AHKC0tJRrrrmmQnf+B9q9ezfXXXddWj8K2Opzp9a7d+8Kbe8blKysLHr39nejTb/fK4mP2v6PANRK9CVpKW0LAODoAGJqBOAAr776KvPnz69ynDlz5vD666/7kFFy2rrO306te/fuvsarCr9z8fu9kvgI4BEABNOXJAUVAOX3lXNuo88xU97Chf7VRAsWpO8Ai9/D2q1atfI1XlX4nYseAUhlZdXPoXpz32/Yj/Y7YLJQAVB+uvsvw/vvv+9bLD+LiWTj911ty5YtfY1XFX7nohEAqYps/+cBHO13wGShAqD8NDW5DH4WAIsWLfItVrLx+7l2ixYtfI1XFX7nojkAUhXVmzb2O+TRfgdMFulcAPh9i7TZ53giIuKzzHp1/Q6ZPMNtPkvnAsDvLYC3+BwvLXTo4N9RC506dfItVrJp0NTfu+Q1a5LnLtnvXPx+ryResnL8vvT73pckjXQuALJ9jqcCoAwqAMqnQTN/O7XVq1f7Gq8q/M7F7/dK4iUzx/cRAL/7kqShAqD8VACUoXNn/zbK8jNWsmno813tqlXJMyXF71z8fq8kXgIYAVABkIL8/qZpDkAZ+vTp48uBMKeddhrnnnuuDxklJ7/vat944w1f41WF37loBECqIsv/OQAqAFKQ5gCEICMjg6effppatSq/6WKtWrUYN24cGRnp++Po93Pt6dOnU1xc7GvMyiguLmb69Om+xtQcAKmKTM0BKLf0veJCbZ/jbfU5Xtpo06YN9913X6W//r777uO44wLZwStp+D2svXXrVubNm+drzMqYN28eW7f6+6uhRwBSFQEUAH73JUkjnQsAvzdKL/I5XloZPHgwDz30UIVGAmrXrs2YMWMYPHhwgJklh0Yt/d+5LxlOUXzkkUd8jxnEeyXxYf6fkRH9oRsBSecCQEJkZgwZMoSPPvqI00477bCf37VrV5YsWcLgwYMxsxAyjNYx7TuSnVPf15iTJ0+OdBQgLy+PSZMm+RozO6c+x7Tv6GtMESlb2lY2Eo3jjjuOOXPmMGvWLBYuXMiiRYu+2eGvU6dOdO7cmZNPPplzzjknFh3/PpnVqnFSt97MmzzR17i33nqrL4cxVcbw4cN9j3lSt95kVqvme1wR+S4VAOK7jIwMevbsSc+ePaNOJal07tnX9wIgLy+PP/7xjwwbNszXuIfzyCOPMGfOHN/jdu7Z1/eYIlI2PQIQCclJZ/eiWvUavscdPnw4r732mu9xD2bmzJnccsstvsetVr0GJ53dy/e4IlI2FQAiIamZXYd2p3fzPW5paSmXX345S5cu9T32gZYuXcpll11GSUmJ77Hbnd6Nmtlpu+JKJOmoABAJUeceFwYSd/v27eTm5jJz5sxA4oN355+bm8v27dsDiR/UeyMiZVMBIBKiTudeQEZmZiCxt2/fTp8+fQJZmvfII4/Qp0+fwDr/jMxMOp17QSCxRaRsKgBEQlS/STPOuuzawOKXlJQwaNAgzjjjDPLy8qocLy8vjzPOOINBgwYFMuy/z1mXXUv9Js0Ciy8i36UCQCRk/W69hxq1gt1cbM6cOXTp0oVLLrmEt99+u0LbBhcXF/P2229zySWX0KVLl0Bm+++vRq3a9Lv1nkDbEJHv0jJAkZA1aNqC3gOGMHls5bdPLq9JkyYxadIkGjRoQO/evenevTutWrWiZcuWtGjhbbm7Zs0aVq9ezapVq3jjjTeYPn2679v7HkrvAUO0/79IBMw5F3UOgTCzAsDPNVe1nHMFPsYrFzPz9RuULt/vdYV7mbuletRpVNqenTv4ZZfW7NyyKepUIlW3YSMenb+CWnVzok5FgH4t/N2cq0PeZF/jlUfp3iI+7NrPz5CFzrmafgZMFnoEIBKBWnVzuGTIb6JOI3KXDPmNOn+RiKgAEInIuVffRNOjjok6jcg0PeoYzr36pqjTEIktFQAiEcmqVp0Box8PbFlgMsvIzGTA6MfJqpa6j3FEUp0KAJEIte96Dlfd9ceo0wjdVXf9kfZdz4k6DZFYUwEgErE+A4Zw9uU/jzqN0Jx9+c/pM2BI1GmIxJ4KAJEk0P/+P9P2R6dHnUbg2v7odPrf/+eo0xARVABIwHbv3s3cuXOZO3cu+fn5UaeTtLKqVWfoky/R+Mijo04lMI2PPJqhT76k5/4iSUIFgPhu+fLlDBgwgBNOOIGcnBy6du1K165dqVevHu3bt+fnP/85n376adRpJp2cIxoz/Omp1KpTN+pUfFerTl2GPz2VnCMaR52KiCSoABDflJaW8qc//YkTTzyRJ598kiVLlnxr//iSkhI+/vhjnnrqKTp06MDo0aMD3V8+FbVq+0PuffmdtBoJaHzk0dz78ju0avvDqFMRkf2oABBfbNy4kdNPP52hQ4eyZ8+ew35+YWEht99+O6eeeirr1q0LIcPU0artD/n99AVpMSeg7Y9O5/fTF6jzF0lCKgDEFzfddBPvvvtuhb9uwYIFXH/99QFklNpyjmjMnS+8kdKrA86+/Ofc+cIbGvYXSVIqAKTKJk6cyEsvvVTpr3/llVeYMGGCjxmlh6xq1bnxwSe5+p6HUmqzoIzMTK6+5yFufPBJTfgTSWIqAKRKNmzYwMCBA6scZ/DgwWzYsMGHjNJPnwFDGPHsaymxbXDTo45hxLOvaZ2/SApQASBVMnPmTLZs2VLlOFu3bmXmzJk+ZJSe2nc9h4fmLOOa346hbsNGUafzHXUbNuKa347hoTnLtMOfSIpQASBVsnjx4qSMlY6yqlWnd//BPDp/BRcNGkGNWrWjTokatWpz0aARPDp/Bb37D9aQv0gKUQEgVbJo0aKkjJXOatXN4fLbRzH23S/o9tP+kcwPyMjMpNtP+zP23S+4/PZROtJXJAWZcy7qHAJhZgVADR9D1nLOFfgYr1zMzNdvkN/f7zp16vi2w192dja7du0q1+euK9zL3C262wTYtmEdi2ZNZeHMl1k6dzZFewsDaada9Rq0O70bnXtcSKdzL6B+k2aBtCPR6dfCfI3XIW+yr/HKo3RvER927ednyELnXE0/AyaLrKgTkNTm5/a+2iq4cuo3aUb3K6+n+5XXU5C/iw/efI2FM6bwwezp5O/YVqXY2Tn1Oalbbzr37MtJZ/eiZnYdn7IWkaipABBJIzWz69Dl/B/T5fwfU1JUxMoli9m0ehVb1q9h6/o1bF23xvt4nfffAA2atqBBsxY0TPzZoKn3caOWrTimfUcyq1WL+F8lIkFQASCSpjKrVeO4jqdwXMdTok5FRJKQJgGKiIjEkAoAERGRGFIBICIiEkMqAERERGJIBYCIiEgMqQAQERGJIRUAIiIiMaQCQEREJIZUAIiIiMSQCgAREZEYUgEgIiISQyoAREREYkgFgIiISAypABAREYkhFQAiIiIxpAJAREQkhlQAiIiIxJAKABERkRhSASAiIhJDKgBERERiSAWAiIhIDKkAEBERiSEVACIiIjGkAkBERCSGVACIiIjEkAoAERGRGFIBICIiEkMqAERERGJIBYCIiEgMqQAQERGJIRUAIiIiMaQCQEREJIZUAIiIiMSQCgAREZEYUgEgIiISQyoAREREYkgFgIiISAypABAREYkhFQAiIiIxpAJAREQkhlQAiIiIxJAKABERkRhSASAiIhJD5pwLv1GzGkBPoBPQMfFqEnoiIiIi4dsALE68FgEznHOFYScRegFgZicB44F2oTYsIiKSnJYCP3POfRBmo6E9AjCzTDO7E3gPdf4iIiL7tAPeM7M7zSwzrEZDGwEws98Cd4bSmIiISGq61zl3VxgNhVIAmFln4F0gK/DGREREUlcxcKpzbmHQDQVeAJhZTeAD4PhAGxIREUkPnwEnOecKgmwkjDkAl6LOX0REpLyOx+s7AxVGAdAphDZERETSScegGwijAAj8HyEiIpJmAr95DnQOgJllANuBOoE1IiIikn52AfWcc6VBNaCtgEVERGIo0AIgUbl8GGQbIiIiaejDIO/+IZwRgMUhtCEiIpJOFgXdQBgFQOD/CBERkTQT+M2zNgISERFJLumxEVDiH/AzvO0NRURE5OCK8U4GDLTzh5BWAST2NP59GG2JiIiksN+HcQ4AhHs4zz1AEd6JgNVCbFdERCTZFQH3AveF1WBoxwF/06DZScB4vPOPRURE4m4p3rD/B2E2GnoBAGBmNYCeeFsddky8moSeiIiISPg24M3yX4y3Um6Gc64w7CT+H1yORvDJDcbnAAAAAElFTkSuQmCC;" parent="1" vertex="1">
          <mxGeometry x="290" y="420" width="150" height="150" as="geometry" />
        </mxCell>
        <mxCell id="a8zKuZkFYYWIh80umhkp-1" value="" style="ellipse;whiteSpace=wrap;html=1;aspect=fixed;fillColor=none;strokeWidth=3;dashed=1;" vertex="1" parent="1">
          <mxGeometry x="190" y="302" width="350" height="350" as="geometry" />
        </mxCell>
        <mxCell id="a8zKuZkFYYWIh80umhkp-2" value="" style="shape=image;verticalLabelPosition=bottom;labelBackgroundColor=default;verticalAlign=top;aspect=fixed;imageAspect=0;image=data:image/png,iVBORw0KGgoAAAANSUhEUgAAAgAAAAIACAYAAAD0eNT6AAAABHNCSVQICAgIfAhkiAAAAAlwSFlzAAAOxAAADsQBlSsOGwAAABl0RVh0U29mdHdhcmUAd3d3Lmlua3NjYXBlLm9yZ5vuPBoAACAASURBVHic7N13mFTV+Qfw75nZXmHpsPQiAksRNHaxN9AYo/mlGKN0iWJPNMagMdEkBmsUlrXEkgQ1xoIt0pSy9O1L2WVhe52t08s9vz8WDSYIW2bm3Hvn+3keHxMfdu5Xd3fuO+ee874CRGQ6N72WlxjjtU63aDID0MYCYiyAvgBShEQfKUQKIJM7/7ToEFK2S4EWAB0AWoQUpYA8FLBaCq0Bd07mollOdf82RBQKQnUAIuq9hat2J0gRexGASwB5EYBJAKxBevkAgCIhsQEQ6xIdHRueuvtsV5Bem4gUYQFAZFDLl0tLzZDCK6WQPwYwF0BSmC5tlwIfAHgzvTrj0+XLhRam6xJRELEAIDKYzk/7MYuFxFIpMEZxnENSyOeTOxyruCpAZCwsAIgMYvnyjVE1Q9IWSCF+DWCI6jz/pUZI+djQ2ubVy5df6FcdhohOjgUAkQHMX513kZDiaQAZqrOciJA4oFlwd9aCqR+rzkJEJ8YCgEjH5mUVjbPIwO8hcYPqLN20zqJZl61aPLlYdRAiOj4WAEQ6dNNreYnxLtwnhfgFgDjVeXrIJ4V80aL5Hs5cNKtNdRgi+iYWAER6IqWYn5V/EyD+ICQGq44TDFLAJqT8bWufA8+/feONAdV5iKgTCwAinViQWXi6FNozQuIs1VlCZK8U8s6sBdM2qw5CRCwAiJRb/GLusIBVPA6InyAififlWmtAu33lkhlHVCchimQR8GZDpE93rdgWb09KugPArwAkq84TZk4Az0X7rI+9sHSyXXUYokjEAoBIgXkr8+ZaLOJZAKNUZ1GsWgr5YNb8qa9DCKk6DFEkYQFAFEbzsnJnCGl5WkicrzqLvoidUmjLshZM2646CVGkYAFAFAZLn9/XzxPrfVhIsRTBG9JjNhog34z2Rd3/wtLJdarDEJkdCwCiEFq4ane0FNG3AeIRAKmq8xiEQ0j5ZKwn4fHn7hjvUR2GyKxYABCFyILM/EsAPIPO0bzUfaVC4sHMRVPfVh2EyIxYABAF2YLM3AmAZQWAq1VnMQMpsN6i4a7MRVMLVGchMhMWAERBsuSF/L7+KPwCwF0AYlTnMRm/kHjZF+1/6JVbT2tUHYbIDFgAEPXS8uXSUjUs/ydCij8BGKg6j8k1A/LRYTXNf+HYYaLeYQFA1AsLVxVeKIX2NICpqrNEmP0WTd61avG0T1UHITIqFgBEPXDLywXDo/za7wBxk+oskU2uFdJyZ+aijEOqkxAZDQsAom4wyZhes/FJIV+MdyX8+rk7xrerDkNkFCwAiLpCSrEws+D7UuBJACNUx6HjqpUCy9OrM7KWLxea6jBEescCgOgkFq0smKVZ5DMAzladhbpkj5DanZmLpm9RHYRIz1gAEH2LW1/aOzTKH/UbKTAfgEV1HuoWCYF3NBF130vzJ5WrDkOkRywAiP7LDW8VxfRp9S8BxG8ReWN6zcYppPxTosPxh6fuPtulOgyRnrAAIDrG0TG9zwAYrToLBVWVFPJXHDtM9B8sAIgAzF9dcKqQeAqQl6vOQiH1BWC9c/XCybmqgxCpxgKAItq8rKI0If2/4ZjeiKIB8k0pLPdlLcioVx2GSBUWABSRFq7aHa1ZYm4RUvwOkP1V5yElWgE8EeeOf5pjhykSsQCgiHN0TO/TACarzkJ6IEqElL/i2GGKNCwAKGIsWpkzXrNYVgBijuospEvrAO3O1QunF6kOQhQOLADI9H72Sk6faJ/1lwDuBBCrOg/pmk9IvAJ4f5W5aFaT6jBEocQCgEzrmDG9fwQwSHUeMpRmQD7a2ufA82/feGNAdRiiUGABQKa0IDP/AkA+DYjpqrOQoe0DtLtWL5z+meogRMHGAoBMZf7qvHQh8XtA/AT8+aagkWsDUWLZy7dOLVOdhChY+AZJprBw1e4EIPp+KcT9AOJV5yFT8kohV2qW2IdenjexQ3UYot5iAUDG9vWYXvknQIxUHYciQo0UeIRjh8noWACQYc1fnT9TSPkMIM5RnYUijxTYLaRYtnphxjbVWYh6ggUAGc7CVcVDAP9yjuklHZAQeEdo1nszF02uUB2GqDtYAJBhHDOm91EAKarzEB3DIaR80huT8sSrt4x2qw5D1BUsAMgQ5q3Mm2sV4mkpMEZ1FqJvIyQqNYt8KGvBtNdUZyE6GRYApGsLV+VP1Cx4SkhcoToLUdfJjRbNeteqxVPyVCch+jYsAEiXjhnTexuAKNV5iHpAA+Sb1gDuXblkWoPqMET/jQUA6cry5Rujqob1u5VjeslEWgE80drH+tTbN072qg5D9BUWAKQbi1bmXaxZxFMAMlRnIQqBg0KKuzMXZXykOggRwAKAdGBeVtE4iwz8HhI3qM5CFAbrLJp12arFk4tVB6HIxgKAlLnptbzEeBfuk0L8EhzTS5HFJ4V80aL5Hs5cNKtNdRiKTCwAKOw4ppeokxSwCSl/y7HDpAILAAqreVm5Z1g0yzMAzlSdhUgvhESOkLhz1eKpX6rOQpGDBQCFxeIXc4cFrOJxjuklOhG5VgrckbVg2mHVScj8+EZMIbVw1e4EKWJuB/AQgCTVeYgMwAXg2YA15nccO0yhxAKAQmbeyry5Fot4FsAo1VmIDKhaCvlg1vypr0MIqToMmQ8LAAq6havyTpNCPA3gPNVZiExgl0XDslWLp2arDkLmwgKAgmbp8/v6eWK9DwsplgKwqs5DZCISkG9E+6Luf2Hp5DrVYcgcWABQry1ctTtaiujbAPEIgFTVeYhMjGOHKWhYAFCvLMjMvwTAswBOVZ2FKIKUCokHMxdNfVt1EDIuFgDUI7e+lHeKNSBWALhKdRaiCLZBCnFX1oKMfNVByHhYAFC3LHkhv68/Cr8AcBeAGNV5iAh+IfGyL9r/0Cu3ntaoOgwZBwsA6pJj2vc+CWCA6jxE9D9aAPnIsJrmvyxffqFfdRjSPxYAdFLzV+ddJKR4CsBU1VmI6MSExAHNgruzFkz9WHUW0jcWAPStFq4qGCst8nGO6SUypHVSiDuyFmTsUx2E9IkFAP2PY8b0/gJAnOo8RNRjPinki/GuhF8/d8f4dtVhSF9YANB/SCnmZ+XfBIg/CInBquMQUbCIJkB7jGOH6VgsAAgAsCCz8HQptGeExFmqsxBRyOyVQt6ZtWDaZtVBSD0WABGOY3qJIpFcaw1ot69cMuOI6iSkDt/wI9RdK7bF25OS7gDwKwDJqvMQUdg5ATwX7bM+9sLSyXbVYSj8WABEoKNjep8BMFp1FiJSrkoK+SuOHY48LAAiyLys3BlCWp4WEuerzkJEeiN2SqEty1owbbvqJBQeLAAiAMf0ElEXaYB8UwrLfVkLMupVh6HQYgFgYhzTS0Q95BBSPhnrSXj8uTvGe1SHodBgAWBSR8f0Pg1gsuosRGRUokRI+SuOHTYnFgAmsyAzdwJgWQHgatVZiMgcpMB6KeSdL82fVqg6CwUPCwCT+NkrOX2ifdZfgmN6iSg0/ELiZcD7q8xFs5pUh6HeYwFgcMeM6f0TgIGq8xCR6TUD8lGOHTY+FgAGNn91wWwh5dMApqnOQkQRZ79Fk3etWjztU9VBqGdYABjQLS8XDI/ya78DxE2qsxBRpJNrA1Fi2cu3Ti1TnYS6hwWAgSxctTsBiL6fY3qJSGe8UsiVHDtsLCwAjEBKsTCz4PtS4EkAI1THISL6FrVSYHl6dUbW8uVCUx2GTowFgM4tWlkwS7PIZwCcrToLEVEX7dEslmUvzZ+yVXUQ+nYsAHTq1pf2Do3yR/1GCswHYFGdh4iomyQE3tFE1H0vzZ9UrjoM/S8WADpzw1tFMX1a/UsA8VtwTC8RGZ9TSPknb0zKE6/eMtqtOgz9BwsAHZm3Mm+uVYinpcAY1VmIiIKMY4d1hgWADsxfXXCqkHgKkJerzkJEFGJfWDTLslWLp+SpDhLpWAAoNC+rKE1I/284ppeIIgzHDusACwAFFq7aHa1ZYm4RUvwOkP1V5yEiUqQVwBNx7vinOXY4/FgAhNmCzPxLhMRTUmCK6ixERDpxEBD3rF6YsVZ1kEjCAiBMFq3MGa9Zrb+DxA2qsxAR6dQ6QLtz9cLpRaqDRAIWACF221+KkvxR/nulEL8EEKs6DxGRzvmkkC/6o7TfvHrLjFbVYcyMBUCIHDOm948ABqnOQ0RkMM2AfLS1z4Hn377xxoDqMGbEAiAEFmTmXwDIpwExXXUWIiKD2wdod61eOP0z1UHMhgVAEM1fnZcuJH4PiJ+A/22JiIJIrpUCd2QtmHZYdRKz4E0qCI4Z03s/gHjVeYiITMorhVypWWIfennexA7VYYyOBUBvfD2mV/4JECNVxyEiihA1UuARjh3uHRYAPTR/df5MIcXTgDxXdRYiogi1CxB3rl6YsU11ECNiAdBNC1cVDwH8yzmml4hIFyQE3hGa9d7MRZMrVIcxEhYAXbRw1e5oKaJvA8SjAFJU5yEiom9wCCmf5NjhrmMB0AXzVubNtVjEUwDGqs5CRETfTkhUahb5UNaCaa+pzqJ3LABOYOGq/IlSYAWAK1VnISKi7pAbpbDcmbUgI191Er1iAXAcx4zpvQ1AlOo8RETUIxog37QGcO/KJdMaVIfRGxYAx1i+fGNU1bB+twqJxwAMUJ2HiIiCogXAH1r7WJ96+8bJXtVh9IIFwFGLVuZdrHU+589QnYWIiIJPSBwAxD2ZizI+Up1FDyK+AJiXVTTOIgO/55heIqKIsc6iWZetWjy5WHUQlSK2ALjptbzEeBfu45heMoNoq0BiXBSSYq1IjLMiOS4KSXFRiIu2IMoqEBPV2bIiNtoCq0VAAEiIsQIA/JqEx/+fZmoen/b1Xy5vAO6jf+9w+9Hu8sPuDsDrZ/M1MjyfFPJFi+Z7OHPRrDbVYVSIvAJASjE/K/8mQPxBSAxWHYfoZCxCoE9iFPolx6B/Ugz6J0d3/u/kGKQlRSM5PgqxUeHtSeXxa2hz+NDs8KHZ7oPN7kOz3YumDi/qW71odfrCmoeop6SATUj520gcOxxRBcC8rNwzLJrlGQBnqs5CdDz9kmMwrG8c0tPikN6v8+8DUmJgtRjrV9Xt09DQ5kF9mwfVLR5U2VyotLnR4mBhQPokJHI0i1yWtWDaZtVZwsVY7yo9tPjF3GEBq3icY3pJT/olRWPc4ESMGZiA4f3iMCwtDvFHl+XNyuEOoNLmwpFGF8oanChrdKLd6Vcdi+gYcq01oN2+csmMI6qThJqpb4Z3rdgWb09KugPAQwCSVOehyGWxCAzvF4exgxIwblAixg1KQJ/EaNWxdMHW4cWhBidKah04UONAXZtHdSQiF4Bno33Wx15YOtmuOkyomLYAONq+91kAo1Rnocg0ICUGU9KTMWV4MiYMTQz7c3qjanX6cKDGgf01dhRV2rmfgFSqlkI+mDV/6usQQqoOE2ymKwAWrso7TQrxNIDzVGehyBJtFRg3OBGnDkvCqcOSMLJ/vOpIptDY4UVBeQfyKtpxsNaBgGa692HSPbHTosk7Vy2emq06STCZpgBY+vy+fp5Y78NCiqUAzP0glXQjNtqCqSNScPqYVExKT/r6uB2Fht3tR255B/YebsP+ajv8LAYofCQg34j2Rd3/wtLJdarDBIPhC4BjxvQ+AiBVdR4yv+goC6YOT8assanIGJ7Mm74iTm8A+RUd2HWoFUVVdmgsBig8TDN22NAFwILM/EsA8QIgx6vOQuZmEQKT05PwnfF9MG1ECmKjedPXkw6XH7sOtWFHaSsONzpVx6GIIEosmrZk1eJp61Un6SlDFgC3P1uS4op3PSskbladhcwtLTEa50xMwzmn9EUad+0bQl2rB1sONCP7YCs63DxiSCElAfw1zh2/7Lk7xrerDtNdhisA5mXlzrBolrcAjFOdhcxJCGDi0CScPzENM0alwGKwJjzUya9J5B1px5f7m7G/2g4+IKDQESWA5cbVCyfnqk7SHYZ6Z1uQWXAdIN8EwO3VFHRJcVG4YFIaZp/aD6kJUarjUBDVtXmwodCG7JIWeHycY0Ah4ZFC3Jy1IGON6iBdZZgCYEFm3jJArADAh68UVANTY3HplH44a0JfbugzOac3gC37W7Cx2AZbB8fCU9BpgLhz9cKM51QH6QpDFAALMvPvBvBn1TnIXEb2j8fFU/rjjHGpsAhD/CpQkEgJFFR24MM99ShvcqmOQ6YjHly9MONx1SlORvfvevNX590ppHhKdQ4yj8npyZh72kCMGZSgOgopJgHkl7fjk9xGlDXw9AAFj5BiWeaijGdV5zgRXRcACzILbgTk38FlfwqCU4Yk4tpZgzBucKLqKKRDxVV2vL+7nscIKVgkgJtWL5z6puog30a3BcC8rMJzLJq2HkCs6ixkbGMGJuCqGQMxdUSy6ihkAPuq7Xh3Zx0fDVAwuKWQF2YtmLZddZDj0WUBMH91wSAh5R4Aw1RnIeMa0S8e3z19EKYM542fukcC2FPWhn/trEMjNwtSL0iBOosWdVrmokm1qrP8N90VAMuXS0v10IL1AGarzkLGlBhnxdwZgzB7cho391GvBDSJrQdb8P6uejYVot7YMKwm49Lly4WuzqDq7rBz9dDCpeDNn3ogyiJw8ZT+uHrGQMTFcNsI9Z7VInD+xDTMHJ2Kj3IasLHIxmmE1BMXVQ/NXwzgBdVBjqWrj0fzsopHWjR/AQCu2VK3nDosCf931lAM6cstIxQ69W0e/GNbLYqqOlRHIeNxBKIw9eVbp5apDvIVXa0AWLTAKvDmT90wIDkGPz53GCalJ6mOQhFgUGosll05CrvK2vDO9lq0OHyqI5FxJFr9WA0pL4EQulhG0s0KwILMglsB+ZLqHGQMFiFwcUY/XDtzELv3kRIen4b3d9djQ5ENmtTF+zkZwy2rF059VXUIQCcFwE2v5SXGuUUZgIGqs5D+DUuLw0/PH4bRA9jIh9SrsLnw2pfVqOCxQTqJurYO17aD5R02pzYeb/5E+fRAXTwCiHeJ26XgzZ9OLNoqMOe0Qbhsan9YOaGPdGJEv3g8cO1YfJrbiI9yG+APcDWAvqnN6UZ2aQUqba3xAOIhcB+AX6vOpfxd9La/FCX5ogNlAAaozkL6NWpAPG69cDgGp3KTH+lXdbMbL22qRJXNrToK6YDH70deeS0KquqgffP0iAN+y2i8fWujqmwAYFV5cQCY/t3F9wOYozoH6ZMAcPGU/lhw8QikxOtiwYroW6XER+HcU9JgsQiU1jnBtYDIJCFRWmfDZwUHUd3cjuNsEYmBVXpQ8MFGBfG+pnQF4PZnS1Lcca7DANJU5iB9SkuKxrzZwzF+CHv3k/GU1jvxysZKdhKMMNUt7cguLUeL/aR7QloRL0bg5XnKzpQq3T7tiXX9FLz503HMHJ2KX39vPG/+ZFjjBiXg198bjzPG9lEdhcLA4fZi075D+Dh3f1du/gDQB078ONS5TkTpmqoUWKjy+qQ/sVEW/OjcoThrfF/VUYh6LS7GgvkXDceEIYlYs70WPr+uOsFSEPgDGvIrapFbUYuA1s3vr5BLAKwMSbCuXF7VhRdkFp4OaDtVXZ/0Z2BKDBZfOhLpaXGqoxAFXXWzG6vWVaCuzaM6CgWBhERJnQ27DlXB6e3FYx7NMhNrbt0bvGRdp+wRgBSBH6i6NulPxvBkPPjdcbz5k2kNS4vDg9eNw8zRqaqjUC81ttvx4Z59+GJfWe9u/gBg0ZTdC5UVAEKK61Vdm/RDALhi2gD8/PJRSIhVfiiFKKTioi1YeMkIfO+MwZxUaUAOjxcbiw/hvb3FqG+3B+dFJW4Izgt1n5KfwPmrC04VUharuDbpR0KsFfNmD0fGCI5/oMhTVNWB1Rsq4fQEVEehk/BrEkVVdcg5UgNfIATfL6uYiDfmHQj+C5+YkhUAIbXLVFyX9GNAcgx+ec1Y3vwpYk1O73zsNbgPm1vpWYWtBe/syMfOQ5WhufkDgCYvDc0Ln5iiRwCW89Rcl/Rg9MAE/PLasXzjo4g3MCUGv7hmLE4ZyuOuemPrcGLt3n34LL8EHe4Qb9yUOD+0Fzg+RccAtVk66EJMCswcnYpbZ6cjmhP8iAAAibFWLLtyNN7cXI2tB1tUx4l4br8fOYerUVRdf7wOfqEyM2xXOkbY78JLXsjv649Cc7ivS+pdPKU/bjxzCLj3iej4Ps1rxLs761THiEiaJlFY3fmc3+sP+74MiVhrGl69pTWcFw37CoBmEWPBDtkRxSIEfnjOUFxwKps+Ep3IFdMGICHGir9trYEWxo+fka66pR3ZJeVocSgb6SzgkmMAhLUfQNgLgIBVGyUkPwJGCotF4GcXpOPMcWyHStQV55+ahpSEKKzeUMnOgSHW5nRje2klKmw6ePRiDYxCmAuAsD+ItWgc+xspoq0CSy4ZwZs/UTdNH5mCZVeMQlw098qEgtcfwM5DlXhnV4E+bv4AoFkGhvuSYf/pksLC7a4RICbKgqWXjcK0kSmqoxAZ0oQhibjn6jFIjGODrGDpbN/bhLe25yOvohaapqPHLEIL+71RQXkp2evV5GKjLbj98lGYlJ6kOgqRoY0cEI+7rxqD5Dilc9tMoaa1He/uKsKmfWVw+Xyq4/wvgYRwXzLsBYCQPP9nZomxVtx79RieayYKkuH94nDPnNFIiWcR0BNfjen9KGc/mu1O1XG+nQz/+Sg+YKKgiYuxYNmVozFyQLzqKESmMrRvHO6dM4ZFQDf4Axr2Hq7Gmh35KKmzqY6jSywAKChioiy4/bJRGMWbP1FIDO4TizuvGs09AScjgbLGZry9swB7jlQjoPEkxbdhAUC9FmURWHzJCIwfwmV/olBKT4vD3VeNQSInZx5XY4cDH+Tsw/rCUthD3b7XBFgAUK9YLQKLLhmBKcM51IcoHIb3i8PSy0chhu20v+b0+LD5wBG8v7sY9W0dquMYBn+CqMcsQuDW2ek86kcUZuMGJWDRxSNgsUT2nmpNkyisqsPbO/Kxv6YBkl1mu4UFAPXYD88ZitPHsskPkQoZI5Jx8/nDIvZYVYWtBW/tzEd2SQW8oRrTa3LcUko9ctnU/uztT6TYWeP7osMVwDs7alVHCZtWhwvZpRWoam5THcXwWABQt80cnYrrzxiiOgYRobMYt9m92Fhk7qNuHp8fe4+EfUyvqbEAoG4ZNSAet8xO50hfIh35wVlDYOvwIb+iXXWUoNOkxMHaRuwqq4Lb51cdx1S4B4C6rH9yDG7n7mMi3bEIgfkXDUd6P3N1Wq9uace7uwux+cAR3vxDgO/k1CUJsVbcceUoJLMTGZEuxUVb8PPLRyElwfi/o20uD9YXluLj3P1osbtUxzEtFgB0UkIA82YPx+DUWNVRiOgE0hKjcdslIxFl0OOBvkAAew9X4587C1DW2Kw6jumxAKCTmnvaIGSMYKMfIiMYMygBN55lrE26X43pXbM9n+17w8j4a0UUUlNHJOPqGQNVxyCibpg9qR8qbG5s2a//T9EN7Q5klxxBQ7tDdZSIwwKAvtXAlBjceuFw7vgnMqAfnj0UlTYXyhv1+Qzd4fFiV1klSuptYAM/NfgIgI4rOsqChZeMQEIMh44QGVG0VWDxJSN1NzjIH9CQV1GLt3cUdI7p5c1fGRYAdFw/OXcoRvTjaF8iI+uXFI2bzhumOkanY8b07jxUCR/b9yrHRwD0P2aOTsVZ4/uqjkFEQXDa6FRcOKkfNhar6xTY1OFAdkk56trsyjLQ/2IBQN+QlhSNm87XyScGIgqKG84cgtJ6Bypt7rBe1+n1Ys/hGhyobWD7Xh3iIwD6mhDALRcM53N/IpOJsgrMv3AEosPUxVOTR8f0bi/oHNPLm78usQCgr105fSBOGZqoOgYRhcCQvrG4btagkF+nwtaCt3cUcEyvAfARAAEARvaPx5zTeN6fyMwuntIf+RUd2F8T/GfxrU4XtpdWoNLGMb1GwRUAQrRVYN5Fww3bPpSIukYI4Gez0xEfxMd8Hr8f2SXl+OfOQt78DYYFAGHOaYPY558oQqQlRuP67wzu9etoUmJ/TQPe2pGPwqp6aHzQbzh8BBDh0tPicNnU/qpjEFEYnTcxDXvK2rCvumePAmpa2pFdUo5mhz67DFLXcAUgglmEwM3np8PKpX+iiCIA3HTeMMR281RAu8uN9YWl+Ch3P2/+JsACIIJdktEPIwew2x9RJOqfHIM5M7u28dcf0LD3cDXe2VnIMb0mwkcAEapfcgzmzgz9kSAi0q9Lp/THjtJWVH1bgyAJlNQ3YeehSji9vvCGo5DjCkCEuunc7i//EZG5WCwCPzxrKI73ELCx3YH39xZj074y3vxNiisAEWj6yBRMSk9SHYOIdGD8kER8Z1wfbC9tBQA4PD7sKqvgmN4IwAIgwkRZRFCOABGReXz/zCHYe6Qdu8qqkXOkhpP6IgQLgAhz8ZT+GMQz/6bW7vLD1uFFk92HVrsPHW4/7G4/7J4APD4NvoCEz699/eeFAOJjrBAA4mOtiI2yoG9SNFLio9A3MRqp8VEYmBKLxDjOiDAjKYGtBxrx4d4iVNg6VMehMGIBEEFS4qNw9Qy2+zULX0CivNGJCpsb1c1uVNncqGl1w+PTTv7FPZAcH4VhfeMwpE8shqbFYVT/eAzvFwcLj5EaVnF1B5a9th3rCipURyEFWABEkO/OGoS4GG78MyqfX8PBWgf21dhxqN6J8kYX/Fr4HtJ2uPzY77J/o498bLQFYwclYPygRIwbkoixgxLYUtoAbHYvnni/ECs+yYEWmnqRDIAFQIQY0S8e55ySpjoGdVOr04ecw+3Ir+zAwVrHN5bu9cDj01BcZUdxVWdREB9jxZT0JEwblYIpw5M5WlpnvH4Nr28+jHvfzEar06M6DinGAiBCfPf0QRD8YGYIdrcfu8vasLusDSV1DkPNUnd5A9hV1oZdZW2wWgROGZqIs8b3xWmjUsI2i57+lwSweX8Tlr68BYVVNtVxSCdYAESAsYMSMGV4aiMiSQAAIABJREFUsuoYdBLlTS5s3teM7NJW3X3S74mAJr9eHXgzxoIZI1Nx5vg+mDgs6bjnzik0jjQ6ce+bu/DPnaWqo5DOsACIANfOYsc/vfL5NWwracW6gibUt5l3Sdbt1ZBd0oLskhaM6B+Py6b2x6zRqdxAGELtLj+e/ngffvvebvgDxi8oKfhYAJjcKUMTMXEom/7ojcMTwPrCJmwqbobd7VcdJ6wqmlzI2lCJfyXV4eKM/jjvlDTERvPxQLD4NYl3d1bhjle3or7doToO6RgLAJO7lv3+dcXlDWBdQRM+L2yC2xvZn8psdh/eyq7FRzkNuGraQMye3A/RVq4I9MaushYsfWUrdh2qVx2FDIAFgIlNTk/GuMGJqmMQOj+VbSy04ePcBjg87LJ2LIc7gLd31GJ9YRPmzhqEs8b3gYU7VrulpsWNh9/JwUsbi1VHIQNhAWBic09j0x89yCtvxzs76kz9jD8Ymh0+/PWLKvw7vxE/PHsoH111gdMTwMp1JfjVWzvg9kXWoyTqPRYAJjVuUALGDEpQHSOiNdt9eHNLNQoq2V61O2pbPFjx0WGcOa4PbjhzCJLj+Tb13zQp8UluHZa+ugXlje2q45BB8TfLpC6dOkB1hIglJbCx2IZ/7aoLWVveSLC9tBX5lR24/ozBOHdiGo8OHlVU1Y5lf92O9UWVqqOQwbEAMKGBqbGYPjJFdYyIZOvw4qVNVSit4+7rYHB6Anh9czV2l7Xhltnp6JMQrTqSMrYOL373XgGe/iQPknN6KQhYAJjQpRn92fVPgT1lbXh9SzWc3OQXdPuq7Vj+dgl+fN4wnD4mVXWcsPL6Nfwjuxx3vrYNLQ636jhkIiwATCYpLgpnje+jOkZE8fk1vLGlBtklLaqjmJrTG8Dq9RU4UJOGH5w5xPSthSWAL4obcNvLW7Cvhj9bFHwsAEzmwklpiDH5G6OeNDt8WPl5OY40ulRHiRhf7mvG4QYnbrtsFPolmfORQFmDA/e8vhPv7SlTHYVMjAWAiVgsAuef2k91jIixv9qOVesreK5fgUqbG4+/V4rFl47EOBOddmlz+rHi42L87r3dCIRx1DNFJhYAJjJ1RDJSE/gtDYetB1vwxuZqvkkr1O7yY8XaMvzo3GE495S+quP0il+TeCu7Aste24KmDj7np/Dg3cJEzpuYpjqC6UkAH+yux0c5DaqjEDpvnK99WYUWuxdzDdr2euehZix9ZSt2l/FnisKLBYBJ9E2MxuR0dk4LJQlgzbYabCjiPHW9+XBvAzrcAfzw7KGGOQFT2+LGg2v24tUv96mOQhGKBYBJnDsxjf3TQ0iTEq99WY1tB7kbW682Fdvg9AZwywXpsOp4zLDTE8DqDaV4YM12uLxs30vqsAAwAYsQOMfgz0D1TJMSWRsqsbusTXUUOomdpa3w+zUsvHgELDorAjQp8VFOLZa+vAWVzWwPTeqxADCByelJSEs053Eo1aQEXv2iijd/A9l7pB2vflmFWy4YrpvHAYWVbfj5q9n4Yl+16ihEX2MBYAJnTuCn/1CQAP62tRrbS1pVR6Fu2l7SirhoK350zlClOZrtXjzxQQGe/DgXkmMhSGdYABhcTJQFU4cnq45hSh/srscX+5pVx6Ae2lRsQ1yMBd87fXDYr+3xa3hl0yHc97ds2N2+sF+fqCtYABhcxohkxEaz81+wbT3YwqN+JvBpbiP6JcXgglPDd0R2e6kN81Z9ieJqFo+kbywADG5WhA1GCYf91Xa8sZnPas3iH9tqMLhPLE4ZkhjS6xyqd+Cu13fgw72HQ3odomDhR0cDi42yYAqX/4PKZvchc0MlO/yZSECTWPl5ORravSF5fbvbj8ffL8LEe97izZ8MhQWAgU0dmYJYDv4JGp9fwwv/PgK7m2ezzcbhCeCFf5fD7QveTjy/JvHm1iMYfccaPLhmO/wad/mRsfARgIFF2lz0UHtjSw0qbezDblY1LW78fWsNbpmd3uvX2l5qw5KXtyD3SFMQkhGpwQLAoKKtApPY+jdotpe2IruEXf7MLrukBZPSk/CdcX169PW1LW48sGYP/vrl/iAnIwo/FgAGNWFoEmK4/B8UzQ4f/rGtRnUMCpM3tlRj9IB4DEyN7fLXOD0BrFp/EA+u2QG3j+OfyRx4BzGoKfz0HxRSAlkbKuH08E09Unh8Gl7eVAWtCxs9NSnx/u5qTLjnbdz9xjbe/MlUuAJgUBnc/R8UG4tsKK1zqI5BYVbW4MT6Qhsundr/W/9MQWUblr6yDZv3c3WIzIkFgAH1T47p1vIlHV+z3Yf3dtepjkGKvL+nHjNGp6B/csw3/rnN7sXj7xVgxSe5kDwNSibGRwAGxE//wfHmluqgHgsjY/H6tW/s/fD4Nbz4eQlG3fEP/Plj3vzJ/LgCYEBTRrAA6K288nYUVHIka6TLr+jAnsNt6HB5sPilzThQy8FPFDlYABiMxSIwIcQtTc3Or0m8s4NL/wQ0tDsw90+forbVrjoKUdixADCY4f3i2P2vlzYW2lDf5lEdgxRyeLzYVVaJknpb59xnogjEAsBgxg3ip//ecHkD+DiXU/4ilT+goai6HjlHauAL8EgfRTYWAAYzblCC6giGtq6gCQ6e+Y9IFbYWbD1YAbubqz9EAAsAwxnDAqDHnN4A1hfaVMegMGvqcCK75Ajq2vicn+hYLAAMpF9yDPomRquOYVjrCprg9PLTf6Rw+/zIOVKNoup6HukjOg4WAAbC5f+e8/o1bCpuVh2DwkCTEsXV9dhTVg0vn/MTfSsWAAYyZiALgJ7KLmmF3e1XHYNCrMLWguySSrS7ONaZ6GRYABjI8H5xqiMYkgSwvoBz282szelGdmk5Km1tqqMQGQYLAIMQAIamsQDoiQM1dtTx3L8pefx+7D1cjeLqBmh80E/ULSwADCItOQYJMVbVMQxp8/4W1REoyDQpcbC2EbsOV8Ht5aMdop5gAWAQw/ry039P2N1+5BzhsrCZ1LS0I7ukHM0Ol+ooRIbGAsAg+Py/Z3aVtcEf4NKwGbS73Nh1qApljTzNcSIWIXBpxrBevUa7y4vsEmN2zDz3lEFIjO3dcenP8quClEbfWAAYxDA+/++R3WX89G90/oCG/Ipa5FbUIqBxfPPJxMVY8ekvL+/Va+SW2zDjgfeClCi8Xlp4HiYMSe3Va4gfvRSkNPrGAsAgWAB0X6vTh9I6h+oY1FMSKKlvws5DlXB6farTEJkOCwADsAiBgSkxqmMYTs7hdnaAM6jGdjuySypQ3872vUShwgLAAPokRsFqEapjGE5+ZYfqCNRNDo8Pu8oqOKaXKAxYABhA/2R++u8un19DSS2X/43Cr0kUVdVxTC9RGLEAMIB+LAC67UCtA14/N4wZQYWtBdsOlqPD7VUdhSiisAAwgP5JnADYXftr+OxY72wdTmSXlKO2jY9qiFRgAWAAXAHovtI6p+oI9C3cfj9yDnNML5FqLAAMgHsAuscfkKiwsUuc3nw9pvdwNbx+PucnUo0FgAGk8RFAtxxpcrH7n85Ut7Qj+2A5WpwszIj0ggWAAaTE89vUHRWNvMnoRZvTje2lFaiwtaqOQkT/hXcWnYu2CsREWVTHMJSqFrfqCBHP4/cjr7wWBVV10DSuxhDpEQsAnUuK47eou6ptLABUkZAorbNhR2klXD627yXSM95ddC4xzqo6gqFIADWtLABUqGltR3ZJBZrtPIFBZAQsAHSOKwDd0+Hyw+NjA6Bwcri92HW4EiV1NtVRiKgbeHfRueRYrgB0h62D3eTChWN6iYyNBYDOJXIFoFuaWACEngTKmpqxo7QSdrdHdRrTueWCCb1a+Yu29n7TcP/kONx++aRevcbB2nZ8ll/Vra+ZM2MERg9M6tV1+yT2vm9Kb//dWxxevLGltNc5Qo13F52Li+EJgO5ocfhVRzC1xg5H55hetu8NmcdunImhfROUZkhPS8SzN5/Vq9d4a/vhbhcAiy+ZiKtnDO/VdYOht//uJXXtLACo94JRzUeSDjcLgFBwenzYc6QaB2oaITmnl8gUWADoHO//3eNgARBUmiZRXFOP3WXVHNNLZDIsAHQu2sIKoDvsbt6kgqVzTG8FOvicn8iUWADonNUqVEcwFDePAPZaq8OF7NIKVDW3qY5CRCHEAkDnolgAdIs/wAKgpzw+P/Ye4ZheokjBAkDnoiwsALrDz77z3aZJiYO1jdhVVgW3j3soiCIFCwCdYwHQPSwAuqe6pR3ZJeVocXCCIlGkYQFAFIHa7A5szy1ERVMzkJgKRPGtgCjS8Lde5/iJtnu4YnJiXq8PufsPovDgof+07/U1AHEJQEIKwFMnRBGDBYDOsQDoHhYAxychUVpeiR15RXD997E+CcDlBNxuIDEZiE9UkpGIwosFgM75AywAuiOKnZP+R21jE7JzCmFrbT3xH5QaYG8DXA4gKRWIiQ1PQCJSggWAzgVYAHRLPGcnfM3hdGFXYTFKyivRre69AT/QZgNiYzv3B1j5NkFkRvzN1jkfx6x2C6cnAv5AAPn7S5C3/2Dv+iJ4PIC3EYhPAhKSAMHHK0RmwndLnWNfm+5JirOqjqCOBMqqq7Ejrwh2hzNIrykBZwfgdgIJyUC82il1RBQ8LAB0zscKoFuSYiPzR7qppRXbcgpQ32QLzQW0AGBvBdwOIKkPEB0dmusQUdhE5rulgbi8LAC6o29iZP1IO91u7CnajwOHysMzptfvA1obgdh4ICkFsETwikuIPPTWHiT14lFWtNWCP//kO73KUNXswB8/zO/Vaxysbe/216xctx+f5Vf16roPXTcdA1Pie/Uad/w1u1df3+Lw9urrwyWy3i0NyM7xtt3SPzlGdYSw0DQNxYcOY0/Bfnj9vvAH8LgAj7tzbwD3BwTVK18c7NXXJ8RG9boAaOpw47nPinv1Gj2xNqei16/x88sm9boAUPHvrgILAJ1zcLxtt/SLgAKgoqYO23IL0GF3KE5yzP6AxOTOZkJEZBgsAHSOKwDdkxwfhdhoCzwmHAvc2tGB7TkFqKxrUB3lm7QA0NHauSqQlAJYuT+AyAhYAOic3cMVgO4QAIb1jUNZQ5B2weuAx+vF3qL9KC49DE3Pc3q9HqC5EYhNOLo/gD0ZiPSMBYDOcQWg+4almaMA0KTEwbJy7CoshttjjE1FAACPE/C5j/YPSERnWUZEesMCQOf8AQmPT0NsND9NddWwtDjVEXqtuqER2TkFaGnr/k5qXdA0wNHeuT8gKQWIMf73hMhsWAAYQIfbj9ho829uC5YR/Xu3A1ildrsdu/L3oayqWnWU4Aj4gbbmzrkCHDtMpCv8bTSAZrsvYo63BcOo/vGItgr4DDRHwe8PIP9ACXL3HfzPmF4z8XqOjh1OBBJTeGyQSAdYABhAU4cXE4ZwRGtXRVkFRvSPx6F6/e8DOOGYXrOR6Jw06HEdbSvMn2kilVgAGEBTh4E2gOnEuEGJui8AGm2t2JabhwZbi+oo4aUdHTvsdnaOHebjLSIlWAAYgM2uoNObwU0cmojP8htVxzguh8uNXQVF3R/TazZ+H9DadHTscB/AyrbCROHEAsAAuALQfROGJiEmygKvXz/P0/2BAIpKypBTfAA+P493fs3jAbwNnY8E4pMBC/cHEIUDCwADsLEA6LZoq8CEIYkorOxQHQXA0fa9e/PR4dT3YwllpAScdsDtYlthojBhAWAArQ4//JpEFD8ZdUvGiGTlBUBTSyuycwtQ1xiiMb1m81VbYZeD+wOIQozdZQxAkxKN7VwF6K7TRqXCoui4mdvjRXZOPt5bt4k3/574an9Ae2tnUUBEQccVAIOoanZjSJ9Y1TEMJTUhCuMHJ+BAbfim5mmaRPGhMnVjes3G4wS8rqNthTl2mCiYWAAYRHWzG6ePSVUdw3Bmje0TtgKgur4R23Ly0dquj30HpiGPjh32HN0fEGvcTo/h4PYGcMUTn/XqNdpdxl1xnJe5GYmxnEjZFSwADKLK5lYdwZBmjU7FW9k1Ie0K2NZuR3ZeASpr60N2DUJnW+H2FiD66P6AKL7JH48mJT7Lr1IdQ5ktB/h72FUsAAyiutmlOoIhJcZZMWNUKnYeag36a3t8PuTtO4iCg4egmbF9r175vEBLIxCfcLStMLcyEfUECwCDaLb74PQGkBDDZinddd7EtKAWAF+1792eW2isMb1m43J2HhtMSObYYaIeYAFgEBKd+wDGD2b/9O6aMDQRg1NjUdfW+177NQ1NyM4tQHNrWxCSUa9J2Tl22OPsnDYYw42yRF3FtTMD4T6AnhEALsno36vXaLc7sH7bLny0aQtv/nrk9wNtts6/AuyySNQVLAAM5FADu8j11FkT+iIlvvsLXn5/AHuL9uOdzzagrKo6BMkoqLweoKWhc9iQ5L4MohPhIwADOVQXvvPsZhNtFbjg1DR8uLeha18ggZKKCuzMK4bTzZUXQ+HYYaIuYQFgIDa7D80OH9ISefypJy7O6I/1RTY4PSfuLNfY3ILsnALU25rDlIxC4uuxwy4gKYVthYn+Cx8BGIzeZ9zrWUKMFRdP+fa9AA6XG5t27sF767/gzd9M/N6jbYVtgMb9AURfYQFgMHwM0DuXZfRHctw3F778AQ15+0vw9qfrUHKksnMJmczH4wFsjZ2nBiS/yUR8BGAwpVwB6JXYaAuunD4Ab22vBXB0TG9OPjoc/O8aGTh2mOgrXAEwmKpmNzw+7m7ujQsn90Os8GLths34bMt23vwj0Vdjh1sbYeWxQYpQLAAMRtNkWKfbmZHVInBFRgpqmzimN+L5fFjz8/Px4Z0XYmQaVwMosrAAMKDCSk6b662rvzMec84crzoGKTbnzPG4/rxTMeeMMSh68vv49ZxJiGe7bYoQLAAMiAVAcKy682qkJrJ1bKRKiI3Gs0uv+Pr/J8ZF49EfnYWDT16Pn541EoKjBcjkWAAYUFOHNyh97SPd0H7JeOyWC1XHIEV++7PZGD24z//88/T+yfjr7Zdg4y8vw/ThqQqSEYUHCwCD4ipAcNx2zSycnzFCdQwKs7MmpeOO68444Z+5IGM4dj9+PVb+9HQMSGITITIfFgAGVVRpVx3BFCxC4M0HrkNacrzqKBQmqYmxePOB6xBlPfnbn9UisOiKqTi44gb84sqJiI3m/gAyDxYABnWw1g6vn8cBgyF9QApW3Xm16hgUJi/ccdVxl/5PpE9SHJ646Rzk//4azMkYEqJkROHFAsCgfAGJoiquAgTL988/FbdeMV11DAqxn146FT+6aEqPv37CsDR8+MBVWHvXbEwYyCFDZGwsAAxs96FW1RFM5S+3X4mZ4/npzqymjBqI539+ZVBe6+rTx6LgyRvwpxumIbUHY6aJ9IAFgIHlVXTAw8cAQRMXE4V3l9+AAalsCGM2/VLi8a9HbkByQvA288VEWXHvdbNw6Kkbsezi8bBaeG6QjIUFgIF5/RoKKngaIJhGDEzFmoeuR0wUN3uZRXSUBf/8zQ0YNzQtJK/fLyUeT887Hzt+cxXOHdsvJNcgCgUWAAa3u6xNdQTTuXD6KLx6/zVsBGMSzy69AhdMHRny68wcPxibf/tdfHjnbIxiW2EyABYABldQ2QE3hwMF3Q8vnIJf//h81TGolx744TlYPGdmWK8554yxKPrz9/HwnEmI57FB0jEWAAbn82vIL29XHcOUlv/0AiyZG96bBwXPbdfMwu9vvUjJtRNio/HIj85CyYrr8dMzR3A1iXSJBYAJZJfyNEAoCAE8f/uV+OmlU1VHoW666ZKpeO7nV5z8D4bYsH7J+Osdl2LTA5dhBtsKk86wADCB4qoO2Ow+1TFMySIEXr73Gtx4wSTVUaiLvnfuRLx871xYdPSx+/wpw7H7ieuRefPpGJjEAVSkDywATEBKYOuBZtUxTMtqEfjbg9/DLZezUZDe/fjiDPzjV9d3qc1vuFmEwILLp+LQMzdi+TVT2FaYlNPfbwn1yNYDLdCkVB3DtKwWgZfumYtlJxkgQ+osvWYWXvvFtYiO0vfbWlJ8DH7zf99Bwe+vwQ0z01XHoQim798U6rIWhw+FHBAUUkIATy25HL+56Xxu6tKZR26+AM/ffqWulv1PZvywNLx1z+X46K4LccrAJNVxKAKxADCRLfv5GCDUhOg8HfDKvdewWZAOxEZb8cp91+Dhnxj3yOZVp49BwZM34M83TkdqHNsKU/iwADCR/MoOtDq5GTAcbr5sGj59/Efoz7bBygxJS8LGJ3+Kn102TXWUXouOsuDu787EwRXfx4JzRxtqJYOMiwWAiWiaxBf7uAoQLhdOH4WcFxfgOxOHqY4ScaaPHYzsZ2/FWZPM9Qx9YJ9EZN52EXY/ejXOH8e2whRaLABMZlOxDV4OCAqb9AEp2PTnn2LelTNUR4kIQgBL5s7EtmduwchB5j1XP2PsIGx65Lv4x5JzMKJvvOo4ZFIsAEzG4Q5g68EW1TEiSlxMFLLunoN3Hv4+0pL5Zh0qA1IT8N4jP8ALd1yF+FjzPysXAvjBeROxf8WNeOL6qUiOgH9nCi8WACa0vqCJRwIVuP68U5GzckFYBs9EmstmjkFe5iJcc9YE1VHCLj42Cr+4/nQU/fE6/N/MdJ5AoaBhAWBCDe1e5JZzTLAKIwamYsOTN+Evt1+JlAR2fOuttOR4ZN09B58+/mMMSYvso3LDB6Tg7/dcji8fvBynsa0wBQELAJP6d36j6ggRyyIEbrtmFoqyFuPas09RHceQhOjs57/v5SWYd+UMfuo9xrmT07Hrieux+uYzMCg5RnUcMjAWACZVVu9Eab1TdYyIlj4gBe89ciM++f2PMHF4f9VxDGPSyAH4/A8/wWu/uBYD+ySqjqNLFiEw//IMHFhxI+69bAJirKyQqPtYAJjY2j31qiMQgCtOH4v8zEV4+rbL2TfgBEYMTMXL985FfuYiXDxjtOo4hpCaGIs//ew8FDz+XVw9eaDqOGQwLABMrLjajpJah+oYhM5GL8uuOwNlr92OR2+ejT5Jcaoj6Ua/lHj8edGlOPDKbbjl8umwWvhptrsmpKdh7a/m4pN7LsLEQVw1oa4Jey/TmXOXXACBC8N93UjV1OHF2RP6qo5BR8VGW3HB1JFYNGcm4mOjUXSkEU5PZHZvHDWoD5bffAFeu/9aXDBtpC4n+BnNuKF9seiSSUiLAXaUNcHNniBGsgmFH3wRzguyADA5m92HcYMTMSCFm4X0JD4mCrOnjcTPrz0DwwekoqSmGbZ2l+pYYTFz/BCsWHwZVt55Fc6elI4YjsUNKqtF4MyJQzFv9gS0tzuQW9UKngo2hLAXAOwsEQH+tasOE4eNAxdW9Sc+NgqL5pyGRXNOw56SWmR+tBdvrCsw3apAamIsfjB7Mn566VScM3m46jgRYUBqAlYuuQjL5thw11+34bPiBtWRSGe4AhABWp1+jB6YgEGpPJeuZ0P7JWPumROwZO5MjBncF06PDxUNbYb99BYTZcWlM8fg0Z/Nxkv3zMV150zEiIE8vx5uA1IT8JPzT8HkQYnYWdqANrdfdSQ6Pq4AUGi8t6sOk9OTOGXMANKS479eFahrtuNfWw/g450l2JBzRPcrA32S4nDl6eNw7dkTcMXp45CayKJTL2449xTMOX0snnxvN/7wyX44vAHVkUgxFgARotLmxtYDLThvYprqKNQNg9OSsGTuTCyZOxNurx+bCyqwPucwthZVYteBGnh8at/EUxJicfbkdJwzeTjOyxiBsycNR3QUN/PpVXxsFH79gzNxy8WT8IvXs/H33VWGXWGi3mMBEEHe212PWWNSER/DTVdGFBcThUtnjsGlM8cAADy+AHYfrEHuoXrkl3X+VVTeiA6nNyTXH5yWhMkjB2DyqAGYPHIAzpg4FBmjB/HYngGl90/Bm3ddjqXF1Vj2WjZ2V7SpjkQKsACIIB0uP97dWYMfn8tNWGYQG23FOZOH/8+musY2Jw7XtuJIfSsqG9tha3eisdUJW7sLHS4PPL4AnO7/PEoQonPp3iIEUhPjkJwQg/T+KRjUNxHpA1IwuG8Sxg3ry0mHJnT2pGHY8fj1eHVdIe5/ay9sDu4PiCQsACKEP6ChqOQQ/vZBKWaNnIdThvdTHYlCZEBqAgakJuCMiUNVRyEDsAiBq2eNwT0vfgYErEBCMjh8ITLwYV0EqKipwzufrMPO/CI43B7cm/m56khEpCP3rvocrR0uwGkHmhsAN+eIRAKuAJhYU0srsnMLUNdo+8Y/X7u9BJ/uOoQrTh+rKBkR6cWXBRV4c0PBf/6BFgA6WgGXA0hKBaLZRMysuAJgQm6vF9k5+Xhv3ab/ufl/ZfEzH8HuCs1mMSIyBn9Awx3Pf3r8kwB+H9DaBLS3dhYFZDosAExE0yQKSw5hzUf/RmFJ2QmP95TXt+Hhv24KWzYi0p8V72xHXtlJpoZ6nJ2PBRwd4JlBc2EBYBLV9Y14998bkZ1TAK+vazt5n3l3J7KLq0KcjIj0qKS6Gctf72LjOSkBZwfQ0gh4ImNmRSRgAWBwbe12fLo5Gx9/sRUt7e3d+lpNSix6+iP4ODGMKKJICSx55mO4PN089hfwA+0tnY8G/PruSkknxwLAoDw+H3bmF+Gdf29AZe1JlvBOoOBwA/741rYgJiMivVu5dg/W5xzu+Qv4vJ2rAfZWQPIDhFHxFIDBSEiUlldiR24RXB5PUF7zsTc34/rzJmLi8P5BeT0i0q+Khjb8Mmt9cF7M5QTcLiAxBYhPDM5rUthwBcBAahoa8e6/N2HTjr1Bu/kDgNvrx48ffw9eP3f6EpmZJiV+9qcP0O4M3vsHpATsbUBLA+B1B+91KeRYABiAw+nCpp178NGmrWhuDU3P7r0ltfjNX8M6iZKIwmzFO9uxMfdIaF7c7wfamoF2GxDghwkj4CMAHfP7A8g/UILc/SUIhOEX6o9rtuHSmWNw0fRRIb8WEYVXcXkjfv3qptBfyOMBvPVAXCKQmAyqtiWwAAAct0lEQVQIfs7UK35n9EgCZVXVeOvTddhTtD8sN3+gc3nw5j++j+YOHvMhMhO3148f/v5fcHvDNOxHorOTYHND599Jl1gA6Exjcws+2Pgl1m/bBYcz/DfiqsZ2LFixNuzXJaLQuXvlv5F/soY/oaBpR/cHNHWeHCBdYQGgE06XG5v35OL9dV+ivqlZaZZ3t+zHy5/mKs1ARMHx9pfFePHDPWpD+L1H2wpzf4CecA+AYl+N6c3ZdwC+LnbwC4elz32CaWMHYeb4IaqjEFEPHapp0deKnscDeBqAhESOHdYBrgAoVFFTh3c+7RzTq6ebP9D5zPCGR9/hfgAig3J7/fjBY/9EmyOIR/6CQnaOHW7h2GHVWAAoYGttxdoNm/HZlu3ocOj3F+BwXSt+8Ng/EdA4AITIaH7+/KfYU1KrOsa3CxwdO9zS1PmIgMKOBUAYfTWm91+fb0Jt0/HH9OrNur2Hsfw19gcgMpLn3tuFlz7JUR2ja/zeziKgvbVz0yCFDfcAhIGmSRQfKsOewn1dntSnJ7/722bMGDcY3zt3ouooRHQSW4sqce+qz1XH6D6PE/C6gPikzv4BFHIsAEKsur4R2bn5aGnrUB2lx6QEbn3yA5w6oj9OHcF5AUR6VV7fhu8tf9u4bb2/GjvscXUWAbHxqhOZGh8BhEhbhx2fbdneOabXwDf/r7Q5PLjqwb+jvoVNPYj0qMPpxTUPr0FDqwl+R78eO2wDAhw7HCosAILM6+0c0/vPzzagoqZOdZygOlLfijkP/R0ON38hifQkoEn86PF31TT7CSWfB2g+OnaY+wOCjgVAkEhIlJRX4K1P1iFvfwkCJv1h3X2wFv/3O54MINKTO/7yKdZuL1EdI3RcTrYVDgEWAEFQ29CEf30W/DG9erV2ewnuyzTgJiMiE/rDmm144YPdqmOEnjzaVri5AfCa/302HLgJsBccThd2FRajpLyyc/hFBHnqnzswZkhf/Pza01VHIYpYr3yWiwdeWq86RngF/ECbDYiNBRJTAStvYz3F/3I94A8EkL8/fGN69WrZXz5DWnI8fnTRFNVRiCLOh9sPYuFTH0FG2IePr3k8gKcRiE/g2OEeYgHQHRIoq67Gjtwi2J367eAXLpqU+Nmf3kdiXDSuPfsU1XGIIsbmggr84LF/wh8w516jrpOd+wI8LiAhpbMYoC5jydRFjS2t+GDjZqzftos3/2P4/Bpu/O0/8fHOUtVRiCJCTmkdrn14DVwe4zUVCxlN6zwp0NLIscPdwALgJJzuo2N6P/8C9QZp3xtuXn8A33/0bXyRX646CpGp5ZXV45L730CL3a06ij75fUfHDrcAWuQ+nu0qFgDfQtM0FJYcwtsfr8f+Q0cgI22XXze5PH5c8+s12HWgRnUUIlMqONyAS+5/gxM6u8LjAmwNgKMDkbtJ4uRYABxHRU0d3vp0PbJzCuD1s+lNV7U7Pbjigb+xCCAKssIjnTf/pjY+fuy6o22Fmzl2+NuEvQCQQr8fpZtb2/DRpq2dY3rtbDjRE80dLlx03+vYkHtEdRQiU8gprcOF975ujha/KmhHxw63Num7rbAI/1KFghUAobuHV55jxvTWNDSqjmN4dpcXcx/6Bz7bfUh1FCJD23Wghp/8g8Xn7WwrrNexwxJh/yareARgV3DN49I0icKSMqz56HMUlpRB47OioHF6fLj24TV4f9sB1VGIDGlj7hFcdN/rfOYfbB4n0NIAOHVzK+okLWFf4lFQAGi6+Ihd3dCIdz/fiOycfHh8Ol4WMjCPL4DrH3kbr32erzoKkaG8t/UArn7o77C7eKQtJDQNcLR37g/QT/v2sE9yCnsjIItmKdcs6j5pt9kd2J1fjLKqamUZIklAk7j1yQ/Q4fJi6TWzVMch0r0XP9yD25//hAO3wiHgB9ptQMzRtsJRCnvjSRH2c9QKCgB5SLNAAhDhvK7X50dO0X4UlpZB0+PzHxMLaBI/f+4TlFTZsGLJZbCIsH7riQzjD2u24ZdZEdbbXw+8HsDXAMQlAokpQPjfoyTiRVm4L6rknXhBZn4ZgNHhuJaERGl5JXbkFcHl1s1ST8S67pyJeOOB7yIhNlp1FCLd8PoDWPjUR/jrv/NURyGLBUhIBuITw3nVMvx9/thwXhBQ1gdA7A3HVWqbbPjX50fH9PLmrwv/2rofF977GupbeKSJCOg8Onv5L9/kzV8vtKNjh8PbVnhPuC50LCUFgJD4MpSv73C6sGnnHqzduBm2lrZQXop6YOf+Gpx1x8vYV9GkOgqRUiX/396dR1dVnnsc/74nYZ5RcURBcQar4ISiRUiCVrkdVrWrt9LWscsJggNSyLAzAFoHgvXWatW2ai/e0t7bKoqSE4gVRVHBiKAMMsggkwyBhATO2e/9I6AuyxBIznn3Puf3+SdrIYYva0H2w86797NmM5eM+COVVXqNduB89VrhLyHRW1+tfSOxv8C+ORkA/Ajlifi8sXicqk+XMOW1CpasWEVwXzkky9dtpf/wZ3n5ncWuU0SceHXOUi688xkWrdKOkUCrr294bLCmGhJ1MNPahFwTD8bZaaxbnvpoOdCjWT6ZhaWrVjPnowXU1OqZ2TAxBkZddwnjbhxERkSHAyX1WQu/+evbjHlmht49EjaRjD3nA5p17bCT7/+Dg6cA9jLWTLHG3tfUz7Npy1Zmz/uIdZs2N0eWJJm1DSef5yxay4tjf0S3zkk9eCOSVNtrd/HLh/7J/8761HWKHA4/3rB2uK4G2neGFs1xmNn8tRk+yWFxtgzIWJr0m66tq+ON9+bxj/I3dPFPATM/XMHFdz3Lh5+tc50ikhBVy9Zz/h1P6+KfCmK7YevG5lk7bK2zAcDpPddbnqqaB+bcQ/l/fN+y8LNlfDD/U23qS0FtWmXy+J1XceOVh/THQiTQfvfS+9zzZDl1u2KuU6S5GQNt2kPb9ofz/oAqJt/s7Iudw9cegTXmaWN5vLE///O165j94XyqtakvZe2sj3HTIy/zyrtLeGrkNRzRsY3rJJHDVl1bz60TX+F/Khe4TpFEsXvWDtfVQrsO0PqQzgc8kaisxnB6B+DGZz7tkBHftQLoeqCft2VbNbM/nM+a9YFYIyBJ0v2ojvx51Pe54twerlNEDtmb8z/n5w/+kxXrt7pOkWRq2arhbYKZBz0f8CWx+h5MucPZViLnx65v/kPVGGPNuH39t/rdu5n78ScsXLpcp2XTlDEw/AcX8ptbs2iZmeE6R+Sgdsd8xk+eRckL/9L7/NNZq7bQvmPDmwX3yf6aybc8kNSmb3E+AAx7rqpd6zqzDOi298d8a1m8bCXvfbyQunptwxLod+qxvPDrH3BG9yNdp4js14efrePnD/6T+cs3uE6RIDCm4bHBtu341uV2E23MyTx703ZHZUAABgCAW5/8aJQ1PAiwdsMmZs/7iM3bql1nScC0bpnJ2P8cwP0/uZQWmc4eYBH5N/W740yYPIsJk99iVyzBb42T8MnMbNg22LLVnh8wo5h800NOmwjIADDsuap2/ua6D2fNreq1cq0eA5MD692jG0/fcw0XnXG86xQRZi9czS0Tp7Jghc4oyUG0bLmL9p220KrdKTz/c+en2QMxAACQXfxLLH90nSHhkBEx3PWDCym94QratdZmQUm+6tp6xj47k9+99L7OKEnjWftLKgr/7DoDgjQAAGQVTwOudJ0h4dHj6M781/Cr+N6FvVynSJqwFibP/Jh7nyzni83ODnBLOFUQzc8GE4iJMWADgHciRD4GOrhOkXDJ6tuTstuGcHaPo1ynSApbvPpL7nr8NaZ/sMx1ioRPNfh9iHqfuw7ZK1jPVS2r3MYpg6qB77lOkXBZ9sVW/jBtLlt21HHRGcfTuqXTd1xJivmyeidjnpnBDQ+/xJI1evW4HAZDLtHCCtcZ3xSsOwAAnhfhzUg5hkGuUyScunZoQ+Gwy7n9P84nM0NPC8jh2xWL86fXq8j740w2bqt1nSPhFSWanxOUW/97BW8AAMjxumEjH2A5wXWKhNc5Jx9N6Q0DGXrxaa5TJGR8a3lx5gLGPjtTb/KTplpFi8x+TBsTuMdEgjkAAAwu7o9hBtDadYqE24VnHEf+zy7nmotPdZ0iIRCdu5xRf4gyb6keSZYm24kfGciMvDmuQ/YluAMAQHbRtVjzIg7XFkvqGNC7O6U3XMF3zznJdYoE0KtzllLwp0o+WPKF6xRJDT7Y64gW/t11yP4EewAAGFw8HMMk1xmSOgaf15PCYZdzWZ8TXaeIY761/OOtRUyYPIv3F+vCL83GAsOJFjR6260LwR8AALKKc4GJrjMktfQ99Vhyf3QhP72itw4LppndMZ8XKz/mgRffZuHKwH1rVsLNYsxIyvMD/w/XcAwAAFnFdwKT0LcDpJn1PKYzuT+6iJuuOk9vFUxx22rq+fP0Kh752zt8vmGb6xxJPXEwdxHNf8J1SGOEZwAAyC76Idb8BWjjOkVST9cObbhtaD9uG3o+xx+pd1GlkoUrN/LYP+bwfPl8aut3u86R1FSLMT+lPP8l1yGNFa4BAGCwdxYmMgU4y3WKpKaIMQw6rwe3Xt2XH156hr49EFL1u+O8NHsRT70yl4p5y9Hr+iWBFpPBdbxeUOU65FCEbwAAuMrryK7IJAy/IKy/BwmF44/swI1XnstNV57HSUd3cp0jjbBgxUaenjaP56Mf8WX1Ttc5ktosxjzL7ngulV7oFkOE++KZXTQYa54A9IC3JFTEGLL7ncz1WX34fv/T6dC2pesk+YZ1m3cweeYCXqiYz1w9xifJsQRjb6M8WK/3PRThHgAA+j3Zgq4bbsfaIkD/RJOEa90yk6su6MVPBp7FNRefpoODjmzevpOXZi/mxZkLiM5dRtzXPX5JihqwD9OiywSmDa93HdMU4R8A9ho8/ggisQIsdxC0JUeSstq2asHVF53KTwaexZUX9NIwkGAbttbwf7MW8fdZn1BZtYLdMd91kqQPC+YFYvFRVHop8ZrI1BkA9hrk9SUSKQMuc50i6SUzI8LFZx7PNRefRlbfnvTtdSwm9f6GJd3ClRt5+Z0lROcuo7JqJbG4LvqSZMbOwWaMIJr3juuU5pS6X55yioYSN49h6OE6RdLTSUd34soLTuGqC3pxxbk96Ni2leukUFi9sZqZVSuYMW8Fr73/Ges2h+5slaSONcAYovnPB22TX3NI3QEAoP+jbWhfMxxr84D2rnMkfWVEDL17dGNA7+5ccnZ3LutzIt2P6ug6KxCWrt3MO5+s4Y2qlVRWrWTp2s2uk0R2gn2MmC0N4+n+xkrtAWCvQaXHE7ETwF5PuvyeJfC6H9WRAb1PpP9ZJ3DOyd045+Sj6dI+tZdfrt9SQ9Wy9by3aC3vfLKadz9Zw8Ztta6zRL5pKpn+XbzmrXAdkmjpdTEcVHohkfgkMBe7ThHZl+5HdaRPz2706dkwEPTp2Y3TTjiCVi3Cda516446Fq/ezKLVm/h4xUaqPltP1bL1up0vAWbmYm0uFQVvui5JlvQaAACwhqySYcCDwDGua0QOxhg4tmsHeh7TmZ7HdKbHNz6e2K0jR3dun/T3ElTX1rNm03ZWbaxm1YZtrNpYzYr121ixbiufrtrE+i01Se0RaYIvMaaEzqc/zpTr4q5jkikNB4A9ch5qh197H5jRgE5nSai1zMzgiI5tOKJjW47o2IYjO7XlqE5t6dSuFRmRCB3bNfwRb9uqBa1aZGAMdN7z7Ya6XTF21se++lzbaurZsXMXNXW72L5zF1t31FFdW8/6LTVs3FbLxq011O9Oq6+Tkpp2Y3gC27KA6Oi03AyVvgPAXkO8XsQzxoO91nWKiIgkRRTrj6DCW+g6xCUNAHvllAzCt2VAH9cpIiKSEIsw5m7K8191HRIEWnO21/T8GcT8vsCvgI2uc0REpNlswZjRdPHP0cX/a7oDsC9XT+jCrt0eltuBTNc5IiJyWHwwfyESv5fp3gbXMUGjAeBAcrwzsJFHsVzlOkVERA7JTKyfS4X3keuQoNIA0Bg5RUPxzUTgFNcpIiJyQKuAPKIFz7kOCToNAI319drhYkDvcBURCZaGNb0x+wCVXp3rmDDQAHCohow7lnjcA25Ca4dFRFyzYP5GxNzD9LxVrmPCRAPA4cop7tfw2KAZ4DpFRCRNvYcfyWVG3tuuQ8JIA0CTWEN28Y+x5iHgJNc1IiJpYi1QxAD/aTzPdx0TVhoAmsNQry11GXdp7bCISEI1rOnd2Xocb92/3XVM2GkAaE4DvRPIzBivtcMiIs1uKhEznOn5y12HpApdpBIhp/gifCYBF7lOEREJN/MhETOC6Xn/cl2SavQq4ESYXvAuA/xLgF8A613niIiE0JcYk0uX08/XxT8xdAcg0QZ67ck092rtsIhIo6T9mt5k0QCQLNklp2IZp7XDIiL7FSVOLjMLFrgOSQcaAJItu2gwNlIGtrfrFBGRgFiMNfdQkT/VdUg60QDgwkAvk8zIjcA44EjXOSIijmzFmAfI7FTGtOH1rmPSjQYAl4Z4XfEjhVjuQK8VFpH0oTW9AaABIAiySs4EOxEY4jpFRCTBKskgl9cLqlyHpDsNAEHSsHa4DDjZdYqISDPbs6Y3/3kw1nWM6D0AwTK98GW6+GdiTC5Q7TpHRKQZ1IItIuafRrTgOV38g0N3AIIq2zsOGykEbkaDmoiET8OaXuL3EvU+dx0j/04DQNBll56P9cuAS12niIg0jn0fY3IpL3jLdYnsnwaAUPhq7fDDwImua0RE9uMLwNOa3nDQABAmQ7227DSjwNwPtHadIyKyxy4MvyfTz2eap/NLIaEBIIxySrvj23Fgh7lOEZG0NxX8EUS9Za5D5NBoAAizrJKBWFuG4TuuU0Qk7XyKNSOpyH/NdYgcHp0uD7NofiWX+X1pWDust2mJSDJsxphcYn4fXfzDTXcAUsVArzOZZjSYkUBL1zkiknJiwLPE/LFUeptcx0jTaQBINYO90zCRR4BrXKeISMqoIOLnMt372HWINB8NAKkqqyQLY8uwnO06RURCawnGjqW8cIrrEGl+GgBSWb8nW9B1w+1YWwR0cp0jIqGxA+wjtOgyQWt6U5cGgHQwePwRRGIFWjssIgfRsKbXRu6jYux61zGSWBoA0klW8XkNjw2ay12niEjgvEuEEUwveNd1iCSHBoB01LB2eBLQ03WKiDhmWI1lrNb0ph8NAOmq/6NtaF8zHGvHAh1c54hI0tWC/S0xW0qlt8N1jCSfBoB0l+0dh814AOz16M+DSLqYih+5kxl5K12HiDv6gi8NBhdfgGES0N91iogkipkLZgTRvFmuS8Q9DQDyDdaQVTIMeBA4xnWNiDSbTRhTSufTH2fKdXHXMRIMGgDk3+U81A6/9j6tHRYJvd0YntCaXtkXDQCyf1o7LBJmU/FNLjPyP3MdIsGkAUAObnDRFZhIGdhzXKeIyEEtwrcjmVE4zXWIBJvWAcvBVRTOZED8PBrWDm90nSMi+7Rlz5re3rr4S2PoDoAcmqsndKF+1/1aOywSGA1reltk5jFtjAZ0aTQNAHJ4rig5nQz7KPA91ykiacsyA0Mu0YL5rlMkfDQASNNklWSBnQSc5TpFJI0sxdgxWtMrTaEBQJpOa4dFkqUG7MPE7ANUenWuYyTcNABI89HaYZFEsWBeIBYfRaW3znWMpAYNANL8Bnl9iUTKgMtcp4ikgPewjKCiYLbrEEktGgAkcXKKhhI3j2Ho4TpFJITWAGO0plcSRQOAJNbXa4fzgPauc0RCYCfYx7SmVxJNA4Akx6DS44nYCVo7LHJAU8n07+I1b4XrEEl9+kIsyTWo9EIi8UlgLnadIhIg8/Z8n/9N1yGSPjQAiANaOyyyx5cYU6I1veKCBgBx5+u1w6OBVq5zRJKoYU2vbVlAdPQ21zGSnjQAiHtDvF7EM8aDvdZ1ikgSRLH+CCq8ha5DJL1pAJDgyC4ajDUTgT6uU0QSYBHYe4gWvuI6RAS0DliCpLywgpjfF/gVWjssqWMLxoymi3+OLv4SJLoDIME0xOuKHynEcjuQ6TpH5DD4YP5CJH4v070NrmNEvk0DgARbjncGNvIolqtcp4gcgplYP5cK7yPXISL7owFAwiGnaCi+mQic4jpF5ABWAXlEC55zHSJyMBoAJDy+XjtcDHR0nSPyDVrTK6GjAUDCZ8i4Y4nHPeBmdJBV3LJg/gbxe4l6n7uOETkUGgAkvHKK++EzCbjUdYqkI/s+fsYIZuS97bpE5HBoAJCQs4bs4h9jzUPASa5rJC2sBYoY4D+N5/muY0QOlwYASQ1DvbbsNKPAjALauM6RlLQLw++pbZXHW/dvdx0j0lQaACS1DPROIDNjvNYOSzObSsQMZ3r+ctchIs1FXyAlNWUXfxdrysCe6zpFQu0TsCOJFr7uOkSkuekEtaSm8oI3GBDvB/wCWO86R0JnM8bk0uWMPrr4S6rSHQBJfQO99mSae7V2WBqhYU3vbr+QSm+r6xiRRNIAIOkju+RULOO0dlj2I0qcXGYWLHAdIpIMGgAk/WSVZAETwfZ2nSKBsBhr7qEif6rrEJFk0gAg6anfky3osv4GYBxwpOsccWIrxjxAZqcypg2vdx0jkmwaACS9fb12+A4gw3WOJEXDml4buY+KsTogKmlLA4AIQFbJmWAnAkNcp0hCvYHxcyn3PnQdIuKaBgCRb2pYO1wGnOw6RZqRYTWWsUTznwdjXeeIBIEGAJFvu9ZrydaM27C2BOjgOkeapBbsQ9R0eJDZd+90HSMSJBoARPYn2zsOGylEa4fDqGFNr2/uY0beStcxIkGkAUDkYLJLz4f4JKy5xHWKNMoHGEZQXvCW6xCRINMAINIoX60dfhg40XWN7NMXgKc1vSKNowFA5FB8vXb4fqC16xwB9q7pzfTzmeZVu44RCQsNACKHI6e0O74dB3aY65Q0NxX8EUS9Za5DRMJGA4BIU2SVDMTaMgzfcZ2SZj7FmpFU5L/mOkQkrHSyWaQpovmVXOb3pWHt8AbXOWmgYU1vzO+ji79I0+gOgEhzGeh1JtOMBjMSaOk6J8XEgGeJ+WOp9Da5jhFJBRoARJrbYO80TORR4GrXKSmigoify3TvY9chIqlEA4BIomSVZGFsGZazXaeE1BKMHUt54RTXISKpSAOASCL1e7IFXTfcjrVFQCfXOSFRA/ZhWnSZoDW9IomjAUAkGQaPP4JIrEBrhw9Ia3pFkkgDgEgyZRWf1/DYoLncdUqgGDsHmzGCaN47rlNE0oUGABEXGtYOTwJ6uk5xbA0wRmt6RZJPA4CIK/0fbUP7muFYO5b0WztcC/a3xGwpld4O1zEi6UgDgIhrg0qPJ2IngL2e9Pg7OZVM/y5e81a4DhFJZ+nwxUYkHAYXX4BhEtDfdUpimLlYm0tFwZuuS0REA4BIwFhDVskw4EHgGNc1zWQTxpTS+fTHmXJd3HWMiDTQACASRDkPtcOvvS/ka4d3Y3hCa3pFgkkDgEiQDfF6Ec8YD/Za1ymHKApmONH8T1yHiMi+aQAQCYOckkH4TAR7juuUg1iEMXdTnv+q6xAROTCtAxYJg+n5M4jF+2G4DVjrOmcf1mC4jZjfWxd/kXDQHQCRsGl4f8CtWHsn0MtxzRIwv6Wm3dPMvnun4xYROQQaAETCyvMivJVxJdb+DBhK8l4mVI3lJaz9by63r+N5fpJ+XRFpRhoARFJB/0fb0Gb7QCJkY80gDGcDmc302WNYFhChAt+UE49XUunVNdPnFhFHNACIpKKhXltqI9/B2N4Y0wtLL6AL0BHovOfj3jsG24FqYOuej1swLMXapZAxn5q2Vbq9L5J6/h9YxIuQ740Y3gAAAABJRU5ErkJggg==;" vertex="1" parent="1">
          <mxGeometry x="190" y="560" width="80" height="80" as="geometry" />
        </mxCell>
        <mxCell id="a8zKuZkFYYWIh80umhkp-5" value="" style="group" vertex="1" connectable="0" parent="1">
          <mxGeometry x="460" y="560" width="80" height="80" as="geometry" />
        </mxCell>
        <mxCell id="a8zKuZkFYYWIh80umhkp-3" value="" style="ellipse;whiteSpace=wrap;html=1;aspect=fixed;strokeColor=none;fillColor=#f5f5f5;fontColor=#333333;" vertex="1" parent="a8zKuZkFYYWIh80umhkp-5">
          <mxGeometry width="80" height="80" as="geometry" />
        </mxCell>
        <mxCell id="a8zKuZkFYYWIh80umhkp-4" value="" style="shape=image;verticalLabelPosition=bottom;labelBackgroundColor=default;verticalAlign=top;aspect=fixed;imageAspect=0;image=data:image/png,iVBORw0KGgoAAAANSUhEUgAAAgAAAAIACAYAAAD0eNT6AAAABHNCSVQICAgIfAhkiAAAAAlwSFlzAAAN1wAADdcBQiibeAAAABl0RVh0U29mdHdhcmUAd3d3Lmlua3NjYXBlLm9yZ5vuPBoAAEC8SURBVHja7d112FbVtvfxQ4M00qGAgAKihEgoiopKiQpYhB0oioEbsbAVk61bFBUTFBXYGFiAiomEHZgooEhISUhzxtgO9qZ57vtZMeda3z8+17mu9z1HnjXXXHP87rVm/N/GjRv/DwB88kPzEnuLUeJt8ZnoK/LQNkDO0QgAfCv+DcV8sXErb4nytBFAAACQvOK/m1i8neK/yQjaCSAAAEheAGi7k+K/ycG0FUAAAJCsANApBwHgY5GX9gIIAACSEwBa5CAAqLNpL4AAACA5AaBCDgPAPFGSNgMIAACSEwKW5zAE3E17AQQAAMkJAF/mMACs0f0CaDOAAAAgGQHgxRwGADWSNgMIAACSEQCGZBAA1okatBtAAADgfwAYmEEAUPfSbgABAID/AaB/hgFgmShF2wEEAAB+B4BeGQYA1Y+2AwgAAPwOACdnEQBmiwK0H0AAAOBvAGifRQBQ3Wk/gAAAwN8A0CHLAPAx7QcQAAD4GwA6ZRkAVCvaECAAAPAzAByfiwAwmDYECAAA/AwAJ+QiAPwm8tCOAAEAQDpWAWyuBe0IEAAA+BcAeuQyANxFOwIEAAD+BYDTcxkAZtCOAAEAgH8B4PJcBgDViLYEAYBGAOBXALgngABwE20JAgCNAMCvADAigADwNW0JAgCNAMCvADAxgACg9qE9QQAAAH8CwPcBBYCraE8QAADAnwCwLKAAMIn2BAEAAPwo/sUDKv5qtShEu4IAAADuB4A6AQYA1Yx2BQEAANwPAG0DDgAX064gAACA+wHgqoADwAjaFQQAAHA/AIwKOACwLTAIAADgQQD4OeAAoMrStiAAAIC7xb9MCMVftaR9QQAAAHcDQJuQAkBP2hcEAABwNwD0CykAXE/7ggAAAO4GgOdCCgDDaF8QAADA3QDwY0gB4EPaFwQAAHCz+JcWG0IKAPNpYxAAAMDNANAtpOK/SX7aGQQAAHAvAIwOOQCUpp1BAAAAt4r/bmJFyAGgGm0NAgAAuBUAOodc/FU92hoEAABwKwAMjyAAcCwwCAAA4FDxLyiWRBAAjqC9QQAAAHcCQLsIir86jvYGAQAA3AkAQyMKAF1obxAAAMCN4p9PLIgoALSlzUEAAAA3AsBhERV/1Yo2BwEAANwIAM9HGAAa0+YgAABA/MW/llgfYQDYm3YHAQAA4g8AD0VY/FVV2h0EAACIt/hXFKsiDgCcBQACAADEHABui7j4r+M0QBAAACDe4l8iop3/NvcDbQ8CAADEGwD6RVz81VjaHgQAAIiv+BcSc2IIAHfT/iAAAEB8AeCcGIq/Opf2BwEAAOIp/nnFdzEFgEO5ByAAAEA8AaBbTMVfVeQegAAAANEX/9Li95iK/xLuAQgAABBPABga46//cdwDEAAAIPrif1iMxV9dwX0AAQAAoi3+RXQTnpgDwAHcCxAAACDaAPBMzMV/ka4+4F6AAAAA0RX//jEXfzWaewECAABEV/w7iPUOBIALuB8gAABANMV/nxgO+9mRvbknIAAAQPjFv5aY6Ujxn8U9AQGARgAQfvGvH+NmP9tzC/cFBAAaAUC4xb+J+MOh4r9B1ODegABAIwAIr/gf5NA3f3b/AwgAACIo/keI5Y4Vf9WV+wMQAACEU/yPEascLP7zRAHuEUAAABB88T9RrHGw+KvbuUcAAQBA8MX/DEc2+dnR5L/a3CeAAAAguMKfR1xjRXajo5j8BxAAAARY/EuLsQ4X/k2acb8AAgCAYIp/IzHDg+I/ivsFEAAABFP8zxR/eVD814o63DOAAAAgd4W/sBjqQeHfZAj3DSAAAMhd8a8hPvao+K8Qlbh3AAEAQPbFv4NY5FHxVzdz7wACAIDsCn9ecZPjS/y2Z4EowT0ECAAAMi/+FcV4zwr/Jr25hwABAEDmxb+jmO9p8Z+omxNxHwECAICcF/4iYrCnhV8tE9W5lwABAEDOi/9+4muPi786h3sJEAAA5Kzw617+lzh6hG8mXuN+AgQAADkr/hW0cHpe+DfaEsXK3FOAAAAgZ2v75yeg+Kvu3FOAAABg54Vft/P9V0IKvxrJfQUIAAB2XvwbiK8SVPy/EcW5twABAMCOi/+Fnpzgl1NLOOkPIAAA2HHhLyteTlDhV+tFe+4vQAAAsP3i30bMSVjxV1dxfwECAIBtC38BcbuHh/jkxCjuMUAAALBt8a8lpiaw8KsvRVHuM0AAALBl8T/N9sNPYvGfK/biPgMEAAD/K/wlxDMJLfzqD13CyL0GCAAA/lf8W4gZCS7+utyvCfcaIAAA+Lvw5xVXi7UJLv76OaMF9xsgAAD4u/hXFRMTXPjVStGa+w0QAAD8XfyPFwsTXvxXi7bcb4AAAFD4m5coIoYkvPBvtE8axyXw3p0t3hCzxWTRR+Snb4MAAGBnBWQ/O/gm6cVft/g9OUH3rbq4YydvbP4t8tDHQQAAsKO1/X+loPjrroWnJ+Se6RbML1ig2dV1d6OfgwAAYPMiotv5Dk5B4d/kfM/vVzFxQRZval6iv4MAAGBTMakkPkhR8b/M43tVW9wrlmZ57W/T50EAAKAF5WDxe4qK/zUe3qM8ehyxeC2AA5fupd+DAABQ/C8Sa1JU/G/17P6UFJeKHwPc6KgWfR8EACDdS/yGpajwqzs8uj96wuKDYnnAuxweQf8HAQBIb/GvIT5NUeHXV+aXeHJv6orhYl3AbTBd/9v0fxAAgPQW/4PspLu0FP9V4gQP7ksD8VwOl/FlaqQoTv8HAQBIb/HvmpL1/ZssFoc4fk8aizEBTOzb0Q6Hfen7IAAA6S7+l4VUZFw1S9R3+H40E6+EeP1zxaH0fRAAgPQWfj3C976UTfb7QlRx9H60EuNCvv73RWX6PwgAQLpn+o9JWfF/U5fOOXgvDo/oOGXdIKgA/R8EACC9xb+c+Chlxf8ZUdCx+9A2oh0W9TjjM+j7IAAA6S7+tQPcOMabNf4unXInf0trMSWia9fv/S3p+yAAAOku/i1StsxPl831cSx8vRDh9X8iqtH3QQAAWOO/LEXFX5c0dnGk7UuLQRFvq/y82I2+DwIAQPFPU/FfpIcYOdDueoTyxWJhxDsbDnDpkwdAAADiKUItxZ8pKv4/u7CtrfwNx4rvIr52PRugM/0eBACA4t8iZcX/HVE25jZvJN6K4dp/EfvT70EAACj+aSv+D8W5xl031xGPhbRf/668p0s76fcgAAAU/+ZiaUoKv+5p3zvGtt7Nvrkvj+n6H3FtfwOAAABQ/MOmk+sOj6md84hTxeyYrn2dS0scAQIAEG/xb5ai4v+12Cumdj5ETIt5lcOR9HkQAABoUdrHjrhNQ/EfK0rE9J1/ZMzXPl03FKLPgwAAQAvT7ina3vd2PcUwhtf954glMV/7qy4eZgQQAID4NpuZmJKd/XrE0L61xNsOXP9dUQcfgAAAuB0AHk1B8Z8jDoy4XfOJfmJlzNeu2wefTl8HAQDA5kXq8hQUfz01r3LE7dpQfOzAtes+Dm3o6yAAANi8SHWKadOZKD0tCkfYpoXFbba3gAtvPRrS10EAALB5odo/4Yf7aLC5MuI2bWQz7F24/m/EHvR1EAAAbF6oKopZCS7++tq7U8Qz/C8Vqx25/nf1+GD6OggAALZ+Rf1Rgov/DLFvhO1ZQbzm0PWPjPKTB0AAAPwJAI8luPhPjPIkP/m32oq5Dl3/P1nmBwIAgO0VrOMSXPyHRHWSnx6cI+4RGxy5dv07+tLHQQAAsL2iVU7M4yS/XLfj3uITh65f5x2cRB8HAYBGAHZUuP6d0JP8joiwDXuIFY5NdmxN/wYIAMCOCtepCSz+usytVkTtl9fOD3Dp+hdFvbMhQAAA/Cr+1Rw4gCZor0R1kp/8O8XFy45d/3w2+AEIAMCu1qdPSFjxvzOqme7y79QUXzl4pkE9+jdAAAB2VsAuTFDhX6WfMiJsu9biD8faYGZUnz0AAgDgb/Gv49iEtdzQ1QvNI2y7Xo7s5b+5H8We9G2AAADsrIDlS9Buf7+I2hG1W34x2ME2mB71aYYAAQDwMwBcnqCZ/lUjarNCDk72U5+L8vRrgAAA7KqQlRaLE1D8p4jdI2qzwo7t5795G3CoD0AAAHJUzG5PQPHXlQvFImqv3cR4B9vgg6iWOgIEAMD/4l9FrPS8+I/W1/ERtVdR8bajr/1L0qcBAgCQ04L2iOfFf6hOYIxwg5/3HD3OuBL9GSAAADktaHpIzTqPi/8dEbZVSTHJ0eWOrPMHCABARkVtlMfF/4qIJ0lOdbAN9GCfxvRlgAAAZFLUmnpa+NeLcyJsJ13q96GD7aBH+h5OXwYIAECmhe1ND4u/Fr2uEbfTk46GoK70Y4AAAGRa1I7ysPgvF0eyOdJ/nE8/BggAQKZFTU/7+9iz4r9GtIm4nTrYL23X2uI6+jFAAACyKWxdPfz13zPiNqonljrYDg/ThwECAJBtcZvoWfG/MuL2KWOn6LnWDl/p9sP0YYAAAGRT3PbxrPg/EHH76Ml+bzk6+XF/+jBAAACyLXD3eFT8X4hqhz8P2udy+i9AAACyLW56et1CT4q/TlIsEnH7NHZ00p++kchDHwYIAEC2Ba67J8VfDybaJ4aVEZMdbAs9orka/RcgAAC5KXIjPQkAvWNom3MdbYuT6bsAAQDI7eS2JR4U/1djaJvdHf00Mpy+CxAAgNwWuUM8KP4LRMUY2maog20xV08fpO8CBAAgt0XuNg8CwPExtEtzscHBtuhPvwUIAEAQhe4zx4v/+zG0ST7xiYNtsZRf/wABAAii0BV1dHnb5jrE0C4nO9oWA+m3AAEACKLQtXC8+H8eU7uMc7AtVsUxDwIgAADJDADnOx4ATomhTao5+lbkIfosQAAAgip2Dzlc/H+Mertfa5NrHG2PfemzAAEACKrYTXY4ANweQ3vkcfS0v1n0V4AAAARZ8P7g9f8W7XGoo23xCP0VIAAAQRW7Ao6uc9+kXgxt8oSjbdGFPgsQAICgil0Vxw/9ifq432JiuYNtsU6Uos8CBAAgqILX2OEAMCWG9ujkaFtMpr8CBAAgyILX3uEA8FIM7XGDo23xb/orQAAAgix4XTj5b4v2GOtoWwylvwIEACDIgtfW4QAwLob2+J3lkAAIAEhDAGjlcAB4O+K2KO5wW1xBfwUIAEBaJgG+F3FbVHO4LS6hvwIEACDIore3w0VvUsRt0cDhthhEfwUIAECQRa+qw0VvWsRtcbDDbfEC/RUgAABBFr3SDhe9ryJuiyMcbosv6K8AAQAIsugVdLjozY+4LQ50uC2W6SFF9FmAAAAEWfjWOlr09IyC/BG2Q12HA4BqTn8FCABAkIVvicNFr1KE7VDF8QBwD/0VIAAAQRa+Hx0ueg0jbIcSjgeAWXwGAAgAQJCF73mHi97REbZDXsePRlYt6bMAAQAIqvD1c7jgnRZxWyxzPAA8Tp8FCABAUEXvcIcLXr+I22KO4wFAJ2zWpN8CBAAgiKJXyuFX30MjbotvHQ8A6lH6LUAAAIIqfD84WuymRtwOUz0IAPoWoAb9FiAAAEEUvhGOFruVIl+E7fCmBwFADaPfAgQAIIjC19fhYlc3wnZ43JMAoNrQdwECAJDbwneow4Xu5Ajb4XKPAsBPogj9FyAAALkpfMUdngh4W4Tt0M6jAKBup/8CBAAgt8XvM0eL3KsRtsEengWAtVHulggQAIBkBoCrHC1ycyJsgzziT89CwNQoJ0oCBAAgeQGgpsNFrlyE7TDZswCgLqUPAwQAIDfFb0raZ7zLv/WYhwFgudiTPgwQAIBsi99ljha4viyJ3KXX6MMAAQDItvhVcXQ1wFMRtkFbTwOA6kE/BggAQLYF8B0HC9vnEV5/RY8DwEL9++nHAAEAyKYAnu9gYVsjCrIkMkfG0I8BAgCQTfErJ9Y5WNgaRtgGt3ocACLdPREgAADJCgFvOFjUzo7w+g/yPAAsEOXpywABAMi0AJ7gYFF7LsLrz2ff030OASPpywABAMi0AOYV3zk4wS1vhG3wjOcBQB1LfwYIAECmBfBMBwtaswivv0cCAoCeGFiI/gwQAIBMCmABMduxgjYgwusvK9YnIAT0pz8DBAAg0yJ4sWPF7IOIr//DBASAZaIS/RkgAACZFMDdbEa5K8VMlyeWjPD6z0tAAFBP0J8BAgCQaRG8xrFi1jnCay8qliYgAOj2zk3pzwABAMikCJYSfzpUzB6K+Pr/lZC3AJNEHvo0QAAAMimCAx0qZL9EfO31EhIAVCf6M0AAADIpghXECocK2d4RX//bCQkAE+nPAAEA8HkuQJ+Ir/2EBL0FaEJ/BggAQCZFsLCY4UgRGxvDnghzEhIAnqY/AwQAINNCeJwjRWx5lMcD27X3T0gAWCuq0p8BAgCQaSEc50ghOzzi6y4ifktICLiDvgwQAIBMC2Fd+xWZuiIm/+Y5CQkAi0Ux+jNAAAAyLYT3OFDEZsRw3XpM8PSEhICL6MsAAQDItBCWFPPSdDrgZtd+fEICwDv0ZYAAAGRTCF04LnhQTNc+KSGTAUvRlwECAJBpEcwjPoq5iP0ax/a28m+2SshbgBPpywABAMimEO4jVsZcxA6J6dof45RAgAAApDkEXBRzEXsgpusuLX73PADM44AggAAA5OZTQJx7A8zX2fkxXXvnBLwFOIB+DBAAgGwLYRWxKMYidmSM1z7K8wBwHX0YIAAAuSmEJ8VYxB6N8borxBx+cmsy/RcgAAC5LYbPxLizXcEYr7uHxwFgPbsCAgQAILeFsJSYHVMhOybma3/E4xCwH/0XIAAAuS2ER4gNMRSx4TFftx6X/ImnAeBY+i5AAACCKIYDYyhiy/TEvpivu6Z9jvAtAFxCvwUIAEAQhVAPzXkzhkLW1YFr7xTTG5DcuJd+CxAAgKAKYTkxK+JCNjbFb0By4yX6LEAAAIIshAeK1REWsnWiqiNvQN72KABMo78CBAAg6GJ4Xho3tpG/o6KY40kA+Ii+ChAAgDCKYZQH5+hnh7yOXPchduyu6wHgHfopQAAAwloi93GEBa29Q9f+Dw8CwDj6KUAAAMIqhNXFwogK2hjHrn2M4wHgZfooQAAAwiyEh0U0KVBfu1dy6LpLiO8dDgCj6J8AAQAIuxj2jKioXeXYdTcQKxwNAA/TNwECABBFMbwmgqI2Q+Rx7Lq7OxoALqZfAgQAIKpiODSCwnakg9d9v4MB4Aj6JEAAAKIqhPnF6yEXtpEOXndBMcmxAFCRPgkQAIAoi2Fx8WmIhW2NKO/gdVcVfzhS/P+gLwIEACCOYlg55DMD+jt63ac6EgAm0g8BAgAQVzGsLxaEuDNgfkeve5wDAeA6+iBAAADiLIb7h/ha/CRHr7mmA1sFN6L/AQQAIO6C2EgsCqHITXL4mp+NsfjPot8BBADAlYLYRCwOodg1c/R6W8QYAAbT5wACAOBSUWwqlgRc7EY4fL0zYwoAR9PfAAIA4FpRbCaWBnw+QBVHr3VsDMV/vu5JQF8DCACAq6/H/wyw6N3m6HUOjCEA3EwfAwgAgMsh4GCxLKCip8cRF3HwGntEXPx1g6TK9C+AAAC4HgIOEcsDKn7nOXh9R0QcAJ6hXwEEAMCXENA6oON0v3HwlMB2EQeAZvQpgAAA+BQC9JfyygAKYGfHruu4CIv/+/QlgAAA+BgCjhR/5bIITnPsmk6KMAC0pB8BBADA5xCQ24mBbR26njMjKv6j6D8AAQDwPQQ0FnNzUQzfdeha7oxo5n8t+g5AAACSEAJqiO9yURRbOXIdEyIIAP+kzwAEACBJIWB3Pewny6L4uiPXsDDk4q9vSsrQX6LX98m1BUU5UUs0EYeLVmI/sacoLfLRVgQAANkV0CLixSyLY5OY//Y9Ivj134F+ElqBLyDqiuPFVWKYmCp+FyvFxhxaKqaIh0Qv0VzsRhsTAADsupDmE0OyKI6jY/67j+XEP68KfhHRVvxTfCXWZlDkM7VefCMGivq0PwEAwM4L6jUZFsgNcU6Ok3/7hhCL/3QXtz72sOjXE5eKN8RfIRb8XfnE/o6K3BcCAIDtF9Uz7PS/nBbKU2L8W18KcdZ/Y/pDVgW/pOgiHhazYiz4O7JOvCYO5H4RAABsW1iPFktyWCwHxPh3zg4pAPSnH2RU9HUy3kXivZBf6wdpg3hUJxlyDwkAALYsrnXsNfiuiuV1Mf19ZUMq/u+IvPSBHBV+nZH/VMyv9nNrsejDagICALC9QS6fzigWpUQFsYeorROLRGPRQhwqjhLHiK6imzhDnCaairyehoAS4uWdFMs5onhMf1sYZwDoW4896Pc7fR7Kir5iusdFf3u+FIdwjwkASNaAlceKd00rxkeLU8SFYoC415YfvSo+Ej+IP8QK+14YxOAySf99T0NAXnHLduYFrBcnxvh3PR1CAOjGM7PD5+hg8axYnbDCv/X8gLO43wQA+LVZSC3bJER/dV8vHhdviZ8cGrB0SVIxjz8JlBO9xBhxn2gQ499SWPwZcPF/mOdpu89XGzExwUV/e67k3hMA4M4gVNHWD/cWt9svEf1VPccm8/gysJzK/XRy/b9uhMQ34C2fuWJiQsoK/+YG6dtD+gIBANEOPDVEZ3GTeMWKfFIGFTaWce/1//us99/mGSyU8uK/yXDdrZA+QQBA8INMXtsGtLu4y17ZL0r4gHIT996p1/9fi9K06zbP5tUU///SPQMK0S8IAMjdoFLYZsrfLT60SXZpG0zYXMad1/+6h0BV2nS7z+pDFP4t3EO/IAAg84FkX1sy9Ibna4WDcBd9wpnX/4tEPdpzh8/taIr+NpsGHUXfIABg14PHfjZRbxYDx39MEz3pG868/l8pDqI9d/oMn8tzuw2di1SW/kEAwLYDhm6Oc4VtppHmQWKtHUt6tx1xyjajwQaAbgHs8d+JtszR3hnvUvS38SL9gwCALbcCfd2zpXhBWibG24ZCug9BUfpFqAFgSi5/+XegHTMK9Xps728U/i30on8QANI+OByd0l8Ic8UocYlowv7hkRb/lrko/ksF27xm/zZAP+sdYaf8nS0uFzeLB2yp7rcJ3yFwcyt19RJ9gwCQxsFAZ/FPTVHBXyietB0Ga9MHYg0Az2dZ/OdztG9ky3r1rcFhFhLutc9haxI4LrzLPScApOnh1jO+H0vRZJ/B9osnP/ffieK/h1iX5VK/fWjDWMeOInaOQD8xxt6iJWGcaMH9JQCk4QFuL35NeNH/yTYjasn2n04GgDuzKP7fc7Kfs2NKHXGtfTrwdcwYzb0kACT929/9CS76X4kbRUPut9PFP4+t28+k+E8S5Wk/L8YZnUtzj4dbfq8Xe3EPCQBJLf5J3A3sE9Fff4Fwn70JAJUyLP5DREHazss5BG3sJM+VnO1BAEB8D+P9CVub/5y+3ufeJnr2/1/iTNosMUsQn/dgbNHtzHfnnhEAkvTw3ZqgGfy3CfZ79zsA1BCrd1H8Z4omtNc2z3Ix25/iStNLNPfo7z9EfOb4OHMtfY0AkKTJOesS8G3/HJ19zD1NTAgYuJPiP16wRevfz2910c3e4H2yg2dZ/9/O8OzTwHligaPjzTw96Iz+RwBIwgDyvMeF/2Vdusd9TGQAKG4T+zYv/CvErSJfSp/VgqKZuNQ2p8p0El1Pz663lO1M6OKuo3x6IgAkYjauj1v6fq7rjLmHqVgN0Fb0F8eJIil6NnUfjubiLDtn4r0ATtcc7mlbnOzgroNjeEYJAL4PMk95Vvh1ALyY7XiRoGewlO1FoZ+wBtkx2mHtwTHF43bS3QaXODQWLdZPFfRhAoDPg8/3nh3Ccxj3DZ4+a+XtIK3zbMvcCTGsg5/oeRs2tHHAlTHpAPo2AcDXh6m0Z6//37Tjdstw/+DgpLVqtv1td3GV7amhp2ZOd2SNuz7rzRLQ1l0dGpP60f8JAL4+SG08nfi3wZYJ6evSYzXIcD8R8rNSVNSysyLOFDeIJ8TbYobtO+H6c/Mwy5YD9wbPBwHA14eoc0LW/q+35U/DxE02aUoH6r101jT3Gjvo/0VsCV1zC5L6an6AHXc7WnwgfnTslXO2z8d1STrvwt64THJkUyDGGAKAlw9RuxSc8rfeJlS9rzOg7TxznWx1pB71KwrRF7wvBCXt9Xt9m0zXVpxox9NeJq4X/xIj9UhXm/eyNCWnXM7Uvp7Qe3+YI23cimeRAODjA9Q6JYPgrj4n6FGl34gPxSviaTsaWMPC5VZIuthbBV02WVPnIbASIVd9L5/NftftX/e1wq2B9CQLaH3tNfsgO5Ja17yPEx/ZvfrNfplvoA/vsF/rm4ziCe9H4x1o6+t4pgkAPj48+zJQ5nqQXWq/snRfgoniBfs2PMgK2NV2Jrr+Er1InG+B4nSbLHaifYo5xgpgGwtmB9mGL43FfqKufYPWV9ZVRAULISXsVXaB7dzfPLZxzG72K7msqGi/lmvYDpD6q3l/nc1sr8Jb2TayR4kO9mpcJ12dopvI2Pfvc0VvcYkFpCvtmNcbbRvmO22W++P2Kl0H6ck2GU4L93L6Tqh+0O10UzKGNXOgvd+lnhAAfHx4tED8zoCZKGttw5T1tEXqrLHwVSRl49jsmNtdn7fdqCkEAB8fnicYOAHv30Q9q2+IUjqGPe7APeDUUQKAlw/PSQyggLcmpH0zGrn+Hg7ch1OoJwQAHx+eAp7tBgjgybWf6jwNxrD/jGFVHbgf/bkXBABfH6BjGFABL8ywo3/zMHb9d/wq7MB9GcK9IACwnAZAWIX/Qjad2eFk5riXg77KvSAA+PwQ6dr2BQy0gFPesqWYnDq38/Hrr5jvE0sBCQDeP0S6GcsqBl0g9iOvh+r+D4xLOd5UKu5x60PuBQEgCQ/TyWIdgzAQuV/tFMGyjEUZjVkNHLh3k7kXBICkPFAd2a0NiMwkC975GX+yGq/OcOAefsy9IAAk6aHSLWjnMDgDoe3ap4dTNWW8yfVY9YAD9/N97gUBIGkPVmXbYYwBGwim6L9qv1jLMMYENk5Nd+DeDuVeEACS+oDpsZtfMYADWe0T/7I4TU8/ZDwJZeKyC/e5L/eDAJDkBy2/uDRF56gD2dIZ6S/aFrUlGT8Sfw6Aas/9IACk4YHT42Sf4hx2YJule2Nsl77ijBWRjEV6xPUKR+5/De4JASBND99BtnsgQQBptVKMshn8xRgXIh+DLnGoH7BREwEglQ9hDXGTrWGmKCDpfhCPiRNEUcaA2MadEg7tXPop94QAwG5cT67tYK9B11IokADr7dS9+6zgV+RZd2a8uc2hfvIM94QAgP89nBXEFRwzDA8n770nbhXtmMDn7PhSzYG9/zkKmACAHDysrcQdulOW/aKi0MAVuqLlNdt+V/tpIZ5ZL8aU4Y69JarOfSEAYNcPbhnRRTzI2wHE4HfxvOgjGjFxy8sx5ETH+tTr3BcCALJ/lXe6GMa2wwjh1/0HYojtvFeLZ8778aK6WOJYP+vMvSEAIJgHvJ640GZZT3VojS/c3l73S52IJa60g6z25HlK5EZkkxx8o8QBTgQAhPTQ5xW1NWWL62zN9ffMJUjtmvuvxUs2A7ybHQNbgGeFWf8xuZV7QwBA9INBEXGAvdq9xzYk+p0i6b254kP7JHSD7Z9/sB1KlYe+n9rnvY2DG47p31OT+0MAgDsDRWH91itai572Sniw/Wr8xKGNQ9Jmg7W9vqqfIJ4Wd9vZEsfaL3k21cH2nunyjob7cdwfAgD8DAl7WUjosVlI0MNb3rciNVv8yTbHOy3oS62dtL3etKJ+j+3/oL/c29pM+0p8J0WWz2oeW6bp4jNwFPeIAIDk725Y2rY7bmih4VgrcLqUbID9kn3U5idMsMmLX9oZ5T+KX2yb5HlioQWLlTZ5LciCrMfOLrdZ0gtsVcVM8ZP41v4mfQsyxWbHT7RPJ6+IEeIhcae4Vlxsn1d0yeaRopmoK6roQTe8jkdEz9/ljhb/4dwfAgAQVMjQtxLFLGyUs1/Ne+g3RlHHPmvsad/Cy9n/nv7vF9L/e9oRCXwuDgk4JAdlvijLPSIAIFkDjhbTgrQFEPuz2Mg+Mbn4678b94gAgGSsJOgkhtrs801nuuur/Cq0ERDLc1nHfmW7WPzHco8IAPB3cKkozrZVASt38qDr5LZytBkQ6fNZ1eatuFj8de5ONe4TAQB+DSr72mEvH2U4q/9u2g+I7DktaxNnXV350pv7RACA+wNJAXGEuFfMyMUD/wXtCUTyzOrKkmkOF/9XWflCAIDbg8heVvQXB/TQz6RdgUj25Xjb4eI/mU2qCABwe7nQmBDOB3iS9gVCXwL7gsPF/zuW/BEA4ObgcZz4OKQHXzfT2Yt2BkJ7fnWXvycdLv66kVZ17hUBAG4NHLoj3bgQH/yvdOc72hoI9Zf/ow4Xf92DYH/uFQEA7gwaJWyv+bUhnkTXm+NlkUXfLCgOtC2UH7dPUjofpQ7ts922GuVw8V8lDuNeEQDgzqCxf4jrg3W70et0a13aGjnsj7pVc2c7O+F920Bqe31L56XcwQ6T/223onb+hKvFX39cdOVeEQDgzqBxvB1yE8YDv06cQDtjF8tKm9rhTyPscKdM+9lnon7K27GM7cXhavHXeT9t6PMEALgzaFwZ4pG8+t89g3bGVhPTaljovF28t4sdIzOhbwkuSeN6cntj8qXDxf9nUY9ngAAAdwaN00N+6BfQzqnuX6VsCWlvOwr5Q9vuNexiMz5NZ03YiZYzHC7+k0R5ngkCANwZNJrs5LtqkM7jON1UvMLX7aC7idvEK3bWQ5xFZ2EaPj3JNTYQvztc/J/TjYh4TggAcGfQKB7xgSDf2qtZ1vz6P7tcT5JrL/qJ4eJzR8+U3+QpXd2S0PvRQixyuO1vZXtfAgDcGzh6xzgofCputm/ANRkgnHxt31h/PYv+4hHxpk3MW+9wsdkZ/dsPSdh9OibEibtBnOrXg+eJAAA3B48vHRssdJnXYHGubhDEvuChT8LTI2EPFWeKW2zm/RR7bb4xoTS8DEzCckF7++JqGHtXJ3nyrBEA4Obg0dyTwfp7MVJcY9+WD9dZxGJ33hrstLjrUrC9xcH2lqWPbZgz1o6CXZXgIp8Tn/g6G13+7kIOb+27Wlwh8vIsEgDg7iByagIG8TU2yWyqeNleU+tnhQt1kxErfrV833jIvrlXsU2a2ohTxEXiRvGABaSJtrXyPNtzYSNytFywj09BUv7WCuIDR9vzC7b1JQDAj4Hk4pQN9ivETzZITbF15+PtF/Fo8bR4zArqIJvFfr3tj3CpuMBelXcXXURHcaRoJVqK1uIo+ybbxd5WnG6rH7RYXy6uEjfYf1u3Wr7fQotOUHvWtrXVmfMTbCOXn2yvdIp1uN4QlVO+S2du39TpTo2FGFsJAPAjAFzPwA9ssVywq8PP6/GOTvbTz0mHMqYSAOBXAOjFoA9s4wnXlgvam6MNjrXTYnuLmJ/xlAAA/wJAQwZ7YIfb1R7swDNa2D5NudQ2Or/kQVGWcZQAAH8DQL6ItmMFfF0ueE2Mz2c9B/f0f0t3HGT8JAAgGSHgVgZ6YKdOi+G5PCfAg5GCoJNRj2fMJAAgebu9LWKQB3a6VLBsRM9jSdsz36VPIecmYdMkAgCw/UHnAgZ5YKeaRvAcNnPoJD/9xX+WHu7EGEkAQPJDwCMM8sAOdQx510bdOW+tA9f5g+1dwcx+AgBSFAD0GNe3GeiBbSwIaydJ29VvnAPXqKd09uS4bgIA0hsCiokXGfCBLfwjpOftaDE3xuvSfQVetyOdOVODAABCwNq8tqUnAz/STr/HdwnpbdsdMW7ss8y2oN6bMY8AAGxvkDrBDtmhECAt9Nf4v+3MhhZhTICT/2ZNMTmm6/tRXKIrDRjjCADArgar3ey0ub8oDkjgJj+f2452PbQwR/A8nRzDwU56dsBw0ZbjeQkAQDYD157ieYoGPKZHJL8mrrMTHEtEHKSHRrxV7+sWbIoyhhEAgCAGskPFpxQTOO438bIdu9xJVI3xmSktJkV03VPtcJ4KjFcEACCsSYJnimkUGjhgphije/bbbPaKjj0vD0SwYc+NTOgjAABRD277i/vsHHWKEaLYnW6k6C+Ocv00OtvgZ0UI7fCHGCxaMg6BRkDcA10hm+A03sEzy+Ef7UPfiWdsRv7hemaFh89FuQDb5Bd7m9CB7XlBAIDLEwavtwGLYoacTFj7SjxlS9RaieIJeRby5OKgrdUWqC8TdRlbQACAbwNgA/sFpwPZKopd6n/V68Y6r4i7bB5Jc50hn/Bn4LIMf+U/aBMXmb0PAgASMxAWsbXIg8Q3FMTE0gNtptuGOjeL7qJR0gt9lgdt6dLEUaKPqMc4AQIA0jIoVrPjRnV/gd8pnN5ZaUtC9Tv9tbplrhYxvk/vsL/X1TMFxL/EOczaBwEA+N8AWVkcY/MHXrK13BTaeC0WH9vM+9vFebaJTk12lQMIAECYoaCizXoeIF7gbILArbH94fU42iGin+gqGvs46x4gAADJDgW72+SxHva2QPc5/4i9CHa4D7yunf9QjBC32GeXw0R1zn4HCABAUsKBbrvaVJxi36WfFBPFt/Y6OwlF/U/xg3hfjLa14bq/fS9xvJ1iV5NZ5AABAMCWGxZVs5DQ0X4NX2W7GT5nYeFjW6UwwyYnLg5gCeM6+zW+QMyyTW4+sz3i37KlcTobfJh4WPzTAsy54ljRzH6xF+E+AiAAANFv6lLE3jJUsl/ZOuu9iTjINLbZ3lqsK+i566Ig7QeAAAAAAAgAAACAAAAAAAgAAACAAAAAAAgASM3M+1Kitq1vb0C7AAABAMkp9FXspMB/2OY9uhZ/rp0st/Wa+pniDvaiBwACAPwr+KXt9LiHbMOdbDbXuZK2BEAAoBHgftEvaqfJ6b796wM6d35f2hYAAQBws/DXtq1tl4SwL3572hgAAQBwq/DXEGPFhhAPxmlDWwMgAADuFP9zxLIITsXbg/YGQAAA4i/8lexku7CPxNW3CsfR5gAIADQC4i/+jcTCCIq/uoU2BwACAOIv/uVsfX4Uxf839gBIRJ+pKjqKa8Qo8aNYI1aL0eJA2gkgAMDtgbyAeCei4q9WiTGil6jOPXC+f+QT9UV3cacYLxbk8DOP7hNRmnYECABwc4B/MMLivz3fiftEB91rgHsSWz8oZIVeN3i6Wjwlpoq/cnl/54vTdVto2hkgAMCdQf/YmIv/1vT18VviHnGuaCXKcq8C/9yj7Xq2uMuWeurr+3Uh39t32fgJIADAnWIw0bEAsCN/iPfEw+Iy0c72KeBX5fbva36xt+gk+onHxIcRTvLc2e6Pd/KmByAAIN4iUd+T4r8zK8WnYoS4TpyluwuKxrakMV/C76GeydDcXrEPtLkV020ynsv3bbbozHMIEAAQT/G4JAEBYFf0zIJ54jPxunhc3Cb6iBPtVbhudVzM8UmaNS3YXGYT696x6/L9/ryq18bzCAIAEG1hGZGCAJCJ5eIHMUm8KV4Wz9vxxg/avIRbbNmbFuLz7Zf3SeIY3dZYHGRvH/YRe4rK9j/r6Pdv0US0FK3F0fZ/11Wcqacj2pkLI2wexNf26WNDwttdJxleq5MQeS5BAACiCQDfUvThkO/FkTybIAAA4QeAWRQdOOhZfXPCMwoCABBeAPiVYgNH6UFRFyd9EidAAEBcAWAOhQaO0xUezXleQQAAgg0AUykw8MAG2/+hDM8tCABAMAFgCMUFHllgqyXY/AkEACCXAeBsigo89L5owDMMAgCQfQCoYRvlUFTgG91S+G6XN3ACCABwPQS8SDGBx35l7wAQAIDsAsDhFBF4bpX2Y55nEACAzEPAexQReG6JnoDI8wwCAJBZANCDZpZRROC5xjzPIAAAmYeAcykg8FwXnmUQAIDsQsADFBF4PA+gJM8xCABA9iHgZooJPPQAzy8IAEDuQ8AlKTiDHskxkN0BQQAAggsBPW2zFQoMXD0tcLDYl+cVBAAg+BCwn/iAYgOHfCZ6sQMgCABA+CEgjx3AsoDig5j8JYaJljyTIACAwvzk2gKigqgnWolDxT4h/ntl7EhW5gYgCuvE6+JUUZxnHgQAJL2gVxL7697moptNxrtVPGJ79k8SP9n3zx0NnB+KuiH+nU3ECLGGIoUQaP+9UJRnXAABAL4W9LyinP1Cby1OtIHtBvGgGC3eFd+KRQH/stYDUiqHfH2VxY1iHkULuaD9/iNxpZ5OydgBAgB8KfDVRRtxvh1N+pL40opi3Mfs3hBROxSy17TTKGbIoWUWgM/gl35k49We4ixxjv4ooU0IAMj5g7N1kf/Gdh5zeZCdGENbHSBuEV9R5LCVn8V94ihRkLEl0km829vc6wXCFwEAWz4sVcVxVsTG2at5XwfcV2Juy73EpRpEbEIXRTB96/TfEFeI+owvsT2H5+zkHv2uc45oJwJAGh8M/T7fTgwQL9vDkKQB+AKH2rqMbSw0kjkDiaX3dZRNXNWJovkYZ5x49mbu4r7pj5ymtBUBIOkPQiEr+A/Z68gkD8ZTRBGH74UeP9xd/MvmDrDjoH90NcoT9l25DmOMk89ZmRzey6WiGW1GAEjaA1BSnCKe28XSuaRYLO73bd20hhVxsPiHTQ77lQLrFN0E6k0xyFazVGJ88eK5ypfBXKWZnKZIAEhCp6+ir7/tG36S16rrKoOvxeN2vU2TNLlKrqWUaGG7EN4pxooZDqyuSPqOe5/YL/u+NmGvIuOK18/R8Azu/9O0GQHA147eVryX4J3qfhHP26/k1mndHc3eFjS0Nzs32Xdn/Ywwl10KM1p7P8M2l7rJftXX5bt9Ip+XyhlOwu1GuxEAfOrg7WwjkSQN0PN1Fr+4XnTQCYvc6xz1hYK2N8PBFhA0LN1rnxUmi99S8gZB19lPF+PtDZEW+fOsL+3P1rqpey4mZtB3dFJgIdqNAOB6p25vg3pSXr2+Ji5mQlXo/Sa/qCYa2f4OJ9knlAEWFobbvZhiE92WONRPVouFttnUa7ZF9HU2Ee9oXW7Hd1xsp88PybCfdaTdCACuduYONjj7XvS/s4LT1uUZ+/hvaChvr8mb2hsGDQ8dRVfRw4pwb/t2frX96r7TNr/RQ5SG2qqH2+3NTj/bGvose1txnH1zP9iW0dW1txn67xbj9Tyy7Lu7iTkZjk2P03YEABcnhb3gccFfbvsN6K/NmtxTABGMm09lMVbpW6b8tB8BwJVOfIBNWvKt6M+27YPb8F0NQIRj5j65/MHUhnYkALjQkTvZt09fiv5q2/FOX+3n5R4CiHC8rGjf/HO7uVZf2pMAEHdnbm0T5Hwo/F/a3vdluXcAIt7w50jxmH1qDGI8u5K2JQDE2akb2haVLhf9pba18IHcMwARjo96yt9BNrE0jPM1+tPOBIA4O/dUhwu/HhzUS2fYcr8ARDg2NrKVJDNDHuOOo70JAHF18lMdnsmvS7iKcp8ARDAWVrCDs56wjayiGutq0f4EgDg6fF6bPe9a8Z+la7O5RwBCHP+K2H4QuofEZzFtb/0bE5gJAHG+4nLx4J3W3B8AIXzubGgbQ413ZNIzEwAJALE9EJc5+vpfD9R4UtTmPgHIcnwraTP2r7UTLv9wbJxbIcpwrwgAcT0g/3Z85r8GgWG60Qb3C8Aulufp4Uvn2hK9bzw4sfIe7h0BIM6HZrxHm/58ZTNyD2HrTIBNeOxMh4Hi7QDX5Eflc1GYe0kAiPMhmujpXv+LxbOiJ5sBAYkfp/awg8n6i+ciWJYXxRHSe3NvCQBxP1jvJ+CkP500OMmWDLYjEADejkd6CFkrO8TrQRufliRgjNpaT+43AcCFB25CAh+ujXa2/AjbLvggjgAGnBp3Cor9bM29vsJ/xZb+bkw4ndN0Hn2AAODKg3hHCh66jXZYx6e2lbCeCd+AM9+BSAp9HdFRl7uJZ2wuz5qUjDtbb2zWgX5BAHDpAe2awgdx8wdyip3hfZU4XjcfEgXoG0COx5BiNvu+s/iHhWx9s/izfZ7biLXfiyb0FwKAaw/vnjyc231b8K2d732bOE000zXF9BmkdJwoa8+AvrIfYHt0fCDmMl7scn7SXWF+gpT/9gHiafGw3ZvK9FkCQCYdaBIPao7NEW+KweIicYx9yyxFX4Lnr+r3tCPB9RPZreJ58XFCJ+FFQfchaB7iPSthe6RsvdfBDFGTfk0A4DNA9McVf2kTmh6wJUun2CTEquz3jZg2x6lsvxI72amaN4pHxWu2Fn2BBxvm+GSGtXPBkJdFfrmTv2Em/Z8AkMkgMYMHN5JPC/pd9B2bd3CzOEccbXMPdte9yumTyMEzm8dey+vbp7b2q/1aWzr3oh3v/ZvNOufZi8bXokfYm5TJf7+pHZG+q7+HtwAEgBx3qlN5gJ1ZJjTX0v2bttnRfTa497KJVrpOem/dQ5zAkKgQrgW9tn1r16LeTfS2e3+vGCk+FL+I1TwrzphiOxLmiaCfnGDnB+Tk7+rKs0UAyKRzPcPD7OVbBf018IXNvB5hgeEaXW9sn3eOts8Q+muxpijHFqShfpetbqdsHm7tr295rrD17g9bIddw94kV86X0Yy/p9sNHRtSviopHMvz72vJMEgAy6WTFxY882KkKD7ql8mybsDTZCpOufhhur5PvsJnFl1ohO9m2ZD1UNLY3ETXtm2QlCxelbMAqFOe8B/tVXcT+nvKimthL1LMjYZvZ25QjRHv7FXeSbS99tu1Gd6kV7wH2yUbPjb/fZl3rN/SPbInXAl63p8bLokWE/fhA62OZ/I06p6McdY0AkGlna8ysXwRsg72yXmF9a4G9tZhlc0++s++nn9m3a12V8q54S7xhkypftP85wf7/JtvGTt9YaNX/1jwLNCspxgjYSgt9+0ccYK+1oJ7p3/sO9YwAkG3H29+Wu/HgA0ir1RY8dS5GsYjH4Ja2BDPbv70XtYwAkJsOWD2L104A4PtnMX3rdEYce3vYZ7RhuVyWqdewO3WMAJDbzljOXskyMABI8m59E22VTdmYxtqCNtdkWQDX8wL1iwAQ5D7fT7BRCICE0bkmF8e9da5Nqg3qbauO0w2pXQSAML5JfcKgAcBjn9gv7eqOjKlvBHx9w6lXBICwOmxeWxq1iIEEgCfbc48Vl4s6joyjh9hqljAmLVanVhEAojgZ7BE+CwBwzDLbn6GfrZ/P59C4ebjNNQjr2gdRnwgAUXboA2yr2lUMPABioHtLjBNXiuZh78Of5Th5lHg/gjcdZalLBIA4OrjuSd+n798nizEoAQhzQ54JttW1bm9dwOHDmjrYTpFRtEtPahEBwIWO36Tv30fhspsggNz6y/bcH2Dfzgs6Pv7pltP/iHgPlXuoPQQA1x4E3YO9h23nylwBADmx2Ar+DaJ1Xw8OrbJf+23E82JNxO01waV5DgQAbO8B0cNiLrNDNHgzAGCdneOgc4iuEh1FNc/GtYo29+CnmNpQz9EoQ40hAPh27vkB9ppMD3f5k8EQSDQ9/ElPmRxkW+w26evpcdS2FFqP1x7dN7tDeoKyXDSgphAAfA8E+fv+fSyrbs7xunVsBk3AP/r6+8u+fx8lrcvw2sa9y16A49SeNvHwZ0fauiv1gwCQxEBQwHbI0teC4wkEgJPm2vK7O3UGet+/TxAtmLCxqL4V/Y8da/sB1AoCQFoCgU6wqSHai77iUfGhTRZiIAbCfc38tXjVVvZcZpPdyid4rNG9BG7v6+5JqFdTFwgA+N/Rmbq71oVisK04mMvADeTIEtu7Q8+8v88KfBf7Rl82RW8cj7SA85vD90pXUvVh3CcAYNcPdWn7jHC2uNu2Bv2F5YhImT/ENJuwdrdt1nWsva4vleLxYTdxvBjmyZtEPa74TMZ2AgBy9+AXFfuIw0R3OyBEB8YRtkf3d32DOY8biOIX4e+209xz9tr6AvtUpt+ui/LMb/Hs7y3OEWNsN0Ff7vNCnUzJPSQAILrBopioLQ4VJ4tLbbLTcFvONJ39DBBCQV9ia7un2QS7Z+3V9M32ev4021e+jq/L6CJcaqyfMS6xtx/zPO0TenRxDe4pAQDu7naomxwdLE6wV6wDxeM28OggPsmWRv1iaX4NxS7R9HWtHpf9g5hsn5+eFv+y3e0utlnzuk98CyvmZdnNLVfPYWHbJvhqW0qchL1FniDkEQCQzAGrkNhdVNfNPGy+wlE2Aet0cZHtMHarFY4nLFC8YSsgNgUK/ca7mqIb+Fr25VbE59pnoUm2aZV+M/6n7UuvE0+72Vp3PXa2lh2KlZc+HvrzU9I+ddxmp+wl6RnQvncu95kAAOR0QCy4WaDY135ZHmazm9uJY8RxunmIfdLoYa+TzxLnid72y/Qy28DlKity+ov1Fvu+fLcVv/vFEDHU3nQMszkUI8W/xUu2bGycrcp4R3xgv4Z1PfVn4ivbBlZnoE+1UDPR/m/G2n/nWftv67LPB8W99hlGQ9H19jdebm9detm16C/rk2yCVwcLVa0tYOnuk/uJumIv3XZWVLAJo0WTtoY9YUvzqtkbNl2p8Km9ZUli+NR9T6pz3wkAAJCmQl/ZXuOfZZ/RRltAXJGS5Zhn0Q8IAACQ1CKvh+e00iVt9vp+pL0RSvNuny8mZbtkAgAApHNdvb6mb2Q7BZ5sn5VusSNyP2V57TY0+LSj/xAA4NdgV8LWWeu64j10W1RRXHcUo32QkCWw1W0Z3dE20bGPzQcZbHMzJlhRn+3ZmnoX/GxzcPLQ3wgA8GdgrG8T1XZ1xvlym50/25aC6Yz9KeJdm8X/om3c8oRNphtkr0Ovswl4fWzDkp428amj/ao6yAbl+rb0sLJN/Cthy6BYRpbOyZ+lbEvsmjYBtKntX9HWJkN2tx0x+9iJm1rI77CJlSNtouYXtg0uK0rCPRL5YiabEgDg30CrR4HO92QN+l+2DvoP2ylupgWRb+y141Sblf/2VrPun7NZ949ZMLnPZv5rOLnRTkXrZ5si6evdc23Jov5CPNFWGHS21QadLLi0t0J0lIWYw21W/iG2d0JLO3zlQJul31g0tNn6Wszq2c6NdWyZXU37dapvXqpaCKpob2HK2jK8UhaKitmr6cK2X0Mx+38vbcGpvBXOKvbfq26rA2rbv1nPlmjub3/XAXZsdUv72w+1lRZt7Pra2cqDTtYGXSzAnWxt1NPa60wLeL1soxpd7nmTuMt+YT9uv7Jfslnh79uGMNPtXs631+nrKapemGP7ExRnLCUAwM8AMISBDEAGptmrfj4NEgDgeQD4iQENQA4+AY7SN0SMmwQAJCcATGdwA7ADv9pmWXsyXhIAkLwA8ACDHICtjloeYnNB2P6ZAIAEB4CankwCBBCeZTZRtj3f9gkASN8ywAkMgkCqzLfTHHWlSxHGQgIA0h0EatjSrrvtoBt2OAOSY7XtjdDfdjZkwx4CALDDQJDX3g6cbuu49dS7VQykgDem22mT+mq/KOMaAQDITSgoYBvadLf90HWjnW9tmRADLhCfRbbB0q22cVVVxiwCABDV1q372vfE6+2glK/YghUIxZ+2ffed4iTd6ZFxCAQAuBYM8tv2s51ty91nbNvevxjEgV1aYYcTPWfbVnez54nleSAAwOv5Bbo//TF2kMuTtpf/cgZ9pIyefTBDvG7f6y8QR9gxxEzUAwEAqQkGeeyAIj2Apq94xL5r/sDnBHhuoZhkp2VeaW/F9LNZYZ59EACAXYeDynZq3Sk2iD5kv5y+5fx2OLLUTk+nHCMG2gmJetx1WZ5hEACAcENCBTva9kQ74le3On5FfM2+BgiguP9iR07rJNd77C2V7p3RyvbRyMdzCAIA4GZAKGpzDw6yc+1725n1+qnhZZuHMFusoeClymJbtaJvkx61CXfniY62aU55vseDAACk53PD7rYR0hG270FfW3Y1zOYlfCkWiA0UUGcn1y2yCXaT7Djbe+3NkN7P1qK22I0+DwIAgGxXNJSyyYv72evgjlZkLrC5CgPtc4TuvT5WvCe+EDPFEitWFO0trbWT6X4U0+y8ilH2C123q75WXCR62moSbfcGNnu+BL/YQQAA4MsbhxJWvOrbRMd29n1ZX0VfZsslr7HX07eJu8R94kExVDwlRliRfEm8ZkXzXfsFPM1Cx3QrqrPE71Zk/7S9GdZZGFllcyb0F/Q8Oxf+Z/G9vSrXtelT7Hv4RHsj8qp40f79Eba0c6j9ffdZ0R5on1wG2J70vS0odbDPMjorvqooRr8AMvf/RNaJOreEjRIAAAAASUVORK5CYII=;" vertex="1" parent="a8zKuZkFYYWIh80umhkp-5">
          <mxGeometry x="10" y="12" width="60" height="60" as="geometry" />
        </mxCell>
        <mxCell id="a8zKuZkFYYWIh80umhkp-6" value="" style="shape=image;verticalLabelPosition=bottom;labelBackgroundColor=default;verticalAlign=top;aspect=fixed;imageAspect=0;image=data:image/png,iVBORw0KGgoAAAANSUhEUgAAAgAAAAIACAYAAAD0eNT6AAAABHNCSVQICAgIfAhkiAAAAAlwSFlzAAAOxAAADsQBlSsOGwAAABl0RVh0U29mdHdhcmUAd3d3Lmlua3NjYXBlLm9yZ5vuPBoAACAASURBVHic7d17sF1ned/x37vOPjq6S7ZlwDYWhnAzBmww4BiCMRkHAshkSMu00046mUlK23SSaTJt6KS5uNO09JZJ0vRG+k+n0yadUSchtowxFomAxNhxjI2JMAbFluVLfI4kS+eic917vf1jH1k6siWdvfda63nf9Xw/M5oMwd7rMV577d96L88rITeflxRr+vOZGur9TI31fn6dNdxeYw05/Fnvv9c7aq7jaUlb1llLVX5A0kIFtV/oz+0D1FPnvXjnAHUAKqwLAODGbkmfbfiavy1pY8PXBLJAAADQpM9KemtD1/obkj7R0LWA7BAAADRpg6TfaeA6myX9xwauA2SLAACgabdJ+ls1X+MOSdfUfA0gawQAABZ+S9KOmj77Okn/pKbPBlqDAADAwmsk/VoNnxvUn2IYr+GzgVYhAACw8nOSbqj4M/+epA9X/JlAKxEAAFgZU7+XQ1XPoR2SPlfRZwGtRwAAYOl9kn6yos/6nKQrKvosoPUIAACs/XtJu0b8jBtVTydLoLUIAACsXSbpX4/w9xeS/ov6UwoA1okAACAFPy3p5iH/3n8o6aYKawFcIAAASEGh/oLAzoB/36sk/Xr15QDtRwAAkIp3SPqZAf+e/yDpkhpqAVqPAAAgJf9K0pXr/Gt/SNJP1FgL0GoEAAAp2a7+W/3FdNRf+BfqLQdoLwIAgNT8HUk/fJG/5hckvbOBWoDWIgAASNF/kzRxnv/uakm/0mAtQCsRAACk6M3qv+W/kt+StLXBWoBWIgAASNWvSHr9Of+/j0r6cYNagNYhAABI1SZJv3nWf56Q9J+MagFaZ9CmG2i33er3VK/6M4Fh/Zik2yXdJemX1J8aAFABAgDO9i9W/7TNXap+u1is+PPOxta2tf6zpCOSftG6EKBNmAIAkLrdkr4maaN1IUCbEAAA5GC7dQFA2xAAAABwiAAAAIBDBAAAABwiAAAA4BABAAAAhwgAAAA4RAAAAMAhAgAAAA4RAAA0oef8+kByCAAAmvCbF/9LavNtSfsNrw8kiQAAoAm/Lel+g+uWkv6BpGWDawNJIwAAaEIp6ackLTZ83d+Q9I2GrwlkgQAAoCnflfRvG7zeU5L+ZYPXA7JCAADQpH8t6ZEGrhMlfUbSqQauBWSJAACgSV315+TrXpX/u2LhH3BBBAAATXtI0m/V+PnPS/rnNX4+0AoEAAAWflXSoZo++2cknazps4HWIAAAsDAv6e+rP1dfpd+T9EcVfybQSgQAAFYOSPofFX7ecUk/X+HnAa1GAABg6Z9Jeraiz/o5SVMVfRbQeh3rApCU31V/hXaVPiPp8xV/JtpjRtI/1ujD9nerP/zv2S2S/sK4hp+X9HXjGrBOBAAA1u6U9H8l/e0h//4ZSf+ounKytUPSjcY17DS+PgbAFACAFPyshh++/0VJz1RYC+ACAQBACo5J+oUh/r6vqj91BWBABAAAqfg/GmwtwILq2UoIuEAAAJCSQZr4/Kqk79dYC9BqBAAAKXle0i+t4697RPW2EwZajwAAIDX/XdJXLvDfdyX91Or/BTAkAgCA1ET1t/UtnOe//zdq5khhoNUIAABS9H1Jd7zC//+7kj7XbClAOxEAAKTqN7S2s10p6aclLdqUA7QLAQBAqnrqz/WvrP7n35b0Z3blAO1CAACQssck/TtJh9Xf9gegIpwFACB1v67+eQFz1oUAbcIIAIDULUl6yLoIoG0IAAAAOEQAAADAIQIAAAAOEQAAAHCIAAAAgEMEAAAAHCIAAADgEAEAAAAAAAAAAAAAAAAAAAAAAAAAAAAAAAAAAAAAAAAAAAAAAAAAAAAAAAAAAAAAAAAAAAAAAAAAAAAAAAAAAAAAAAAAAAAAAAAAAAAAAAAAAAAAAAAAAAAAAAAAAAAAALAewbqAXMRPvv4t6vU+ZF0HAOACxsa+Gu586gnrMnLQsS4gG2X5NgV93roMAMAFxO6nJBEA1qGwLiAbUZPWJQAALiIWPKvXiQCwXmXJTQUAqYuRZ/U6EQDWa3zzlHUJAICL2LzAs3qdWAQ4gLhn9ylJm63rAAC8ovmw78gW6yJywQjAIKJIlgCQLob/B0AAGEQRuLkAIFnM/w+CADAIFpcAQLoiL2mDIAAMhpsLAFJV8IweBAFgEDGwBgAAUhUjz+gBEAAGwhQAAKSLJkCDIAAMguElAEgX67QGQgAYCN0AASBZBICBEAAGUY4xvwQAqep0CAADIAAMotvj5gKAVPV6vKQNgFbAA4hS0J7di5I2WNcCAFhjWfuObAxStC4kF4wADGD1xjpqXQcA4GWm+PEfDAFgcEwDAEB6eDYPiAAwMFaZAkCCeDYPiAAwqEA3QABID+cADIoAMKhIygSA5ATaAA+KADAwpgAAID08mwdFABgYvaYBID08mwdFABhUwTATACSHNsADIwAMjPMAACA5BICBEQAGNs5NBgCp2bCB0dkBEQAGNfHUMUk96zIAAC/pqfNXx62LyA0BYEBhr3qSuNEAIB3HVp/NGAABYBiBXgAAkA6aAA2DADAMmgEBQDpYADiUjnUBeYpTnKSMVrjCugC0ynFJywbXLXgpGwYjAMOINJwAgJcprS7MCMAwCABD4WYDgJexCgCRQ9qGQQAYRkEAAIA1ogwDAFMAwyAADCMWpE0AOJvZ8L+kSIfWYRAAhsGKUwBYyzIAdMZ4Jg+BADCMssfNBgBnswwAZY9R2SEQAIaxdeeU+jNeAADJskF61KYdR82unjECwBDC3oPLkk5a1wEAybAbATix+kzGgAgAw2MaAABOswsAPIuHRAAYVhBzTgBwGk2AskMAGB43HQCcZhYAOAhoWASAYbEVEADOYAogOwSAoXEeAAC8xGoXQIhMxw6JADCsyE0HAC8xGwHgZWxYBIBhcR4AAPSZtgHmWTwsAsDQaD0JAJJsA4A4B2BYBIChkToBQJLxOQAdpmOHRAAY2goBAAAkyzbAUm+ZADAkAsCQwl3Pz0uas64DAMzZBYDZ1WcxhkAAGA3JEwDsjkZjJHYEBIDRcPMBgNUagMgzeBQEgJHQghIAzAIA27FHQgAYBftPAUDqWl2YJkCjIACMhpsPAMymAOjIOgoCwChC4OYDAKtFgIzCjoQAMBJuPgDOlTLcBcAUwCgIAKMgfQLwzrIL4BjP4FEQAEYR6UENwDnLLoBlyTTsCAgAo1ieIAAA8M1yBKC3kWfwCAgAIwj7n5yWtGhdBwCYsQsAi+GeQzNmV28BAsDojloXAABm7AIAb/8jIgCMilaUADwjAGSLADCqgpsQgGMEgGwRAEbFVkAAntntAuDZOyICwMg4EAiAY1YjAHRiHRkBYFRR3IQA/DKbAmD0dVQEgFFxHCUAryzbADP9OjICwMjoRQ3AKcsmQBrj2TsiAsDISKEAnLIMAIwAjIwAMKruMmsAAPhkGQA2dHn2jogAMKqbXjguqWtdBgA0zi4AdHX9cyfMrt4SBIARhTtUSjpmXQcANM4uAEytPnsxAgJAJZiLAuAQTYCyRgCoBM2AADhkFQACz9wqdKwLaAl3N+PsZ35d6oxbl4ERFJu3avOubQqLc9alYBTf/hPp/r0216YJUNYIAFUIcUoxWFfRqJW33qjykldZl4ERdDodhZ07rcvAqJ593O7aVgGADqyVYAqgCtFfM6Bi5kXrEgBI0ozhGmSzAMAUQBUIAJXwNxxVTB+3LgGAJE0ftblulF0bYIfP3DoQAKrgsCNVMUMAAJIwYxQALDfhjflbd1UHAkAVor+e1IERACANVgHAbgugpNLdM7cOBIAqdHruFqSwBgBIQIx2awAsRwC6HXfP3DoQAKow88yUjM/FaloxTQAAzC3MSN1lm2vbPfFKzR+m+2oFCAAVCAfUleSqLzVrAIAEWC0AlAwDQDi++szFiAgAVYm+FqUwBQAkwGr+XzJcA+Bv0XVdCABVKXwFABYBAgmYNpwKt5sCcPWsrRMBoCrOGlMUp6alLqNwgCmPTYAYAagMAaAy0deq1BhVzLla9gCkx2MACMHXs7ZGBICquGwGxDoAwJTlGgCmALJHAKhK4fA8ANYBALYs2wCbnQPg72WrLgSAyvi7KVkICBibddgGWP5etupCAKhKLN3NSzEFABizGgGwDACMAFSGAFCVctzdTUkAAAzFUpo1+g5aBoBO193LVl0IAFWZ95dK6QYIGJo7IZVGW3EtA8DyZgJARQgAFQkHDi9KmrGuo0ksAgQMWTYBsjsJ8GS459CS2dVbhgBQLVejAEwBAIbYAogREQCq5ermZBcAYMiyCZDVCEDw9YytGwGgSsFXN8Biblrq0Q4YMOHyJEACQJUIAJVytj81lv0QAKB5HqcAoq+XrLoRAKrkcH8q6wAAIy4DgLOXrJoRACrlMABMG85DAp5ZrQGwbAPs8BlbJwJAlWLhbniKhYCAEasRAMseAAUBoEoEgCqN+bs5mQIAjHhsA6wxd8/YOhEAKlW6uznpBggYKLvSqZNG17a5bP/a/s5cqRMBoFJbHAYARgCAxs0c658FYMEyAKwsuXvG1okAUKFw5xOzkuat62hSMU0AABpn2QPArg3wqfDlyVNmV28hAkDVolwNUbEIEDBg2QWQJkCtQQCoWhFc3aSsAQAMeOwBQACoHAGgas46VRVz01JpNyYIuGR5EqBZAPD1ctUEAkD1fN2kZY92wEDTPE4BODtrpQkEgKpFfymVaQCgYbMOTwKkC2DlCACV83eTshAQaJjHkwA5B6ByBICqORymYisg0LAZo8eMaRdAfy9XdSMAVM5fq0qaAQEN89gG2OFpq3UjAFTN4U3KGgCgQStL0sKszbUtA8BYx93oat0IAFXr9hwGAEYAgMZY9gCw3PHLSYCVIwBU7d5nT0hati6jSQWLAIHm+AwAS/rCYfYbV4wAULEgRUmG39DmhWnDLUmANx53AEhTq89WVIgAUA9Xc1VMAQAN8tgGODprsNYQAkAdgq9mQMXsSbujSQFvLLsAWr2DFwSAOnSsC2gnZ4tVVtsBl9susa5kIGF+VhsOPmhdhpli81bFXdsUFuesS8EgnnrE7tpdo+s63F3VBAJAHRwOV4Xp41JmAaBYmNO2//pZ6zJsXWFdALJidxCQq2nVpjAFUIfo72bNcR1Auf1S6xKAvFhNATh8qWoCAaAW/oarctwKGMcnFDduti4DyEMpwzUA/p6pTSAA1GHMX1rNtRtguf0y6xKAPJiu8+UgoDoQAGpRurtZc5wCkKRyBwEAWBfLLoBl6W5atQkEgFqMEwAywToAYJ0sRwDKFXfP1CYQAOow8dQx2eblxoUM1wBIUtyxy7oEIA92AaCnm17I8wGTOAJADcJe9aSQ5yvxkHJcBChJ5Q5GAIB1sQsAR8MdtisQ2ooAUBtfq1aZAgBazuwn2NeztEkEgPq4ummL2RNZtgMmAADrZNcEyNWztEkEgNo4S629ropTM9ZVDIxtgMA62a1q8vUsbRABoC7R377VHBcCRrYBAutjFQBCZAtgTQgAdSn83bQ5rgNgCgBYJ7M2wP5epppCAKiLw9OrcuwGGCc2KU7QDhi4IMs2wN6mUxtEAKiNv9RaTOc3AiCxFRC4KMv1vQ5fpppCAKiLw5s2xykAiWkA4KIsA8BY4W46tSkEgLqUPXcBIMdFgBILAYGLMt3h6+9slaYQAOqydeeUDGfNLOS4BkBiKyBwUXYBIOq5Vx01u3rLEQBqEvYeXJY0bV1Hk7JtB8wUAHBhdgHgxfDwwytmV285AkC9XA1dsQYAaCmrHgDR1zO0aQSAOgVfN28x+6IU85v1YAoAuAirAFD4eoY2jQBQL183b7erkGE74LiTAABckNUUQOQcgDoRAOrEVsAsMAIAXITdSYBsAawRAaBO0d/+1SwDAI2AgAszGwHw9xLVJAJArfzdvMX0MesSBhYnNitObLIuA0hTlN2G5sJfR9UmEQDqVDgMABmOAEhSue0S6xKANNkdAyyPL1FNIgDUaszdzZtrAKAbIHAepucAlO6mUZtEAKhT6e/mDRlOAUgsBATOyzIAlOPuXqKaRACo08qSu5s31xEAFgIC52EZALasuHuJahIBoEbhy5OnJJ2yrqNJ2R4JzAgA8MrsAsBM2PvsgtnVHSAA1M/VKAAjAEDL2C0CdPXstEAAqJ+rmzjMHM+yHXDcscu6BCBNdiMArp6dFggAtfPVyjJ0VxTmZ63LGBgHAgHnQQBoLQJA3YK/VpY5TgMQAIDzsAoAIbh7djaNAFA7f40sipnj1iUMjEWAwHnQBri1CAB1i/5aWeY4AhA3bVEcn7AuA0hLlOVBQO6enU0jANTO302c61bAyE4AYC3LHgDy9/LUNAJA3RwOY4Xp/KYAJKYBgJexDACFv/VTTSMA1G2s4+4mznENgCSVnAcArGV6EFDp7uWpaQSAunEiYDbYCQCcw3QKYIu7Z2fTCAA1C184fFLSonUdTSqynQIgAABr2AWAhXDnE/k1FMkMAaAZR60LaFK2UwCsAQDWMtsCSBOgJhAAmuDsZg6ZTgFE1gAAa1mtASh8dVC1QgBoQuEsAKwsK8zPWZcxMKYAgHPQBKjVCABNiP5aWuY4DcAuAOAcdmsA3D0zLRAAGuEvzea4E4ARAOAcZiMATAE0oWNdgAtRkwrWRTQrx50AcfM2nfy1/21dRmPGNm7W1st2KCwvWJeCC/m9X5aeerT569IGuPUIAE0o4qSirwSQazfA7jXXWpfQnE5HYedO6ypwMStLNtc17QLoa92UFaYAmsAaAADDmjHaRWzaBIgugE0gADTB4YrWHNcAAMkpe9LcCaNr21y2f+0xdy9NFggATShXCAAABnfqZD8EWLAMAN2eu2emBQJAE2564bikrnUZTSIAABWwGv6X7JoABa3o3meNhj18IQA0INyhUtIx6zqaFE66+scF6jFj+D2yawM8Ffp7EFAzAkBjfK0DYAQAqIDHACB2ADSFANAUZzsBwsqSwsIp6zKAvFlOAdADoPUIAE1xuK+VrYDAiDyOAARfL0uWCACN8ZdqmQYARmQZAKwWATo7PdUSAaApsXB3UxMAgBF5HAFw+LJkhQDQGH83dZhmJwAwklmPXQD9vSxZIQA0pSzdzWsV04wAACOxGgGwDAAOO6daIQA0pTPm7qZmCgAYQYzSrNFCWssAMObvZckKAaAx/g63IAAAI5g/KfWMGohaLQCUJI27e1ZaIQA0ZeaZKRnPrDWtYA0AMDyPOwCkUjNPsX+4IQSAhoQD6kpy1d86TPM9BobmcgeAjq0+K9EAAkCTnO1vZQoAGIHHLoDB1zPSGgGgSSG6WtwSlhcVluatywDy5HEEwNlLkjUCQKOCu5ubrYDAkKx2AEiGawB8vSRZIwA0y18AYBoAGI7HKQCHHVMtEQCa5LDBBQsBgSFZTgFEswu7e0ZaIgA0qSjcDW+xFRAYkmUXQKsAUBAAmkQAaJLDEQCmAIAhWU0BcA6AGwSARtENEMA6WS0CtOwCWLIIsEkEgCaV/lpcFjOsAQAGtjArrSzZXNtyBKDsuXtGWiIANGne3xQAiwCBIXjcASBFaZPhP7g/BIAGhQOHFyXNWNfRJKYAgCF4bAIknQz3HDIa9vCJANA8V3NcNAIChuAzALgbIbVGAGias1aXYWleYWnBugwgLy4DgL9OqdYIAE1zuM+VaQBgQJZrAKx2ATg7KyUFBIDG+dvnykJAYECzhiMAVgHAYZ8UawSApkV/KZetgMCAXLYB9vdyZI0A0DSHKZcpAGBAVlMAUZwD4AgBoHH+Ui4BABiQ1QiAZRdAhy9H1ggATRvzd5OzFRAYkFUbYMsugMWYu+lRawSAxvk7DyBwIiCwfkunpKV5m2ubHgTk7+XIGgGgcVvc3eRMAQADcNkDQNLSIiMADSMANCzc+cSsJFedcQq2AQLr5zMAzIUvT54yu7pTBAAbrpIu2wCBAVgGALMmQL46pKaCAGDD1c0eFucVlhetywDy4LELoLMW6akgANhwd7MXsyesSwDy4HIKgAWAFggANtzd7OEkOwGAdbHaAijZBYAYXE2LpoIAYCH6O/WKnQDAOllOAXAUsCsd6wJcKuKUXbtNGxPf+KLGnn/KugycJWzZrvjaXe1dn7H9MumGj1pXMTirEQDLNsAOT0lNAQHAQoyTUrCuolETD+3XxEP7rcvAua6wLqBG192aZwCYNhoBsGwD7LBFegqYAjAxxs0O1G37LusKhmM1BWDZBKgsWQNggABggUMvgPrlGABWlqTFOZtrWwaA6K9FegoIABY2dEm7QN1yDAAutwBKWp4gABggAFj4w+deVNCKdRlAq22/3LqCwfncAbAY9j85bXZ1xwgABoIUFWX4TQccYARgMGaLACMjokYIAHYY8gLqlGMAmPU4BeCvL0oqCABWAjc9UCumAAZDEyB3CABm2AkA1KYYk7bstK5icC4XATIFYIUAYCX6OhIYaNTWS/ohIDcuAwCjoVYIAFYcngcANCbH4X/JLgBEMQXgEAHADFMAQG1yXAAo+ewCSGM0MwQAK2OkXqA22QYAoxEAywBQFEyHGiEAWCnHuOmBumzLMAB0V6SFGZtrmx4ExAiAFQKAlZKbHqhNjmsAZo9J0eg8XssRAHV5FhohAFjZcviojL92QGvlOAXgcgeAurrx+RfNru4cAcBI2KueFI5b1wG0EgFgMFYBIOhouIMXISsEAFNMAwC1yHEKwLILoNUagMhiaEsEAFvc/EAdchwBcHkOAM9ASwQAU4wAAJULQdp6qXUVg5sxnBG0CwDshjJEALAUAjc/ULUtl0hjHesqBufxICCaAJkiANji5geqluPwv+SzDXBR8Aw0lGFMbpEYJ6VgXUWjFn/ok1p55wesyxjYtt/95X6jFqQv1wBgtQbAdA0+IwCWCACmisl+/PajvPTVWnrvbdZlDGzL7/+GihPM2GQhxx0Aks82wCVHAVtiCsBSWbq7+YuZPHt+lNsusS4B65XjCEDZk+ZOGF3b5rKSpDjGCIAhAoCl8Z67mz/bALDjMusSsF45BoC5F6Vo9EtsGQB6TAFYIgBYWt48JWdzAIXlVqcRxO0ZbivzKseDgCy7ANodBBR1bJfhPzgIAIbCPYeWJE1b19GkMJ1nACgJAPnIcQ2Axy2A0vHw8MOsrDVEALDnaggs2ykAAkA+cpwC8HgOgLNnX4oIANaCry9BWFpQWFqwLmNgBICMEAAGQwBwiwBgLfprhZnjKABrADIRgrQtwwWbLqcA6IRqjQBgzt8q2BzXAZTbM/xR8WjTdqmzwbqKwblcBOjv2ZcaAoC16K8VZo47Acrt9AHIQo7D/xJTADBBADDnLwXnOAVQbrtECnxdkpfjDgDJbgrAtAlQcPfsSw1PNGuFv1aYOQYAjXUUt2y3rgIXwwjAYCwDgMNnX2oIANY8TgFMZxgAxE6ALOQYAGLpsw2ww9HP1BAArDk8DztM59n8i3UAGcgxAMydkMquzbXtugBKGnf37EsNAcDaypK7L0GWUwBiJ0AWclwD4HIHgKRZf4ehpYYAYCx8efKUpFPWdTQp3wDACEDycjwHYNbhDoCg6XDg8KLR1bGKAJAGV6MAOW4DlKTICED6cpwC8LgFkB0ASSAAJMHXatiwcEphZcm6jIGxCDADWU4BeOwC6G/tU4oIAClwmIZDhjsBmALIQI6jNJYjYna7AFy99KSKAJCCwtcUgJTnNACLABO3cas0vtG6isF5XAPg8KUnRQSAJPgbDstxIWDcQQBIWo7D/5LPKYDC3zMvRQSAFHhsBpRhAGANQOJyXAAo2XYBjDaXlrOFz6kiAKQg+loEKOU5BRA3bFSc2GRdBs6HADAYugC6RwBIgctugPkFAIlRgKTlOAUQozRr9F2wbAJUFu5eelJEAEhBp+MuAOR6HkAkAKQrxxGAhRmpu2xzbcsRgLJ098xLEQEgBQ4XxOS4BkBiJ0DScgwAHpsASdLWRXfPvBQRABIQvnD4pKT8OuOMIMc1ABK9AJKWZQBwuANAWgh7j86ZXR0vIQCkw9WcWL4jAEwBJCvHNQA+RwBeMLsy1iAApMNVAAjzswrdFesyBsZ5AAnL8SAglwHA35RnqggA6fD1pYhRIcNRgHIHIwDJynIKwONRwMHVy07KCADJ8NcaM8dpgHIbASBJE5v7f3JjuQbAbhugu2ddqggAyfA3LJZlAGANQJpyfPuXbEcAzLoA+nvWpYoAkIpAN8AcsAsgUTnO/0t2BwFFGQYAf63PU0UASIa/L0WO3QDjlh1Sp2NdBs6V4w4AyW4KwLIHgMPOp6kiAKTC4ZcixykAhaByK6MAycl2CsAoBHdtLitJKkp3o52pIgCkggCQjeV3f1hx8zbrMnDarqulN99kXcXgFk9JK4s217Y7BVCSv9bnqWIsMxXlyqTGNlhX0agiwykASZr7ic9q7u/+U3WOfE/jBx/Uhsf/XJ0nvpllX4MsTWyR3vAu6dof6v953TusKxrOjOGLMOcAQASAdNz0wnH9xe6uHP07yXUEQJJUjKl7zbXqXnOtFj7xkwrLi+p8/1va8Pifa/zgg+o8/d3+SW8YXdGRrr72zA/+m39QGmvB18RlEyAt6+4jJ82ujjVa8C1qh3CHyrhHxyW92rqWpuS4CPB84oaNWrnuJq1cd5P0N39WxewJjX/3YY1/50Ft+Pb9Ko7T/XQgl+8+84N/3YekjVutK6qeyyZAmgrGExA4gwCQlDApRTcBoDg1LXW7rVxVX267REvvvU1L771NkjR29DmNH3ywHwgOPqgwP2tcYWK275LedFP/B/8dH5YuucK6ovrRBAjG2vfkzVmMkwrWRTQoRhVzJ1XuzHQF9wB6l1+l3q0/rsVbf1wqe2vWD4w/8U3J2/qBic3SG9595i1/99ul4OnmlzRrOAJmdw4AOwASQgBISaFJb4NjxcyLLgLAGueuH1haUOfQY+1eP1CMSVe/8u2mAAAAEeNJREFU7cwP/ptukjrj1lXZ8rgGIPpreZ4yAkBS4qRcDQHk2Q2wanFi09r1AzMvavyJb/anCx67X8WLma4fOHse/9oPSpu3W1eUFsspAKsAUDAFkBICQEqiv1Oy2rQQsCrl9ksvsH7gAYX5OeMKz2PbZf0V+qcX7l12lXVFabMaATBtA+yv30nKCAApifK1BkCZbwVsyJr1A72uOs98/6z1Aw/3F1JaGN8ovfE9Z83jXycFeoutm1UAsFsAKI8tz1NGAEhJLCe9PUAJAAMa65yzfmBenUPfPrN+4PDj9V07FP0f+dM/+G98rzQ+Ud/12s4qAJg2AWIRYEoIACnpjE2qbNnir4sgAIwmTmxeu35g+rjGv/dIf7rgW3+q4sSIz9uz5/Hf+n5pC+cgVGJ5QVo6ZXNt04OA6AKYEgJAUkqHiwAJAFUqd1x2/vUD375fYXH+wh9wdpvd62+TrnhTA1U75HEHgCRNTBAAEkIASMnMM1PaujvKUQoI04YPQgcuuH7guw/3jwNrY5vd1PkMAD11/opVvwnhm56QcEDduEcnJF1qXUtTGAFo0DnrBzpL89r5qlczj29h1mUb4GNhr+0SRKzla8VZHlwNkRWzJ6WSZ4KJLdv58bcy7bAHgGgClBoCQHKc7ZMteypOzVhXATTLcgSANsBYRQBIjr+UTDMguOOxC6Cz0c0cEADS4+5LwjoAuONyEaC/l5vUEQBSE/wNkxEA4I5lG2C7KQACQGIIAMnx1yqTA4HgjscugNHf6GbqCACpif5SMiMAcMdqDYBlACj8HXaWOgJAcvy1ygwnGQGAI91ladHoREfbHbfunm2pIwCkptNxl5KZAoArM8ekaHTmh+kUQI8AkBgCQGrGu+6+JEwBwBWfWwCjNu0w/AfHKyEAJCbsfXZB0qx1HU0iAMAVl1sAdSLsPbhsdnW8IgJAmlyNAhSzL9oNiQJNswwAdmsAXD3TckEASJG37TLdrgLtgOGFyykAdgCkiACQooKtgEBrzRouerUKAA63N+eAAJCi6C8tEwDghsc1AIWzUc1MEADS5O7LwlZAuGE1BUAbYJyDAJAih8NljADADY9tgB22OM8BASBJ/r4sHAkMNzwGgLJ0N62ZAwJAigqHJwISAOBB2ZXmp42ubXNZSS5HNXNAAEhR9HceAFMAcGHmuBSNfoktA8CGjrtnWg4IACnqbXT3ZRn768PqPPUdu4cjULfFOenRe+2ub3kQUG/Z3ahmDoJ1AXhlcc/ueUmbrOtoWrntEq1cd5OW3/F+rbz9ZpXbL7UuqbU6nY527txpXUZ7xVI6clB6/E/7f77/oNRdsatnRtIpkyvPhn1HtptcGRfUsS4A5zUl6XXWRTStmD2hiQe+pIkHviRJ6l1+lZZvuEXL139Q3be8W7EzblwhcAGzx6XvPdD/wX/sK9LJhAbz7AbXEvofAWcjAKRrUg4DwLnGjj6nTff9vjbd9/uKGzaq+6brtXzt+7T8rlvUu/IN1uXBu7IrPfmo9Nj+/o/+kb9M91wLsy6ABIBUEQDSxZfmHGF5UeMHH9T4wQe15f/9jnqXX6WV627Syttu0vLbb1bctMW6RHhw9MiZYf2DX+3P7efAag1A8LerKRcEgFTFOKXAEo0LGTv6nMYO/IE2HvgDaayj7tVvOjNd8Lq3iv/9UImleenJb/aH9B/9snT8WeuKhmN3EBAvM4kiAKSqKCaTHUpMUa+rzuHH1Tn8uDZ/4fP9xYRvvbE/OnDDLSp37rKuELlIbfFeVVgDgHMQAJJF44xRFLMnNPHQfk08tF/6X59T93Vv6e8uuPZ9WnnLjVKHWx9nOXvx3rf2S9MtG7WmCRBeAU/BVMU4yS7NisTypdGBTXf/T8WJzVq59j1avv6DWn77zSp3XWFdIZqW0+K9KlgGgKJoWZpqDwJAqmIxpdDiB5KhsDSvDY9+TRse/ZokrV1M+I73K27cbFwharFm8d4BadFmU7wJ0/5ajACkigCQqk6cNO3c5cjZiwnj+IS6b76hP1Vw3U0sJszZ0inpiQf6b/kHvyodf866IjuWzxKHrc1zwZMtUfFTV12mlTGjY8NwWrnjMq28/eb+dMHb3qe4pT0NzVrXCbDsSc9858xb/vcekHpd66rSMCdp1ujavQ07wj2HZoyujgsgACQqSkG3715SFK3vUlGMqbv7zWcWE771Rmks30G0VgSAmWP9VfqPfaX/59RJ64rSZNcGeDHsO+KupXkuCAAJi3t2PyfpSus68Mri1p1avvY9/bUD7/yAyktfbV3SQLIMACuL0qG/OPOW3/bFe1U5KWnB5MpPh31HrjG5Mi4q39cXHyZFAEhWmDt5ZquhOLegNp4X71WFHgB4BQSAtLF9JiOcW1CRsxfv/eUB6cXnrSvKn10A4BmWMAJA2kjPmbrguQXX/aDi5q3WJaaDxXv1MzsIiC2AKSMApI0vT0twbsE5Zo5K3/l6v+ve438qzU9bV9RuVgGgKHiGJYwAkLIYJmkG1EIezy1g8Z6dUpLZ/9SMAKSMAJCyIk7ZfXHRlAufW/BuKdfFhKcX7z32Fenxr0srS9YV+WTZBbDkKOCUEQCSxnkA7rzs3IJN6r7xnVq+4RYt3fChtM8tOHVC+u79/R99Fu+lw7SjKFMAKePXJWFxz+uvl3qPWteBdFR5bsHIfQDOXbz3xAP9Q3aQlgX1+wBYGNN14Y+OfMfo6rgIAkDC4seveY2K8q+t60Ca4vgGdd/8rqHPLRgqALB4Lz+n1O8EaGG8tyv84XPHja6OiyAAJCx+WmNa2L0sqbCuBekrt1+qlbe8+6XdBRc7t2BdAeDcxXtPf7vCitGIWfXPAmheV+85MhHusD2LEOdHAEhc3PO6KSlebl0HMrOOcwvOGwBYvNcu05LmTa78fNh35CqTK2NdWASYvDgliQCAwZS9tYsJ15xb8H6Vl77mzF87d0J6gsV7rUUbYJwHASB9k5Kusy4CeVtzbkEI6r72jeq+9zaV84dUPPYVKTJK21p2uwDYApg4AkDqaAaEqsWozjPfV+eZ70sJ7ypERewCACMAiWNxWeoKOmkBGIHd+wPPrsQRANLHlwjAcKLsAkAMPLsSRwBIXRmYRwMwHMulHQVtgFNHAEgfKRrAcEwbMzJ9mToCQOpiyZcIwHAsRwBih2dX4ggAqRvv8SUCMBzbkwB5diWOAJC65c1TslzHCyBfdk+OUvOHj5ldHetCAEhcuOfQkvrNPAFgMGY9AMLxcMB2BQIujgCQBXYCABiCWQBg+D8HBIAs8GUCMAS7NQC8tGSAAJAHAgCAwVkFAJoAZYEAkAVGAAAMwSoA0MI8CxwGlIMQptgHAOCioqTl1T+L4hwAXBABIA98mQC8sp76P/ZL6v/wp/CyEBkByAEBIAtxUgrWRQBIQakzP/ZLsjzu9/xiwSLADBAAchCLyTRiPQATKzrzo5/KW/6F0MI8CwSAHMQ4yQAA4Mjpt/zTfyxb+g6DFuZZIADkYPPClBY2WVcBoC5nL95bUv+NP2fTG45al4CL470yE3HP7jlJW6zrQMtcYV2AYz2dGda3XbFftZNh35FLrIvAxTECkI8pSa+3LgLAkE6/5S+p/4Of4uK9ajD8nwkCQDbipBQIAEBOzl68t2RcS3PYAZAJAkAuYmAhIJC6s7foLSq/xXvVYAQgEwSAXBSabNEcIdAep9/yF5X/4r1K0AQoFwSAXMQ4xZpNIAFnL97LcYte3WJBAMgEASAbNAMCTLRti17tGAHIBQEgFzQDApqTYn/9XBSRRYCZIADkIsZJBRIAUAsW71WHKYBsEABy0elMqmzvxmGgcbn1188FJwFmgwCQi15viikAYAS599fPxcoSASAT/KRkIkpBe3YvSJqwrgUt0uZWwCzes3Aq7Duy1boIrA8jAJkIUozSUUmvta4FSFZ7++vngrf/jBAA8jIpAgBwhp/++plgB0BOCAB5IV0DXfV/7H31189DDDyjMkIAyEqgGRD8YYtePgpeUnJCAMhJiFP8/sMF+utnii2AOSEAZCVOsnEDrcTivTboKYZD1kVg/fg1yUj8tMY0v/sGSbdJul1BN0sqjMtCzqy2AbJFry1ekHSfou6StD/cfeSEdUFYPwJAxuLtV+5S2fmwCt2mqI+LHQIYVJMB4PRb/ukFfLzl52hB0p8par+k/br7yDcD/yazRQBokfiJ3W9Q0O2S9kj6oGgahIupMwCweK8tnlTQfkXt01xxXzhweNG6IFSDANBS8fYrN6vsvH91dOA2STda14QEVR0A6K/fBscV9McqtV+d7j3hj55/xrog1IMA4ET8+DWvUVF+REF7VgPBJdY1IQGjBgD667dBT9KjCtovaZ9uPHJ/uIN/kx4QABxas5gw6DYFfUhR49Z1wcCgASDqTCMeFu/l7CkF3adS+zVe3Be+cPikdUFoHgEAip+66jItj/1wf7og/qgUdlvXhIasJwCcvUWPt/xczUu6//TivXD3kYetC4I9AgBeJn5i9xsk3ba6fuBHJW2zrgk1eaUAQH/9tnhS0j5F3aVyw9fDPYdonIw1CAC4oPjp127SfPGBsxYTvlvcN+1xOgDQX78FwlGFeECl9iuUd4d9zz5nXRHSxoMcA4mffP2r1evdomK1GVFs9Yny7bdJDOvnqyvpWzr9lv/eI4+weA+DIABgaPEOFXpo97t0ejGhdIukDcZlAW3W35Nfar+WOl8O+5+cti4I+SIAoDLxI6/eovGJmxV0u6I+qaBrrGsCMndK0jf6i/fCneHupx+3LgjtQQBAbc5ZTPhRSdutawISV0p65KW3/M3bvhb2Hly2LgrtRABAI+Kt6mjL7uvPalXMYkKgb0pBX1Wp/RqL+8KdzzxvXRB84AEME/Fjr7lcxYZbV0cHPiHpKuuagIZ0FfWg1D9BjwN1YIUAgCTE23dfp1J7VhcTcpAR2ubM4r1yw73hnkMz1gUBBAAkh4OM0AJzkh6QtE/l2BfCF5962rog4FwEACTvnMWEPyJpp3VNwDnWLt574fKvhocf5qQEJI0AgKysOchIul1BN0sqjMuCT5MK+pqi9mml3BfuffZF64KAQRAAkLV4+5W7VHY+vDo68DFJV1vXhNZakPRnpw/UYfEeckcAQKu8NF3Q3254m6SNxiUhb2cW721euCfsPTpnXRBQFQIAWouDjDCE4wr6Y5Xar6LzpXDXk0esCwLqwsMQbsSPX/MaFeVHFLRnNRBcYl0TzPUkPcriPXhEAIBLaxYTBt2moA8paty6LjTiBUn3KfYb8YS7j5ywLgiwQAAAJMVPX75VC5s+vDo68FFJr7OuCZVZs3gv3H3kYeuCgBQQAIBXcE7vgR+VtM26Jgykv3gvap/mivvCgcOL1gUBqSEAABcRb1VH23b/oPTS2gEWE6bnmIL+pN9qt/fFcM9zz1oXBKSOhxgwoPipH3iVllc+pGK1GVHUFdY1OXRm8Z60TzceuT/codK6KCAnBABgBPEOFXpo97t0ejGhdIukDcZltdWZPfnjxX3hC4dPWhcE5IwAAFQofuTVWzQ+cfPq2oFPSrrWuqaMzUu6n8V7QD0IAECN1iwmlD6iqB3WNSUt6jsqdNfqsblfD/ccWrIuCWgrAgDQkHirOtqy+/rVNsV7JL1L7g8yCkcV4gGV2q9Q3h32PfucdUWAFwQAwEj82GsuV7Hh1tXpgk9Iusq6pgZ0JX1L0j5F3aX3HnmExXuADQIAkIj4id1vOGt04IOSJoxLqsqZxXtLnS+H/U9OWxcEgAAAJCnefuVmlZ33n3WQ0Y3WNQ3glKRvSNqnEO4Mdz39lHVBAF6OAABkIN7+uterjD+yGgh+RNJO65rOUkp65Myxudu+FvYeXLYuCsCFEQCAzLzsICPpVkmdhsuYUtBXVWq/uuGucO/Tf93w9QGMiAAAZC5+6qrLtDz2w6ujAx+TdHUNl+kq6kGpf4Ke7j7yzSDFGq4DoCEEAKBlXuo90F9QeJukjUN+1JnFe2ObvhTufGK2uioBWCMAAC0WP/3aTZovPnDWYsILHWQ0J+mAou5SHLs3fPGpp5urFEDTCACAI/HHrrxa5fhHpfgRRX1YioekcK8U7tWmp/887FXPukYAzfj/XvxX4DzaL8oAAAAASUVORK5CYII=;" vertex="1" parent="1">
          <mxGeometry x="325" y="250" width="80" height="80" as="geometry" />
        </mxCell>
        <mxCell id="a8zKuZkFYYWIh80umhkp-7" value="" style="shape=image;verticalLabelPosition=bottom;labelBackgroundColor=default;verticalAlign=top;aspect=fixed;imageAspect=0;image=data:image/png,iVBORw0KGgoAAAANSUhEUgAAAgAAAAIACAYAAAD0eNT6AAAABHNCSVQICAgIfAhkiAAAAAlwSFlzAAAOxAAADsQBlSsOGwAAABl0RVh0U29mdHdhcmUAd3d3Lmlua3NjYXBlLm9yZ5vuPBoAACAASURBVHic7d13kFRVwobxZwYkZwOKomJARVHWFRUzKKZVUVTMGDGsCTO6rphzDmvOYVVMKyZUMGJYxYSiAgZQERRFcpyZ74+zlOETGGa6+/Tt8/yqqKEEpl92m77vvSeVVX1FFZIkKSnlsQNIkqTCswBIkpQgC4AkSQmyAEiSlCALgCRJCbIASJKUIAuAJEkJsgBIkpQgC4AkSQmyAEiSlCALgCRJCbIASJKUIAuAJEkJsgBIkpQgC4AkSQmyAEiSlCALgCRJCbIASJKUIAuAJEkJsgBIkpQgC4AkSQmyAEiSlCALgCRJCbIASJKUIAuAJEkJsgBIkpQgC4AkSQmyAEiSlCALgCRJCbIASJKUIAuAJEkJsgBIkpQgC4AkSQmyAEiSlCALgCRJCbIASJKUIAuAJEkJsgBIkpQgC4AkSQmyAEiSlCALgCRJCbIASJKUIAuAJEkJsgBIkpQgC4AkSQmyAEiSlCALgCRJCbIASJKUIAuAJEkJsgBIkpQgC4AkSQmyAEiSlCALgCRJCbIASJKUIAuAJEkJsgBIkpQgC4AkSQmyAEiSlCALgCRJCbIASJKUIAuAJEkJsgBIkpQgC4AkSQmyAEiSlCALgCRJCbIASJKUIAuAJEkJsgBIkpQgC4AkSQmyAEiSlCALgCRJCbIASJKUIAuAJEkJsgBIkpQgC4AkSQmyAEiSlCALgCRJCbIASJKUIAuAJEkJsgBIkpQgC4AkSQmyAEiSlCALgCRJCbIASJKUIAuAJEkJsgBIkpQgC4AkSQmyAEiSlCALgCRJCbIASJKUIAuAJEkJsgBIkpQgC4AkSQmyAEiSlCALgCRJCbIASJKUIAuAJEkJsgBIkpQgC4AkSQmyAEiSlCALgCRJCbIASJKUIAuAJEkJsgBIkpQgC4AkSQmyAEiSlCALgCRJCbIASJKUIAuAJEkJsgBIkpQgC4AkSQmyAEiSlCALgCRJCbIASJKUIAuAJEkJsgBIkpQgC4AkSQmyAEiSlCALgCRJCbIASJKUIAuAJEkJsgBIkpQgC4AkSQmyAEiSlCALgCRJCbIASJKUIAuAJEkJsgBIkpQgC4AkSQmyAEiSlCALgCRJCbIASJKUIAuAJEkJsgBIkpQgC4AkSQmyAEiSlCALgCRJCbIASJKUIAuAJEkJsgBIkpQgC4AkSQmyAEiSlCALgCRJCbIASJKUIAuAJEkJsgBIkpQgC4AkSQmyAEiSlCALgCRJCbIASJKUIAuAJEkJsgBIkpQgC4AkSQmyAEiSlCALgCRJCbIASJKUIAuAJEkJsgBIkpQgC4AkSQmyAEiSlCALgCRJCbIASJKUIAuAJEkJsgBIkpQgC4AkSQmyAEiSlCALgCRJCbIASJKUIAuAJEkJsgBIkpQgC4AkSQmyAEiSlCALgCRJCbIASJKUIAuAJEkJsgBIkpQgC4AkSQmyAEiSlCALgCRJCbIASJKUIAuAJEkJsgBIkpQgC4AkSQmyAEiSlCALgCRJCbIASJKUIAuAJEkJsgBIkpQgC4AkSQmyAEiSlCALgCRJCbIASJKUIAuAJEkJsgBIkpQgC4AkSQmyAEiSlCALgCRJCbIASJKUIAuAJEkJsgBIkpQgC4AkSQmyAEiSlCALgCRJCbIASJKUIAuAJEkJsgBIkpQgC4AkSQmyAEiSlCALgCRJCbIASJKUIAuAJEkJsgBIkpQgC4AkSQmyAEiSlCALgCRJCbIASJKUIAuAJEkJsgBIkpQgC4AkSQmyAEiSlCALgCRJCbIASJKUIAuAJEkJsgBIkpQgC4AkSQmyAEiSlCALgCRJCbIASJKUIAuAJEkJsgBIkpQgC4AkSQmqGzuAJCm/5s2DCRPh2/Ew/kf48WeYPAV+mQKTp8LsOeH3TZ0efm9ZGbRo9uufb9EM6tSBVi2gVfPwdcmW4ecrLAfNm8b5e6l2LACSVCImTYb3P4GPPoORX8Gor2DU1/DN91BZmb/XbdkcVloeVl4hfF1rNVhvLVhnDWjSKH+vq9opq/qKqtghJEmLp6ICPhgBr78Lr70Dw4bD19/GTvV75eWw6orQqQNs2Am22hj+0iE8TVB8FgCpCA0eCnseHTtFza21Ggx9JHaK0jN2HDz3Cjz7cniPTJ0eO9Hia9YEttgQttwY/tY1vFcUhwVAKkLPvQI7HBQ7Rc2t0x6GD4qdojR8ORYefjr8eP+T2Glyr8PqsPv2sPsOYdhAheMcAEkqMlOmwYMD4Y6H4e0PYqfJrxGjwo/zroP27eCwveGgPWDpVrGTlT6XAUpSkfjwUzjkVGizERxxRulf/P9o5Fdw6kXQtgvsezy8+t/YiUqbBUCSInvuFei+P3TaEe4cANNnxE4U1+w58O8nYcu9YINd4MkXocrB6pyzAEhSJC8OhY12DfM9XhwaO01xGjYcevSB9XaAAc9YBHLJAiBJBfbW+7DJ7uGu/78fxk6TDcM/h15HQ+ce8OZ7sdOUBguAJBXIt+Nh/xPCxd+LWM0MGw6b7gEHnxJ2N1TNWQAkKc8qKuDau2CtreH+J3yMXVtVVXDXI7BGN7j+Hv/3rCkLgCTl0Scjwx3r8efAtMQn9+Xa5KlwbH/Y9gD4bnzsNNljAZCkPLnnMdhw1/SW8xXai0Nh7W3hgf/ETpItFgBJyrGff4GdD4UDT4IZM2OnScPkqbBfXzis36+nG2rhLACSlEMffRZmqj81JHaSNN3+EGy1dzj2WAtnAZCkHBnwDHTpGfbvVzxvvQ8b9oD3Po6dpLhZACQpB666HfY+1kf+xeKb72HzXvC4h1ItkAVAkmqhqgpOugBOPB8qK2On0W/NmBk2D7rvidhJipMFQJJqqKoKjjsbrrwtdhItyLwK6H1i2C9Av+dxwJJUA5WV0Of0cGSvitv8olZZCccdFDtN8fAJgCTVQN9zvfhnSVVV2IzpxvtiJykeFgBJWkznXAPX3R07hWrimP5htYYsAJK0WO5+FM6+OnYK1VRlZZgT8MrbsZPEZwGQpGp6YxgccUbsFKqtWbOhR5+waVPKLACSVA3fjYeeR7rNbKmYPDVs1zxxUuwk8VgAJGkRKivhwJM9f77UjB0Hex0D8+bFThKHBUCSFuHca2Hw0NgplA9D3oB/XB47RRwWAElaiLc/gPOvj51C+XTZLfDw07FTFJ4FQJIWYNZsOPgUqKiInUT5VFUFh52W3iFOFgBJWoBzr4VPR8dOoUKYOh0OOjmt8xwsAJL0J0aPcY//1Lz2Dlx+a+wUhWMBkKQ/cfw5LvlL0VlXprM/gAVAkv7ghdfhmZdip1AMs+fAgSfBnLmxk+SfBUCS/uCfV8ROoJg+GJHG8I8FQJJ+44nnw9I/pe3868NGQaXMAiBJv3HxjbETqBhMnxGOfC5lFgBJ+p+X3vTuX796fBA8PSR2ivyxAEjS/6Qw7qvFc/y5pXtWgAVAkgjjvc++EjuFikm7tnDj+VC3buwk+WEBkCTg1n+75a+CunXguIPgo+eg+2ax0+RPifYaSaq+igq485HYKVQMOnWA2y6Gv3aMnST/LACSkvfaO/Dd+NgpCqt5U9hgXVhtJVhpeViqFbRoFn6tshImT4VfpsCUaTBlKnwxFkZ+CV9+U5r75TdsAGcdByf3Kd1H/n+UyF9TkhZswDOxE+RfWRls8lfYdVv4W1dYc9Xw3xbX5KnwxjB4+S148kX47IvcZy20rTaGWy6C1VeOnaSwyqq+oip2CEm/99wrsMNBsVPU3DrtYfig2Cmqp7IS2mwEEybGTpIfTRpBn33gyP2gfbvcf/+PR4b5E/c8Fp4YZEmLZnDp6XDYXjUrQ1nnJEBJSRv2cWle/OvUgaN7w+hX4Moz83Pxh1D2rukPY4bCeSdBqxb5eZ1c2207+OR56LN3mhd/sABIStygV2MnyL01VoHXB8D150DrpQrzms2awJnHwMgh4aJaXqRXl+WWgUdvhMdugjatY6eJq0j/L5KkwhhUYmv/d+oG7zwJG/8lzusv2TKMpw++H1ZYNk6GP1NWFh71j3gBem4fO01xsABIStbsOfDOR7FT5M4hveCJW6Bp49hJwsS6D5+F7beMnSRM7hvyANx68a8rHWQBkJSwYcNDCSgF++0Kt14Uxv6LRasWMPC2MBchhrp14LQjQxHZauM4GYqZywAlJeut92MnyI3O68LtlxTnuHvdumEuQqvmcN51hXvd9dcJG/r8Ze3CvWbWWAAkJev9T2InqL0mjWDAv6B+vdhJFu7cE0NBOeea/L5Oo4Zwdl844ZB0NvSpKf/nkZSsj0fGTlB7550UdvLLgrP7wsRJcMM9+fn+3TaBWy6EVVfKz/cvNUX4wEiS8m/ePPh0dOwUtdOuLRwTaXy9pq7tDztvndvv2bJ5GAJ58T4v/ovDAiApSWPHZX8C4GlHZu8xd3k53H0FrLxCbr7fHjuEpX2H9Ep3Q5+asgBIStKY72InqJ3GjcLM/yxq2RwevgHqLVHz77Hs0mHuw4B/hZ9r8VkAJCVp7LjYCWpn123DBMCs6rwuXHza4v+5sjI4Yl/4bHC4+1fNWQAkJSnrx/9ut0XsBLXX9xDYZZvq//41VoGXH4SbLgjHGat2LACSkvTTL7ET1M4WG8ZOUHtlZXDj+eEcgYVZoi6ccTR88Exp/L2LhQVAUpJ+mhQ7Qc01bZydpX+L0qY1nHPCgn+9Uwd48zG44GRoUL9wuVJgAZCUpKydXf9bq+fpaN9YjukdLvS/1aghXPEPePdJ+GvHOLlKnQVAUpJmzY6doOaWahk7QW7VrRtOEJy/lfEWG8L7T8OJhxXX2QalJmMrSCUpN+bOi52g5hpnePb/gnReF07uAx1Wh949XdNfCBYASUmak+FNgKqqYifIj0v6xU6QFocAJCUpy4+WZ86KnUClwAIgKUmNGsZOUHNTpsVOoFJgAZCUpIYNYieouazvYqjiYAGQlKRGGS4A4yZkexWDioMFQFKSsvwEoKoKPvw0dgplnQVAUpKyPAcA4LV3YidQ1lkAJCUp6wVg0CuxEyjrLACSkrRki9gJamfIm9k/0VBxWQAkJWmlFWInqJ3KSrjrkdgplGUWAElJWrFN7AS1d9UdMHV67BTKKguApCSVQgH4aRJcfkvsFMoqC4CkJLVeqjTOl7/wBnj/k9gplEUWAElJKiuDtsvFTlF78yrgwJNg2ozYSZQ1FgBJyVo54xMB5xv+ORxwQpgYKFWXBUBSsjp1iJ0gd554Hg7rZwlQ9VkAJCWr83qxE+TWnQPg0NNg3rzYSZQFFgBJydqwxAoAhL0Buu0LEyfFTqJiZwGQlKyVlodlloydIvdeewe67AbvDo+dRMXMAiApaaU2DDDf6DGw6e5w6c1QURE7jYqRBUBS0kpxGGC+OXPhtIthg13gjWGx06jYWAAkJa37ZrET5N8HI2CzPaH3iTBhYuw0KhYWAElJ26gTLLt07BT5V1UF9z4Oa24N198Dc10pkDwLgKSklZfDTt1ipyicX6bAsf1h9a3gln+7ZDBlFgBJyeuxbewEhTfmOzjiDFi9q0UgVRYAScnbZlNo3Ch2iji+/jYUgTW3CXsIWATSYQGQlLwG9WH7LWOniOuLMXDwKbDqlnDlbTBlWuxEyjcLgCQBffaOnaA4jB0HJ10AK2wMx58ThgpUmiwAkgRsuzm0bxc7RfGYOh2uvQtW2QJ2PhTeej92IuWaBUCSgLIyOGLf2CmKT2UlPDUEuvSErfaGR591nkCpsABI0v8c0ivdyYDV8crbsMffYcVN4eyrPXAo6ywAkvQ/LZrB3jvHTlH8vv8BzrkmzBPofSJ8+GnsRKoJC4Ak/cbJfaBundgpsmH2nLC7YKcdYcu94BGHBzLFAiBJv7HmqnDwnrFTZM+r/4U9HR7IFAuAJP1B/+OhYYPYKbJp/vDAiptAn37w8cjYibQgFgBJ+oPll4XjD46dIttmzoLbHoKO24WTCAcODgcSqXhYACTpT5x2JCzZMnaK0jD0XdjlMGjfFa65E2bMjJ1IYAGQpD/Vohmcf1LsFKVl9Bjoe26YJ3DmFTBhYuxEabMASNICHLEvbLdF7BSl56dJcMH1sNKmYRnhqK9jJ0qTBUCSFqCsDG6+EJo1iZ2kNM1fRrjm1tDraBgxKnaitFgAJGkhVloeLjsjdorSVlkJA56BjttDzyPhnY9iJ0qDBUCSFqHP3uGwIOVXZSU8Pgg27BEOIPpgROxEpc0CIEmLUFYGD1wD7drGTpKOp4bA+juFIuBWw/lhAZCkaliyJTx2EzRqGDtJOqqqfi0CvY52smCuWQAkqZo6dYDbLg5PBFQ48+cIrN0djjoTfvw5dqLSYAGQpMWwzy5w6hGxU6Rp7jy46X5YZfNw3sDsObETZZsFQJIW0wUnw+47xE6RrmkzwnkDHbeD/7wQO012WQAkaTHVqRMmBe7ULXaStI36GnY9HLbZH4Z/HjtN9lgAJKkG6i0Bj94EO3aNnUSDh8L6f4Pjz4HpM2KnyQ4LgCTVUL0l4JF/QdcusZNoXgVcexesuwO8ODR2mmywAEhSLTRsAE/eZgkoFl+OhW0PgMP6waTJsdMUNwuAJNVSk0bw7F1hhYDiq6qC2x+CDt3hyRdjpyleFgBJyoH69eD+q6H/8bGTaL7xP0KPPuHEwRkzY6cpPhYAScqRsjI4uy/cejHUrRM7jea793Ho3AM++ix2kuJiAZCkHDtsL3j8FmjZPHYSzTdiFHTpCbc+GDtJ8bAASFIe7NQNhg2EDTrGTqL5ZsyEw0+HfY6DmbNip4nPAiBJedKuLbz+CBx3UOwk+q0HB8Imu8M338dOEpcFQJLyqH49uKZ/mCDYpFHsNJrvgxGwSU94/5PYSeKxAEhSAezbA4YPgm6bxE6i+b4dD5v3gscHxU4ShwVAkgpk5RXgxfvg2rOhsU8DisL0GbDH3+GaO2MnKTwLgCQVUFkZHHsgDH/O3QOLRWUl9D0XLrg+dpLCsgBIUgTt2oanAdef43LBYnHmFXDJTbFTFI4FQJIiKS+Ho3vD6JfDSoE6bh4UXb9L4JxrYqcoDAuAJEXWqkVYKfDmY7BRp9hpdPbVcH4CwwEWAEkqEp3XhTcehdsvgeWXjZ0mbWddGbYQLmUWAEkqIuXlcEgv+PJVuPlCWLpV7ERpqqqCQ0+Fl96MnSR/LACSVITqLQGH7wNfvAoXnwZNG8dOlJ6582DPo2HU17GT5IcFQJKKWNPGcNqR8NlgOGr/sLOgCuenSbDzoTBpcuwkuWcBkKQMaNMa/nUefPEK9D0EGjWMnSgdn38JB54UO0XuWQAkKUOWXxau+ieMGQr9j4cWzWInSsPAwaV3lLAFQJIyaKmWcHbfMFnw3BOh9VKxE5W+E8+DL8bETpE7FgBJyrCWzeGfx8LYN+DuK6DjGrETla5pM+CAE6GiInaS3LAASFIJqLcE9O4JHz4Lz98L228Zzh1Qbr35Hlx8Y+wUuWEBkKQSUlYG3TeDZ++CjwfBEft68mCunXddaSwNtABIUonqsDrcdAGMexuuPiscQKTamz0HjjkrdoraswBIUolr1gSOPxhGvQSP3wzdNomdKPuefw2efTl2itqxAEhSIurUgV23hcH3w+dDwgmEDg/UXL9LoLIydoqaswBIUoLatwsnEDo8UHMffQaPPhc7Rc1ZACQpYb8dHnjsJthq49iJsuW8a8PBQVlkAZAkUacO7LYdvPRveP/pcBBRg/qxUxW/4Z/Dc6/ETlEzFgBJ0u906hCOIv7yVTjjaFiyZexExe3yW2MnqBkLgCTpTy23DFxwMnz3VthlcO32sRMVpyFvwIhRsVMsPguAJGmh6tcLuwwOfw6evA02+WvsRMXntodiJ1h8FgBJUrWUlcHOW8PQR8Jcge22iJ2oeNzzWNggKEssAJKkxbbVxvDc3fDBM3DAblC3TuxEcf00KWwOlCUWAElSja23FtxzJXzyAuy1U9oHED30VOwEi8cCIEmqtfbt4MHr4O0noGuX2GniePKFbA0DWAAkSTnTeV0Y8gC8cF9YTpiSqdPh9Xdip6g+C4AkKee22RSGDYQ7L4PWS8VOUzjPvBw7QfVZACRJeVFeDgftASNegIP3TGN+wKBXYyeoPguAJCmvWrWAOy4NqwaWXTp2mvwaMSqsCMgCC4AkqSC23Rw+fBa23zJ2kvypqoKhw2KnqB4LgCSpYJZZEp6+A045PHaS/Bn6buwE1WMBkCQVVHk5XHo63HJROIWw1Lz/SewE1WMBkCRF0WfvMDegvMSuRO9ZACRJWrjePeHG82OnyK2fJsG4CbFTLJoFQJIU1eH7wDG9Y6fIrdFjYidYNAuAJCm6K86EjTrFTpE7Y8fFTrBoFgBJUnT1loDbL4El6sZOkhtjv4udYNEsAJKkorB2ezjmwNgpcsMnAJIkLYbT/w4NG8ROUXsWAEmSFsPSrWDfHrFT1J4FQJKkxdRn79gJau/b72MnWDQLgCSpqHReN/tHCE+dHs4FKGYWAKkIzZ0XO0HtpHDsq/KnvDz7BwZVVsLsObFTLJwFQCpCs2bHTlA7SywRO0Fcn30BOxyUrbPhi80G68ZOUHszZ8VOsHAlsuJSKi3FfuewKKWylntxTZoMZ18N/7oX5lXAp6Nh+CBo2jh2suzpsFrsBLU3Yya0bB47xYL5BEAqQnMsAJkybx7ccA+sthVce1e4+AOM+Q76XRIzWXatsUrsBLU3o8ifAFgApCI0eWrsBLWT0hDAkDdg/Z3gmP7w8y///9dvvA9efqvwubKumO+cq2vGzNgJFs4CoEyZNgNOvQiGfx47SX5NmBg7Qe00ahg7Qf599Q3sfhRsvd/C349VVXBYP5g+o3DZSkGjhlC3TuwUtVPscwAsAMqMR56FtbaGy26BE8+LnSa/fvgpdoLaad40doL8mT4DzrwCOnSHx56r3p/5YgyccVl+c5WiUtgRsJhZAFT0Rn4F2/WGPf8O344P/+3FofDki3Fz5VPWnwCUYgGoqoIH/gNrbg0XXL/4KzWuvweefy0/2UpRVVXxj6EvSv16sRMsnAVARWvmrDCjer0d/vyD88Tzsz9bfkG+HBs7Qe2UWgF472PYohfs1/fXErq4KivhgBPguxr++dRMmQYVFbFT1E6D+rETLJwFQEVp4GBYe1s455oF32l9MQauu7uwuQphztzwd8uyFs1iJ8iNCRPD+H3nHvD6u7X/fj/8FEpE1i9shfBNBrbSXZR6RT4Z1gKgovLVN7DLYeHHV98s+vefd23p3VGN+ir7OwEuu3TsBLUzdx5ccSus0Q1ufyjcvefKK2/DyRfm7vuVqo8+jZ2g9poV+ZMwC4CKwuw5cP714a5/4ODq/7kp0+D4c/OXK4ZSWOGw3DKxE9Tcsy9Dx+3CRTpfyzGvvgNueyg/37tUvPdJ7AS1U14OrYp8KaMFQNENejV84P7zipotm3n02cUrDcXutXdiJ6i9Nq1jJ1h8I7+CnQ6FHQ+Gz7/M/+sd/c/wNEB/7qmM/5tu0QzqFPkyRguAovl2fJjZv/2BMOrr2n2vY84KewSUglK4KLTJ0BOAKdPglAtDCX16SOFed85c6NEHPhhRuNfMik9HF6aE5dOSLWInWDQLgApu7rywln+trcPa/lwYOw7OujI33yum8T/CiFGxU9RO86bQKgMffpWVcMfD0L4rXH5ruCAX2uSpoQCPzvikz1y7+YHYCWqvbZvYCRbNAqCCevkt6LRj2M0v13fs19wZ9gfIsgHPFP8Z4ouy2sqxEyzaG8Ngo13h0NPi77kwYSJ03796k15T8MuUUMyyrl3b2AkWzQKgghj/I/Q+Ebrtm7873MpK2L9veK2suu/x2Alqb7WVYidYsHET4IgzYPNe8O7w2Gl+9fW3sOke2X/6kwsX3gBTp8dOUXurWACUunnzwp35mlvDvY/n/+52wkQ45NRs3kV/MhL++2HsFLW3ahEWgFmzw4WlfTe45d+5XdaXK9//sOhzBUrdJyPDColSsMqKsRMsmgVAefPGMNhgF+h7bmFPt3v2Zbjq9sK9Xq5cdGPsBLnRcY3YCX7v8UFheek/Li/+A3nG/wib7RHew6mZNRsOPDn7e2DMV2z/Dv6MBUA59+PPYWx1sz3hw0ibefS7BF54Pc5r18ToMfDgwNgpcqNTh9gJgo9Hwjb7Q88js7W18pRpsPNh4eyAlBx3NgwromGZ2mhQH9ZYJXaKRbMAKGcqK+Gm+8Pj/jsejvsYfu68sMTwk5HxMiyOY84qje1hGzeC1VeOm+HnX+DY/vCXHWFwRieFVlSEv8N+fUtjPHxRLr4Rbn0wdorc6bA61K0bO8WiWQCUE+8Oh413g6PODB/AxWDyVNi2d+33GMi3ex4LmyGVgnXXjLf5SUUF3HhfGOe//h6YVwKF6oH/wPp/K5074z9zxa1w+qWxU+TWBh1jJ6geC4BqZdJk+Ps/w5Kqdz6Kneb/GzcBuu0TdnkrRsM/D3f/paLL+nFe96U3Yf2dwnvxp0lxMuTL6DHQpWe4SNZkp8xiVVEBJ5xXmucibLFh7ATVYwFQjVRVwZ0DwmEpN95XnLOq5/t2PGy6O7z5XuwkvzduAux0SGk94t1sg8K+3qzZYain277w0WeFfe1CmjsvPCbvuD0890rsNLU3/kf42yGlM+P/j7bYKHaC6rEAaLF9+GlYR33IqWHCXxZMnBSWWBXLASyffxkmSY4dFztJ7pSVwaYFLgAN6oeNY1LxxRjY4aAwuTGrS0bvfwLW2a50hr3+qF1baLtc7BTVYwFQtU2ZFpb0bbAzDM3B2eiFNnMW9OkH+xwX9zHxU0PCpi+ltvPbmqvCMksW/nUvPT2cvJaSwUPDnJvdjsjOv8W3P4Cu+8D+J5TeMM1v7dg1doLqS+yfjWrqgf+E2f3X3Jn9yVUPDoQ1tg6zjgs58/6Hn+DgU2DnQ0vzA3C7LeK87l/Whn13ifPaMVVVwRPPhydJG+wSJpMW4xyBIoQDTAAACvRJREFUV94ORaVLz7AVeKnbeevYCaqvrOorMrhnmgrl09Fw9FlhklUpWn1lOPVIOGA3qF8vP6/xzfehON14H8yYmZ/XKAbP3wvdN4vz2mO+CwV11uw4r18smjaGHt1hr51h282h3hJxcnz/Azz6HNz2YLy9QGJo2hh+fC9/nyW5ZgHQn5o1G/pfFXbUK5WduRamZXPYYwfYe2fY5K9hbLk2Rn0dStODA8MdUDFPksyFxo3gp/fjfvCdcmE41U9B08ZhMlq3LtC1C6y3Vv6GSubNg2Efw6v/hacGw+vvlv57/s/ssws8cE3sFNVnAdCfmjcP1twmTDpKTYP60Hld6LxeONhm1ZXC2d4tmkHDBuFDdMZMqKyCH38KEwy//wFGfQUjRofz3cdNiP23KKye28OjkbcynjIN1u4eVn3o/2vUENZePRSBddYI7+vlW8Nyy0DrpcIkzkWZMRPG/RDe35+ODstYPxkJ736U+9M9s+jZu2D7LWOnqD4LgBbo7kfhoJNjp1AWPHQ99Ppb7BTw5IvQo0/sFNmzRF1o2iSU3PIyaN7s11+bNDl8nfhzKFn6c8stA9+8EW8jrJqwAGiBKiqgQ/fi3URHxaFJI5jwbrjDLAa9joYBz8ROodScegRc0i92isXjKgAtUJ068M/jYqdQsdule/Fc/AGuPTvM6ZAKpU4dOGr/2CkWnwVAC7XPztk41lLxHNordoLfW3bpsDeAVCi7bAMrrxA7xeKzAGih6tSBq0tor3rl1hqrhBnmxebQXmE5nFQIfQ+JnaBmLABapG6bwO47xE6hYnT4PtWbPV5oZWVw52XZvCtTtmy2QXYO//kjJwGqWr75Pmy0Usob2WjxNG0MY98IM8eL1dsfwOZ7prGXheJ4+UHYMiOH//yRTwBULW2Xg1MOj51CxeTI/Yr74g+wUSfof3zsFCpV3TfL7sUffAKgxTB7TjgI6OORsZMotvr14MtXoU3r2EkWrbIynKD3/Guxk6iU1K0D7z2d7UnSPgFQtdWvB3deHt74Stuhe2Xj4g9h58YHrwunFUq5csR+2b74g08AVAP/uBwuvCF2CsXSpBGMejkst8uSL8aEI3QnluBJjCqspVrC50OgVYvYSWrHJwBabGcdB+u0j51CsZx4WPYu/hD2vn/s5uyc1Kbidd052b/4gwVANVC/Xnik2rhR7CQqtDat4eQMTwbdvDPcenFxLl1UNvTcPpwaWgosAKqRtdvDTRfETqFCu/LMsPwvyw7YDS48JXYKZVHrpeBf58VOkTsWANXY/rvCEfvGTqFC2WZT2Gun2Clyo99RcHbf2CmUJeXlcM+VoQSUCguAauXqs+CvHWOnUL41aVR6T3z6Hw9nHhM7hbLiH0fDtpvHTpFbFgDVSoP68MQtsMKysZMon646K0yiKzXnnRSOcZUWZseupbmhlAVAtbbCsvDMXdC8aewkyoce3eGwvWKnyJ9L+lkCtGAd1wiTnuuU4P4n7gOgnBk8FHY8GObMjZ1EudKuLbz7ZGkseVqUq++Aky4IOwdKAMstA289Diu2iZ0kP3wCoJzZetOwxKrcd1VJaNgAHrspjYs/hCNdH7zOfQIULNkSXri3dC/+YAFQjvXuCTdfaAnIurIyuPUi6NQhdpLC2nNHeP5eaNk8dhLF1KwJPHd3WO5cyvyYVs4dtle4eFgCsuv8k2C/XWOniGOLDeG1h2GVFWMnUQwtm8Oge2CDBFY3+RGtvDikF9zmcEAmHbU/nHF07BRxrd0ehg0MEyCVjtZLwUv/ho3/EjtJYfjxrLw5eE+490rHVLOkd0+47uzYKYpDi2bw+M1w6emegJmCVVeCVx+G9daKnaRwXAWgvHvzPejRB378OXYSLcxeO8F9V0HdurGTFJ/X3oG9j4VxE2InUT50WT/sZ7LMkrGTFJZPAJR3XdaHoY9C+3axk2hBDt8H7r/ai/+CbN4Z3nsKdtkmdhLl2oG7h8f+qV38wQKgAll9ZXjzMejaJXYS/VZZWdgN7+YLS3Ojk1xqvRT851Z44BpYulXsNKqthg3CsuW7Lk93mNIhABVURQWcey1ccEP4ueJpUD98AO6f6Gz/2vjxZzi2Pzz0VOwkqok1V4WHrod114ydJC4LgKJ4+S3Y/wT4bnzsJGlaafmwyc/668ROkm1PPA9Hn+XcgKwoLw8bPp1/UngCkDoLgKKZOAkOPhmeGhI7SVp26gZ3Xg5LtYydpDRMnwGX3wqX3RJ+ruLUvh3cdkmYz6HAAqDoBg6Gv58J3/o0IK8aNoCLToXjDgpj/8qtiZPgvGvhhnsd3iomDRuEw576HRWGvfQrC4CKwi9T4IzL4OYHPIwlH7ptEib6rVaCR/oWm48+g1MuhOdfi50kbWVlYWvnS08PQ176/ywAKipvvQ/H9Idhw2MnKQ3LLAmX/yNM9POuv7Deeh8uuQmefNFSW2hdu4RjnjuvGztJcbMAqOhUVcFjz8FZV8GIUbHTZFPDBuFRf7+jwo52iuezL8Icgfseh9lzYqcpbV27hG2st9k0dpJssACoaFVUwANPwjnXwBdjYqfJhiXqQu/dof/x0Ha52Gn0W+MmwNV3wB0D4KdJsdOUjvJy2HlrOO3IsOmYqs8CoKI3dx488B+4/m5416GBP9WwARzaC04+3PHOYjd7Tpj4eucAGPSqEwZrqmXzcOjY3/f35MaasgAoU97+IBSBAc/4OBXCxf7I/eDQvdydLovGTYB7HoO7HoHPv4ydpviVl0O3LnDgHtBzO2jUMHaibLMAKJMmTAx3UA8OhA8/jZ2msBrUD2v5e+8OO27lFr6l4p2PYOCL4enAByNipykeZWWwQUfYY0fYZxeHtnLJAqDMG/kVPPw0DHg6LMEqRfXrhQlOu+8Ae+zgxL5SN3YcPD0krCB46c30nnbVrwebdYa/dYWe2zuslS8WAJWUz78MH5wvvRmOcJ08NXaimlt5hbB+f4etYPstoUmj2IkUw7QZ8Po74VjtN4aFYbCp02Onyq06dWC9tWCLDaH7ZrDVxj7eLwQLgEpWRUV4lPryW+HH2x+EQ1yKUd06sM4asOF6sPFfwgdgu7axU6kYVVTAxyNh6LuhFAz7GEZ/HSbLZsXyy8L6a4ezKLqsD5v8FZo2jp0qPRYAJeWHn2D4Z+ED9OPPw5DB518W7klBk0bQtg2s2CZc8NdaFTquCeu0945HNTdvHnz5DXwyMryfP/si7KEx6uuwy2YMDepDm9bhSdaaq8Jaq4WvHdcIRysrPguABMyYGc4iGP8jfPv9/76OD4e7/DIlbE40/+vkqVD5v381deuEO5cllggX93r1oHHDMIa59JLhQt+mNSzfOlz4vctRoc2cFd7P3/8QnoCNmxAm0U6YGPYjmD4T5syBWbNh5myYOzcMO8x/z7doFibi/e4r4Wt5edhtctmlYYXl/vd1WVhuGWjVIvbfXItiAZAkKUHlsQNIkqTCswBIkpQgC4AkSQmyAEiSlCALgCRJCbIASJKUIAuAJEkJsgBIkpQgC4AkSQmyAEiSlCALgCRJCbIASJKUIAuAJEkJsgBIkpQgC4AkSQmyAEiSlCALgCRJCbIASJKUIAuAJEkJsgBIkpQgC4AkSQmyAEiSlCALgCRJCbIASJKUIAuAJEkJsgBIkpQgC4AkSQmyAEiSlCALgCRJCbIASJKUIAuAJEkJsgBIkpQgC4AkSQmyAEiSlCALgCRJCbIASJKUIAuAJEkJsgBIkpQgC4AkSQn6P8BUmDe050zIAAAAAElFTkSuQmCC;" vertex="1" parent="1">
          <mxGeometry x="510" y="410" width="60" height="60" as="geometry" />
        </mxCell>
        <mxCell id="a8zKuZkFYYWIh80umhkp-8" value="" style="shape=image;verticalLabelPosition=bottom;labelBackgroundColor=default;verticalAlign=top;aspect=fixed;imageAspect=0;image=data:image/png,iVBORw0KGgoAAAANSUhEUgAAAgAAAAIACAYAAAD0eNT6AAAABHNCSVQICAgIfAhkiAAAAAlwSFlzAAAOxAAADsQBlSsOGwAAABl0RVh0U29mdHdhcmUAd3d3Lmlua3NjYXBlLm9yZ5vuPBoAACAASURBVHic7d1LsF1Xnd/x3zrn6i0Zy5KuHsY2dmHA2Ng8QjDdNDa0sSHIpjqEqmTS08wyY5BQqXIVswwz61FSVHcm6irAklHLujGyCaaI291YYDu0jcE2YN2XpPt+nbNXBsfyvRJ63H3O3vu/1vl/P1WunnSxV+nus87vrPVf/xUE2IrWA6hRKPH/y79DD/8OQENa1gMAAADNIwAAAOAQAQAAAIcIAAAAOEQAAADAIQIAAAAOEQAAAHCIAAAAgEMEAAAAHCIAAADgEAEAAACHCAAAADhEAAAAwCECAAAADhEAAABwiAAAAIBDBAAAABwiAAAA4BABAAAAh0asBwCgdsF6AIng3wHYgBUAAAAcIgAAAOAQWwAYZiz5AsA1EACA4ReNn59KEOPfAdiALQAAABwiAAAA4BABAAAAhwgAAAA4RAAAAMAhAgAAAA4RAAAAcIgAAACAQwQAAAAcIgAAAOAQAQAAAIcIAAAAOEQAAADAIQIAAAAOEQAAAHCIAAAAgEMEAAAAHCIAAADgEAEAAACHCAAAADg0Yj0AAJKkYPz8aPz8S/h3ABpCAMAws57Mrb/MAOCa2AIAAMAhAgAAAA6xBQCkwXq7IhX8OwANYQUAAACHCAAAADhEAAAAwCECAAAADhEAAABwiAAAAIBDBAAAABwiAAAA4BABAAAAhwgAAAA4RAAAAMAhAgAAAA4RAAAAcIgAAACAQwQAAAAcIgAAAOAQAQAAAIcIAAAAOEQAAADAoRHrAcC9YD0AAAAAAAAAAAAAAAAAAAAAAAAAAAAAAAAAAAAAAAAAAAAAAAAAAAAAAAAAAAAAAAAAAAAAAAAAAAAAAAAAAAAAAAAAAAAAAAAAAAAAAAAAAAAAAAAAAAAAAAAAAP0I1gPIxhMTH1Y3ftl6GACA62iHZ/XU6BvWw8jBiPUAslF0P6IQ/sZ6GACA6+iEr0kiAGxCy3oA2Yhx3HoIAIAbaHcmrIeQCwLAZhUFAQAAUhe3MldvEgFgs3bPTEiK1sMAAFxT1I7xSetB5IIiwDKOjp+X4l7rYQAAruq8ThzaZz2IXLACUAp1AACQMOboEggA5fByAUC6mKNLIACUEQLVpQCQLgJACQSAMjgKCADpCuJHWgkEgHIIAACQLuboEggA5fByAUC6mKNLIACUEXm5ACBZzNGlEADKaLG/BADpok6rDAJAObxcAJCqggBQBgGgFO4DAIBk7eqySlsCrYDLOnpuTtJu62EAAC4zpxOHbrIeRE5YASgrsA0AAAlibi6JAFAWVaYAkB7m5tIIAOWxxwQAqWlRAFgWAaAsUiYApIi5uSQCQGmkTABITmwxN5dEACirRcoEgOREtmfLIgCURsoEgAQxN5dEACiroNEEACSnTQAoiwBQVtzCSwYAyQnMzSURAMpabfOSAUByCABlEQDKGrtlRtKy9TAAAO9b0lMH5qwHkRsCQH+oAwCAVNCfpS8EgP7wsgFAKjie3ZcR6wFkipcNw6HNbwBUqIhSjM0/lx4AfSEA9IeXDcNhdKf1CDBMppakta7Fk/lR1gfif3942QDgSoXBr3+JGoA+EQD6w8sGAFeyCgDMyX0hAPSDtAkAlytks/8vcRVwnwgAfeFlA4DL2P36pwiwTwSAfrR42QDgMqYBgB9l/SAA9IWXDQAuYxkAOl3m5D4QAPpx/PC0gtashwEAyegaBYCgNZ364AWbh+eNANCXECVNWY8CAJJRFDbPjZp4b05GSQSAfnESAADWmW0BcAtgvwgAfaMOAADeRw+A7BAA+sdJAAC4xG4LgADQJwJAv3jpAGCdXREgP8b6RADoV6tFAACAS9gCyA4BoH+8dAAg9VoA29XhMxf3iQDQP146AJCs2wAzF/eJANCvbmDfCQAku/1/iTbAAyAA9KvL2VMAkGS7ArCNFYB+EQD6tbJ/Ur0LMAHAN7sA0NXIwWmrh+eOANCvM6Ej6bz1MADAnF0AmNax0LV6eO4IAINh6QkArAJAYA4eBAFgMLx8AGBVBMgJgIEQAAbBywcANAHKFAFgELSgBADDAMARwEEQAAbDywcArABkiQAwCLYAALgXLYsAWYUdAAFgICw/AXDOsgsgKwADIQAMokX6BOCcZRdAfoQNhAAwEF4+AM6ZXgS0lTl4AASAQXQWxmV5CSYAWLMLAFE7xietHj4MCACDOHn3ioJmrYcBAGbsagAu6Ni9q1YPHwYEgEFxFSUAzzgCmC0CwOB4CQH4RQDIFgFgYC1eQgB+WQWAyCmsQREABsVLCMAzqwDQYgVgUASAQfESAvDMrgiQuXdABIDB8RIC8IsagGwRAAbHSwjAJ9MmQMy9gyIADIqXEIBXlgGgoP5qUASAQXV5CQE4ZRkAttKDZVAEgEHtDryEAHyyvAmwG/nxNSACwKCOjc5LWrAeBgA0zm4FYE7HjyxaPXxYEACqQRIF4A8nALJGAKgGLyMAf+y6ADLnVoAAUAVeRgAeFYXNc1sUAFZhxHoAQyH42wL47n9o6che61FgEDu3t7Tv4DZdXLIeCQbxo1929T9f6Ng8vMMWQM4IANVw9zJ+8kPSgx8J1sPAANrtlvbuZQrI3dnfG/0Kl6TIRUA5YwugEv6WoyZmrEcAQJLGZy2P4hk9N3ILaxUIAFVwWAMwMWM46QB438Sc0WexiJLYAsgZAaAK0d8KwOSs9QgASIYrAJZdANsEgCoQAKrQ9rcfRQAA0uAyAIgOrFUgAFShWHP3MlIDAKTBdgvACgGgCgSAKjx9+0VJK9bDaBIrAIC9+ZWoBauZx+4egCU9dWDO6uHDhABQiRClMGk9iiYRAAB7picA7FYA3G251oUAUB1XS1KcAgDsOQ0ArubaOhEAKuPrJMDKmjTLXVyAqQnLhXC7LQBXc22dCADVcfdSsg0A2GIFAIMgAFQlBHf7UmwDALZcBgCHjdfqQgCojK8tAIkVAMCaywDACkBlCADVcfdSsgIA2LJrAiS7i4Ac3r5aFwJAVRwuS7ECANgyawJk9eXfe7i7ubYuBICqEAAANMxlG2CHd6/UhQBQla3+lqVoBwzYMgsAdkcApU6XAFARAkBVHjg4JaljPYwmsQIA2Flek2aWnAWAoDWd+uAFm4cPHwJAVZ4MhaRp62E0iQAA2DHb/5ekorB5btREr/U6qkAAqJarpSlOAQB2fB4B5BbAKhEAquSsEJB2wIAd2wBgtALg7EdW3QgAVWr5eznZBgBsmG4B2NUAuCu2rhMBoEoxuns52QYAbLjcAnC2ylo3AkC13L2crAAANlwGAIdzbJ0IAFVymE5ZAQBsmAWAGCW7j727ObZOBIAqxba7l5MVAMCGzy6ABIAqEQCqNOLv5SQAADbMigAtuwC2KQKsEgGgSkXL3ctJO2DAhssVALYAKkUAqNK7+yZkuTtmgBUAoHmdQjq/4C4AdLVtdMrq4cOIAFCll8KaJFd9qgkAQPMm56Ld97BdAJjWsdC1evgwIgBUz9USFacAgOa5PAIYfM2tTSAAVM/VS0o7YKB5pgHAqgiQEwCVIwBUz91LyjYA0CyXKwAO59a6EQCq5+4lZRsAaJbtVcBWz47u5ta6EQCq5vCyClYAgGa5XAGI/ubWuhEAqucupbICADTLrg2w7AKAw9tW60YAqJrDQhVWAIBm0QQIVSAAVM7fPhUBAGiWXQAobJ4ryePcWjcCQNVG/O1T0Q4YaJbLFYC4lQBQMQJA1bZ03L2krAAAzYlRmpp3FwCidoxPWj18WBEAqnbstiVJc9bDaBIBAGjO9EJUx2ol3u4mwAs6du+q1cOHFQGgHq5WATgFADTH5RFA+dtabQIBoA7OTgLQDhhojtMA4GpObQoBoA4tf9WqbAMAzXAZAJz9qGrKiPUAhpS7l/V//zLq99PWo0AZO7YV2n+wq9ll65HY2L0t6MG78vsN5LINME2AakEAqIPDlpXf+V+W54PRn0I67PTbX9Jf3N3W89/ebj2M0lzeBOjwR1UT8ou/OYgtXlYgcQdvCtZD6IvLLQACQC0IAPXgZQUSRwAoybIJUOFvVbUJBIA6tAkAQOpG9xAASrFb/qcIsCYEgFoEXlYgcdmuAFgVAVquAGz1d7KqCQSAOqy1Wa4CEpdrAJj0GAC6kTm1BgSAOpzcNytpyXoYAK4txwBwcTFqec3o4XYBYE7Hj9BqrAYEgPqQWIGEje6xHkF5LnsAUFRdGwJAfXhpgYTluALg8gggBYC1IQDUh5cWSNTOrb1OgLlx2QQosJpaFwJAfQgAQKJy/PUvOV0BECcA6kIAqAvLVkCyCAB9KMzafTOX1oQAUJcWy1ZAqnJtAmRaBNg1ei6t1WtDAKgLKwBAslgBKKmIkjgFMGwIALVh3wpIFQGgJMsmQLRWrw0BoC6RAACkKtctAJdtgIvAdmpNCAB12Vrw0gKJYgWgJNM2wG1+TNWEAFCX7996XkFWTTsBXEeOAWBhpfefCbubAJffa62OGhAAahOioiatRwHgT+UYAHz2AGD/v04EgFpRBwCkKMcAwD0AqBoBoE6BlxdIzZa2dPOO/AKAyzbABIBaEQBqRQMLIDWje4JCft//bAGgcgSAOtEMCEhOjsv/kuERQImbAIcUAaBOkXbAQGqyDQAeVwBoqV4rAkC9SK9AYnINABNWASBKiqwADCMCQJ1oYQkkJ9sugB6bAHGSqlYEgHrx8gKJyXUFwGUbYFqq14oAUC9eXiAx2QYAqxUAuyOAUqfLHFojAkCdto1Oye4WbQBXkeMWwEpHmllyFgCC1nTqgxdsHu4DAaBOx0JX0nnrYQBYl+MKwMRsNKvDUyyMnqsJKVgWIAw9AkD9WMICEpJjALDtAWAUABQ5AlgzAkD9CABAIlpB2rc7vwBgdgRQstwCYO6sGQGgfrzEQCL27w4ayXDW83kPAK3U65bhRyEzNLIAkjGa4fK/ZL0FQBOgYUUAqButLIFkHMzwBIDktA0wq6e1IwDUjUYWQDJyLACUDANAjL1WwDaYO2tGAKgfLzGQiFwDgFkRoGUXQFZPa0cAqBsrAEAyqAEoyfQeAH481Y0AULei4CUGEkENQEmWbYAJALUjANRt98yELHfRALwvxy2AbiFNz7tbASg0Ozpt9XAvCAB1O3bvqqQZ62EAyHMLYHI+2n0P2wWAKZ0JHauHe0EAaERgKQtIQI5bAC6PANIFsBEEgCbwMgNJOEAAKMeqBoAmQI0gADSDlxkwdvPOoO1brEdRnuk9AHZbABwBbAABoAkcBQTM5VgAKNEGGPUhADQhBtIsYGw0w+V/yWkNgPjR1IQR6wE44e5l/s43g750X54Trhfbt7W1/8B2za/4+Dt9YIf1CPpjtgUQZRcAWv7mTAsEgCa04ri3TgC7t0sPfMjHF0uu2u2gvXvb1sPADZzz2AbY4Y8mC2wBNMPdyzw5az0CYDiYbQEUhc1zJbEF0AwCQDPcvcwEAKAa52YcrgB0CuqmGkAAaIS/+wAIAMDgiihNWbUBtrsHIEpLk1YP94QA0ITjRxYlLVgPo0kEAGBwU/NRHauVeLMVgHBRJ+9eMXq4KwSA5rhaBZi46KzqEagBRwBRJwJAc1y91KwAAIPzGQB8zZWWCADNcfVSL69J88vWowDyZlYAKNEF0AECQFMcvtRTrAIAA3HZBpgmQI0hADTG374W2wDAYJzeBMgRwIYQAJoS/L3UE5bLl8AQoAYAdSIANMfdS80KADAYs3sALJsAOdwutUIAaIrDK4EJAMBgzO4BsGsCRABoEAGgKXGLu5d60nL5EhgCdvcAGH52t/r7sWSFANCU1ba7l5oVAKB/0bINsGUA6EZ39VJWCABNGbtlRpKrk/F0AwT6N70QtdY1erhdAJh7r3U6GkAAaJarCy5YAQD6xwkA1I0A0CRnxS0EAKB/LnsAyN9xaUsEgCY563A1vywtrVqPAsgTKwCoGwGgSc5WACRpas56BECeJjy2AXbYMdUSAaBZ7l5uCgGB/tiuABRWT3Y3R1oiADTJYY9r6gCA/tjWABg9N7YIAA0iADTJWQ2ARAAA+mXbBMjsJkB3P5IsEQCaRQAAsCkuuwAquJsjLREAGuWvwIUAAPTHrAiQi4DcIAA0yl8A4EpgoD8uA0DXX8t0SwSAJh0/PC2pYz2MJk2xAgCUNrMUtbxm9HC7JkDLOrmPGaNBBIBGhShpynoUTWILACiPJkBoAgGgea5ecgIAUB4BAE0gADTP1Us+sxi16mrTAxgcAQBNIAA0zlchYIzSlOVkBmTIZQBw2CjNGgGgaQ6PubANAJRjeg+AVRGgw0Zp1ggATQv+Ui4BACjH5QoAWwCNIwA0zl+vawIAUI5ZAIjq7dvZPNvd3GiNANA0hy85zYCAcny2AfZVH5UCAkDTor9e16wAAOWMe+wCGAkATSMANK3rMADMWI8AyIvZCoBdF0Bpa+GuPsoaAaBpK/snJRXWw2gSKwDA5i2uSgsrRg8vzKamjh649YLVw70iADTtTOhIOm89jCYRAIDNc3oCYEJPBlc/jFJAALDgrOEFRYDA5tkGAKvvYPb/LRAALDhreHFhQVqjHTCwKaYBwKoGIPiaE1NBALDg7ChgjNL5eetRAHlwGQAc9kdJAQHAhruXnToAYHPMjgBKNAFyhgBgwVkNgEQAADZrwmMRoMM5MQUj1gNwqaVxOauLe+rFQu9MBethYINd2wvtPbSmi4vD+Xc5cnPQ0fvb1sMozewioBgtDyizAmCAAGDD3cv+t89H/e3zzlJP8grp8Kr1IGrzbz89kmUAOGd1asayC2Db35yYArYATHDkBajb6B7rEfTHZRtghz+KUkAAMEEAAOp28KY8tzZctgEmAJggAFiYW6HgBahZjgFgpSPNLLlbASg0Ozpt9XDPCAAWzty5rCCuyAFqdHBPfgFgYjaancQzDABT77VIR8MIAFY49gLUKscVANMeAFYBgC6AZggAZqgDAOqUYwAw7QFgVQPAjyEzBAA7BACgRjkGAKc3ATIXGiEAWIn0vgbqsmOLtGd7hgHA4xYAbYDNEACsOLsREGhSjr/+Ja8rAGyHWiEAWGHfC6gNAaCkKLsAwI8hMwQAO7z0QE1yDQBmRYCWXQD5MWSGAGCFfS+gNrkGALMaALPmA5IiWwBWCABWCgIAUJdsA4DVCkDHsvagYC40QgCwsjvw0gM1Gc2wC2C3kKbnrbYAzO4BjtLSpNXDvSMAWDk2Oi9p0XoYwDDKcQVgcj7abcWbPThc1Mm7V4we7h4BwBLFL0AtcgwAHAFE0wgAljj+AtSCAFASXQBdIgBY4iQAUAsCQEl29wAwBxoiANji5QcqtnVEunlHfgFgwmMb4MA2qCUCgC0CAFCx0T1BIb/vf7YA0DgCgCWKAIHK5bj8LxkHALtGQAQAQyPWA3CtFccV85ys+vXvv9DSV+63HkV5//FvCnW61qPAZhAASipi7y4AC9QAmCIA2HL38h/ZG/XEZ/NbePrPfydNzFiPAptBACjJqgBQIgAYy28mHir+zsBOzlqPoD8HbrIeATbrYIZdACXDIkDLi4C2+psDU0IAsFSsuXv5cw0Aox/I80vFoxxXAGKUJj0GgG6kDsoQAcDS07dflOSqDWauAYAVgHyMZhgAzi9GrVnVmNgFgHkdP0I7dEMEAFMhSsHVRRiTM4a/NgZAAMhHjisALo8ABvb/rREA7LlaAsu1kG4/ASAbOdYA0AUQFggA9lx9CJbXpIUMNz0OZPir0itWAEqiCZBbBABrDlPwZIarABQB5qHdkvbtzu9v5TMAcALAGgHAmsMbAXMsBKQGIA8Hdge18vv+93kPACsA5ggA5vyl4IkMCwEJAHnIcflfcroCwEVA5ggA1mJw9yHIcQVg3x5l+cvSGwJASUU0vAeg5e7HT2oIANYc1gBMzVmPoLyRtnTzLutR4EYIACVZNgFScDf3pYYAYC362wLIsQhQohAwBwSAkiwDgMMfP6khAFjb5u9DMDFTWA+hL/QCSF+uAcBnG+C2u7kvNQQAayMHpyW5umg2xxoAiULAHOQYAGaWopbWjB5udxPgsk7uy3QmGB4EAGvHQlfSlPUwmkQAQF1yDAAcAYQVAkAKnB2HybEIUCIA5GCUNsDlEABcIwCkwFkxzOyitGK15DkAigDTl+MKgNMA4OpHT6oIAGlwFQAkadJy0usTKwBpC0HaTxvgcqwCgLMfPakiACTB4VHADOsAOAWQtn27gra0rUdRnsubAB22QE8RASAN7j4MOQYAVgDSluPyv0QRIOwQAFLgrAhQyjMAjH4gKOT5HeNCrgHAbAUgyq4NMFsASSAApMHdhyHHboBbR6Q9O6xHgWshAJRk1wNAitHdj54UEQCS4LEGIL8iQIltgJTlGwCMHlwYduQc8fejJ0UEgBTEre4+DDluAUgEgJTlGwActgFudd3NeSkiAKTg3X0T6u3IuZFvAMjzS8aDgxk2AVpak+ZX3AWAjh649YLVw7GOAJCCl8KaJFcfiBxrACSaAaUsxxWAczMuTwBM6MmQ541gQ4YAkA5XS2K5rgDQCyBdOQYA2yZAVt/B/mqeUkUASIerqtgLC1FrHetRlEcNQLpyDACmPQCsTgEEXz92UkYASIWzc7ExSufnrUdRHgEgXQcyrAFw2QZYLVdzXcoIAKlw2Bozx20AAkCabt4ZtG3EehTluQwA0ddqZ8oIAOkgAGSAIsA05bj8L7kNAO7mulQRAFLhMBVPWFZA94kVgDTleARQsmwDHCW7OnwCQCIIAKlwmIpz7Aa4c1vvP6Ql1xUAsyJAyyZAbX9zXaoIAKlwGACmMtwCkFgFSFGuAcBlF0BWAJJBAEjFVn9nY3OsAZCkv/pc0OG91qOAJLVb0r++s6XH7m1bD6UvZisAlhcBEQCSkWHd7JDa0hlXZ4v1KBqVawD4zjdb+s43pbcmpedeiXru1agzr0TNLlqPzIe7DgQ9ck9bj9zT1l9+rK1bduX563+1I11YNKwBsFFodnTa6uG4HAEgFcduW9LRc3OS9lgPpSk5FgFudMcB6a8fDvrrh4O6hfSrt6OeeyXq+dekF36dZ6OjFO3eFvTgXa33v/Q/c8dwLFxOzEW772G7FYBpnQl8MhJBAEjLuBwFgFxXAK6m3ZIe+FDQAx8K+k9flxZWpH98oxcGnnsl6uXf5R12mtRuSZ+8bf0L/6GPtLUlzxX+63J5BJDl/6QQANIyIenD1oNoyvRcbx5q5bmCe127tkkP3Rv00L3Sf/134bLtgp+8Jl2YJxBstHFZ/9GPt/WBHUP4UlzBNADYrQAQABJCAEiLqw9Ht5AuzEv7HKx5XG+74Ge/jlp1tih6YE/Qwx/pfeF/9b62br9l+L/wr2R6DwArABABIDFxXPI1EU7ORu3LtIlLv67cLlhalf7v6+vbBWffMtwbrsmOLdKff7j9/q/8T93eGsqVnzJcbgE4PO6cMgJAWtx9OCZnpY/daj0KWzu2Xr5dMDnbWxV47tWosbPSH8/nmQbuOhD0+P0jOnp/W1/4cFvbfR1yuSGXAYCrgJNCAEhJbI0r5DnZ92uYCgGrcuAm6YnPBj3x2d5P5I31A8/+Mmp+2XiA13DopqC/uLv3C//o/W0dudn5T/wbsGsDLLsAEPy1PE8ZASAlLU3I1/e/JmesR5C+jfUDna70yjtRz7wsnfpF1C/fimZz+a5t0ufvWl/W//TtLQW+8zfN9B4AO6wAJIQAkJQwLmcJgBWAckbal+oHpG9/I+j8vPR/XuutDvz4V9I7U/W9P1cez/vi3W1tZQbp27jHewAiWwAp4eObEocFMr0LgfjZ2K9bdl97u+C5V6JmBuxOuPF43iP3tLV3J3+rqkxYrQB0LGsPCndzXMoIACnptsfVtruj0wIrANW6/nFDafUGk/++XUFf/ljvy/4rH2/rzv184dehW0jTC1YrAGZzTJSWJq0ejj9FAEjJyX2zOnpuSdIO66E0hRqA+lx53HBxRXrxiu6EIy3pgQ3L+g9/tK2R4ei0m7Sp+aiu1few2RZAuKiTd68YPRxXQQBIz4SkO6wH0RRWAJqz84ruhJNzLd11205tG+FXftNMmwCZFQGy/58asn56XB2TmZwdvqY3uTh0c+DL38g5y4uwrNoAh+BqbssBASA9rlLyakeaXbIeBdAs7gFACggAqXF7EgDww+wIoGTYBpgtgNQQAFLT8hcApqgDgDNmRwAlLgLC+wgA6XH3IaEQEN6YbgHYFd24m9tSRwBITeGrCFCSJiwLogADZgGgiHbNRh1ub6aOAJAcf/tkrADAG5dtgFv+ftykjgCQmhF/KZkAAG/MVgDsTgBIbAEkhwCQmlbX3YeEIkB4EqM06XEFYIUVgNQQAFLz/VvPK2jNehhNYgUAnpxfjFrrGj3cLgDM65lDC1YPx9URAJIToqJcXZhBESA8cXkEMLD8nyICQJJ8FQKyAgBPXHYB5ARAkggAaXK1V7a40vsP8MD0IiCaAGEDAkCa3H1YWAWAF+c8bgE4W9XMBQEgSS13HxbqAOCF6RaA2T0AvlY1c0EASJHD/bKpOesRAM1wWQTo8I6THBAA0uTuwzI5Yz0CoBm2bYCtwoe/Vc0cEABS5LBlJjUA8MJlG2AFAkCCCAApcrgFQACAF6YrAFYczmk5IACkqPCXlikChBdmNQCW9wB02+7mtBwQAFK068CkpMJ6GE1645z06z8SAjC81rrS2GtdLVk1+rZbAVjWyX2s8SUoWA8A13D03ISkA9bDaNqBm6TPfzTosU8GfeV+ae9uXtG6tNtt7d2713oYQ+3Nyaix17oae62r0691dXHRMOTOrUrzqxZPflsnDt1h8WBc34j1AHBN43IYACZnpadejHrqxah2S/r0XUFfui/oS/dJn7ozqM2aFRK2uCq98Jvu+1/6L72V0EIeXQBxBQJAutydBLhSt5BefCPqxTei/tsPpF3bpC/cE/ToA71AcNt+VgdgUCCNrwAADL9JREFU79V3Cx1/ufeF/5PXu1rpWI/oGggAuAIBIFVR42zQXG5hRTr1i6hTv+hNZHcckB66N+ihjwd9+RNBu7cbDxAuTM5FnfmX3hf+02e7+sPFTGpX7LoAEgASRQBIVUvjymResfLWpPS9M1HfOxO1fYv0uY8EffGeXii4/46gQIBCBTqF9PI7hU6c7er42Y7+6e3Crp/OIKxOAdAFMFkEgHTxoSlheU167pWo516Rvvv3kWJCDGRj8d6pV7qaXc7xG/8KbAHgCgSAVMU4ziGN/l1ZTHjf7UEP3dtbIfizjwZt4c3HBgsr0s/e7OrE2a6eermj304NwRf+RlF2bYAL6plSxTSYqqgJvv+r0S2kl38X9fLvov770xQTovdj+J/fLt7/lf/8612tplq8VwXLJkBcBZwsAkCqYhxnE7seFBP6NDEX9dx7xXvHX+7qXU/dJwvD44gjbAGkim+YVH3jD7ep237behjebNsiPeikmHDYGwF1Cunnb3Z1/GzvSz/b4r0qLHekC8s2z97S2a/vf3Da5uG4niGd2obA117fpvaeJfE3MjXMxYTDGAA2Fu/9wytdzQ1D8V4VFtekmRWLJ3f0rw5u05MhoY5IuGR4ZrNhdPTcBUk3Ww8DPa0gfeKO4SkmHIYAML8SdebXhY6f7ejUK129Nc0X/lXNr/ZaATfvjzpx6FaLB+PGMp6+PAjjUiQAJKKIFBNa6xbSL95ZL9577l+6WutajyoDZkWAFACmjACQsqBxRX3Uehi4OooJmzE+G/X8670jeifOdnV+gV/5pdkVAXIEMGEEgJRFPjw52diZcKQtfeYu6dEHwtAXE1ZtaU366RvrF+q4Lt6rCk2AcBUEgLTx4clUpyv9/HXp569Hfffvo/bvkf7sY73Vgcc+GXSQjZ3LbCzeO/mrruZX+MavlFkAaDGHJYwAkDIuBBoaU3PrnQm//b3Liwk//1Fp64ivP/T0QtSz/++9av1fdfX2eb7wa8VFQLgKAkDa+PAMoSuLCXdukz774d7KwFc/FXTbPusRVo/iPUMxSnaH8JjDEkYASFlLE9wIOPwWVy5dZBT1X/7u8mLCL90XtGeH9Qj7c2426vSrva57Y691dWGRl9mE3f6/1CYApIwAkDKWz1zKtZjwyuK9l96i90sSLAMAFwElLdGpBJKkr4/fpRB/Yz0MpKPKYsIqGgFdKt47cbaj0691tbw20P8c6rDSkc4btQEuWof1o9FzNg/HjRAAUvbouV3aqnnrYSBNV3YmLFtM2E8AmJqP+vGve7/wf/TLrn5/gWX95C2tSRdN2gAXmj+4TWfCMN+zmDUCQOqOnpuXtMt6GEhf2WLCzQSAjcV7J8529cJvuqYryuiDXRvgSZ04NGrxYGwOASB1R8/9RtJd1sNAfm5UTHitALDxTP7p17q6SPFe3mZXpAWTvZlf6cShT1g8GJtDEWD6xkUAQB9uVEx4yeKq9MJvKN4bWnQBxDUQAFIXNcE6DQZ1ZWfCQzdLX/t01MTIsk6/1tUqu7TDiwCAayAApK6lcXoBoGrnLkr/49lCOkw3nqFndRMgx5iT17IeAG6E6zQBDMBqBaBFD4DUEQBSR4oG0K8ow3sA+PGSOgJA+vgQAeiP7T3KzF2JIwCkrogsowHoj2XTBlYAkkcASN0IHyIAfepY3gNQMHcljgCQutZOPkQA+mO3BRClpUmrh2NzCACp+8Hei5KMbvIAkLXCqqlTuKiTd5tcQIDNIwDkgSQNoDy7GgBqlzJAAMgBRwEB9MOqCVBgzsoBASAHgTQNoA9WAYAjgFkgAOSBDxOA8mgChOsgAOSBDxOA8uxOATBnZYDLgHIQNc6NgAA2pYjSalda6RpeBBTYtswAASAH3AgI4HrW3vvCX33vP+v5osUWQA4IADmIFAEC2KCIvS/8lU7v/1q2/L06AkAGCAA5YAsA8C1GabVYX9pf61qP6EYIABkgAOSgiONqkwAAV7rF+rL+csd+Wb+MFVYtc0AAyMHnDk3rH8c74u8FDK9Ly/rvF/BZtfEd2LyeObRgPQjcGMcAc/BkKCRNWQ8DQMXWutL8qnR+SZpYkC4uS4trOX/50wUwI/yizMe4pEPWgwAwgO6lI3rJFu8Njtbl2SAA5IMPFZCb/Ir3qsD+fyYIALkImsiqCAjw6lLx3vKlM/nOPrisAGSDAJCNOC7OAgLp2Vi8t9yVioz37ytBE6BcEAByQaoG0nGp895Kp7fEj3Ut5qpcEACy0RrP6yAwMERyPpPfuBYBIBMEgFzQDRBojs/ivYoEAkAmCAC5aIeJoTwyBKSiW/T28C8t63sr3qtKl5sAc0EAyAapGqjUZZ33OnZX5w6b1TZzVSYIALmY3T+h3eOF6N4I9I/ivbota+yWGetBYHP4MsnFmdCRdMF6GEBWukWvte7FZWl8XppakuZW+fKvD8v/GWEFICe9QsB91sMAkrWxeG+5I3X4om8Yy/8ZIQDkpKVxRX3cehhAUjpF78t+tUvxnj0CQEYIADmJLK8Bl3fe6wznhTq5omFZVggAeeHDBX+ipE53vb8+Z/LTRRfArBAAckIzIHixsfPeSkdiKz8PrFJmhQCQk1Z4h/1NDKVLxXsrnd6v/C7f+BnqKOq31oPA5vF7MjdPjB9Ut/iigh6XWkeluNd6SMjY4d12z750Jn+1K60UosF+ls5J8bSijkurY3r6Do4qZ4QAkLNvxbYW3/2kFB5RCI8o6CFFbbEeFjLSZACg894wWJL0U8U4JsUxPX34n6TAHzJTBIBh8q2J3VoqvqSgo4r6qqTbrYeExNUZAKLWj+hxoU7O3lTQmKJOaH7ptM7cuWw9IFSDADDMvj5+l6RH1NIjivFrkgzXe5GkqgMA1+YOg2mF8KwKjWmkc1I/vPUd6wGhHgQAL771zg4tbv3zXhjQI1L8tPj7Y9AAECWtvle4t0LxXqa6UviFgsZUaEwLo2feaz2OIccXgFeXFROGr0u6xXpIMNBPANhYvLfa5Vd+nn6roNMq4pi2bD+tH+y9aD0gNI8AAIoJPdtMALhUvLfy3l4+nfdytCjphfXivSMvWQ8I9ggA+FOXFxM+JukO6yGhJlcLABsv1KF4L2dvSjqhGI6rmP2JTt69Yj0gpIUAgBu7vJjwq5L2WA8JFbkUACjeGwZTCuHHKjSmYu1HOvnB31sPCGkjAKCch3+7Xbt2foFiwiGxcwvFe/laL95TOKHPHHhBTwb+kNg0Jm4MhmJCoEm9M/lFHNPKtmc0dsuM9YCQLwIAqvNkbOnFdz9FMSFQmfXivREd1w8Pv2o9IAwPAgDqQzEhUF7Uq2qF4729fIr3UB8CAJpDMSFwNZMK4YwKjandOqGnDvzRekDwgQAAGxQTwq+OFF6WihOK8TgX6sAKEy7SQDEhhtt68V6x9ZRO7pu1HhBAAEB6KCZE/hYk/UzSCY3EH+oHh39nPB7gTxAAkL5vTezWYnxQIT4u6RuimBDpKaTwz+9fqLNz6nkdu3fVelDA9RAAkB+KCZGGCYXwnAqNqdM6rlMH3rUeEFAGAQB5eziOaM/kg1I8SjEhatZR1M+leLx3oQ7Fe8gbEyWGy1+dG9VqfEit8IikxxV12HpIyNp68V575B/01IE56wEBVSEAYHhdWUwofVHSVuthIWnzks4ohuOK3VP60ZG3rAcE1IUAAD8ePbdLW8LnFeLjinpCQR+yHhLMrV+oU2hM50af00thzXpQQBMIAPDr8mLCxyTdZD0kNGJcITyvqBNaWz2hU7edtx4QYIEAAEgUEw63JUk/VYxjFO8B65jggKuhmDB368V7O9sndWx03npAQGoIAMCNUEyYg2mF8KwKjanV/QcdP/K29YCA1BEAgLIoJkwBxXvAgAgAwKAoJmzKOSmeVtRxaXVMT99xwXpAQM4IAECVKCas0hXFe0desh4QMEyYmIA6bSwmjDoq6Yj1kBLXK96LOqH5pdM6c+ey9YCAYUUAAJpCMeHVrBfvjXRO6oe3vmM9IMALAgBgZWMxofS4pDuth9SA9eI9hRP6zIEX9GQorAcFeEQAAFIxvMWEv1XQaRVxTFu2n9YP9l60HhAAAgCQpofjiHa9+4BCeFxqHc2smHBR0gsU7wFpy2VCAXz72rsH1NLDCRcTvinphGI4rmL2Jzp594r1gABcHwEAyNHj796rQkcNiwmnFMKPVWhMof20Tuz/Q8PPBzAgAgCQu0vFhL3agSck3VPDUyjeA4YMAQAYNhuLCRUfVdQH+vxfWr9QZ2XbMxq7ZabKYQKwRQAAhlm5YsIFST9TjGMa0XH98PCrDY4UQMMIAIAn/2bikFrxUSk+JukvpfB7hXhKis/oj4de4EIdwI//D1qqHMaP9hKuAAAAAElFTkSuQmCC;" vertex="1" parent="1">
          <mxGeometry x="150" y="400" width="80" height="80" as="geometry" />
        </mxCell>
      </root>
    </mxGraphModel>
  </diagram>
</mxfile>
